<svg width="25" height="25" viewBox="0 0 25 25" fill="none" xmlns="http://www.w3.org/2000/svg">
<path d="M10.548 3.7793H6.22998C5.63324 3.7793 5.06095 4.01635 4.63899 4.43831C4.21703 4.86027 3.97998 5.43256 3.97998 6.0293V10.3473C3.97998 10.9443 4.21698 11.5173 4.63898 11.9383L14.22 21.5193C14.919 22.2183 16 22.3913 16.827 21.8493C18.9086 20.4859 20.6866 18.7079 22.05 16.6263C22.592 15.7993 22.419 14.7183 21.72 14.0193L12.14 4.4393C11.931 4.23007 11.6829 4.06408 11.4097 3.95084C11.1365 3.83759 10.8437 3.7793 10.548 3.7793Z" stroke="#059669" stroke-width="1.5" stroke-linecap="round" stroke-linejoin="round"/>
<path d="M6.97998 6.7793H6.98798V6.7873H6.97998V6.7793Z" stroke="#059669" stroke-width="1.5" stroke-linecap="round" stroke-linejoin="round"/>
</svg>
