<svg width="50" height="50" viewBox="0 0 50 50" fill="none" xmlns="http://www.w3.org/2000/svg">
<path d="M30.1015 26.4249C30.2725 26.8204 30.372 27.3039 30.3935 27.8634C30.6803 27.9292 30.9363 28.0902 31.1199 28.3202C31.3034 28.5502 31.4035 28.8356 31.404 29.1299C31.3946 29.4687 31.2534 29.7905 31.0104 30.0268C30.7675 30.2631 30.4419 30.3953 30.103 30.3953C29.7641 30.3953 29.4385 30.2631 29.1955 30.0268C28.9526 29.7905 28.8114 29.4687 28.802 29.1299C28.802 28.5194 29.2255 28.0079 29.793 27.8684C29.7675 27.3134 29.635 26.4679 29.092 26.0509C28.8115 25.9773 28.5253 25.9269 28.2365 25.9004C28.216 26.8729 25 29.2744 25 29.2744C25 29.2744 21.783 26.8729 21.7615 25.9004C21.4365 25.9299 21.12 25.9894 20.8145 26.0754C20.418 26.3889 20.2125 26.9739 20.202 27.8244C20.3185 27.8924 20.4125 27.9969 20.4705 28.1239C20.8975 28.3244 21.275 28.7499 21.564 29.3534C21.613 29.4559 21.619 29.5709 21.5835 29.6764C21.757 30.1219 21.856 30.6084 21.856 31.0184C21.856 31.5914 21.856 32.1334 21.231 32.2734C21.1632 32.3299 21.0777 32.3607 20.9895 32.3604H20.572C20.4712 32.3604 20.3746 32.3204 20.3033 32.2491C20.232 32.1778 20.192 32.0812 20.192 31.9804V31.9649C20.1965 31.867 20.2384 31.7746 20.3092 31.7067C20.3799 31.6389 20.474 31.6008 20.572 31.6004H20.9895C21.032 31.6004 21.074 31.6084 21.1145 31.6219C21.1395 31.6144 21.1475 31.6099 21.1475 31.6099C21.194 31.5269 21.194 31.1834 21.194 31.0184C21.194 30.6864 21.111 30.2844 20.9655 29.9114C20.8899 29.8682 20.829 29.8035 20.7905 29.7254C20.5375 29.1944 20.193 28.8524 19.9135 28.8524C19.6275 28.8524 19.2655 29.2219 19.0135 29.7734C18.9718 29.8634 18.9003 29.9362 18.811 29.9794C18.6795 30.3369 18.607 30.7034 18.607 31.0184C18.607 31.1564 18.607 31.5244 18.66 31.6109C18.6605 31.6109 18.672 31.6189 18.7055 31.6259C18.7488 31.6095 18.7947 31.6009 18.841 31.6004H19.26C19.3542 31.6006 19.4449 31.6357 19.5147 31.699C19.5844 31.7622 19.6282 31.8492 19.6375 31.9429L19.6395 31.9664C19.6395 32.1904 19.469 32.3609 19.26 32.3609H18.841C18.7582 32.3605 18.6778 32.3331 18.612 32.2829C18.373 32.2379 18.205 32.1324 18.098 31.9599C17.969 31.7529 17.9455 31.4804 17.9455 31.0184C17.9455 30.6124 18.039 30.1464 18.209 29.7004C18.1837 29.6056 18.1923 29.505 18.2335 29.4159C18.4105 29.0299 18.636 28.6969 18.885 28.4569C19.0215 28.3244 19.1685 28.2189 19.3225 28.1424C19.38 28.0069 19.48 27.8974 19.6025 27.8264C19.609 27.2939 19.691 26.8339 19.842 26.4534C18.962 26.899 18.2228 27.5797 17.7065 28.4201C17.1901 29.2605 16.9168 30.2276 16.917 31.2139C16.917 33.8709 18.8585 34.0009 21.4005 34.0009C21.678 34.0009 21.9615 33.9989 22.252 33.9989H27.745C28.035 33.9989 28.319 34.0009 28.5965 34.0009C31.1375 34.0009 33.08 33.8709 33.08 31.2139C33.0807 30.217 32.802 29.2399 32.2756 28.3935C31.7491 27.547 30.9959 26.865 30.1015 26.4249Z" fill="#477BFF"/>
<path d="M25.0012 26.5985C27.4582 26.5985 29.4492 22.904 29.4492 20.447C29.4492 19.8629 29.3342 19.2845 29.1106 18.7449C28.8871 18.2053 28.5594 17.715 28.1464 17.302C27.7334 16.889 27.243 16.5614 26.7034 16.3379C26.1637 16.1144 25.5853 15.9994 25.0012 15.9995C23.8217 15.9995 22.6904 16.4681 21.8564 17.3022C21.0223 18.1362 20.5537 19.2675 20.5537 20.447C20.5542 22.9045 22.5452 26.5985 25.0012 26.5985Z" fill="#477BFF"/>
<path d="M30.1049 29.7293C30.4363 29.7293 30.7049 29.4607 30.7049 29.1293C30.7049 28.7979 30.4363 28.5293 30.1049 28.5293C29.7735 28.5293 29.5049 28.7979 29.5049 29.1293C29.5049 29.4607 29.7735 29.7293 30.1049 29.7293Z" fill="#477BFF"/>
<path d="M34.2635 2.5H15.738C15.1395 2.50066 14.5658 2.73865 14.1426 3.16176C13.7194 3.58487 13.4813 4.15856 13.4805 4.757V45.243C13.4811 45.8415 13.7192 46.4153 14.1424 46.8386C14.5656 47.2618 15.1394 47.4998 15.738 47.5005H34.2635C34.8618 47.4997 35.4354 47.2616 35.8584 46.8383C36.2813 46.4151 36.5191 45.8413 36.5195 45.243V4.757C36.5191 4.1587 36.2813 3.58501 35.8583 3.16185C35.4354 2.7387 34.8618 2.50066 34.2635 2.5ZM14.438 41.756V8.245H35.5625V41.756H14.438ZM26.4365 44.632C26.4366 44.916 26.3524 45.1937 26.1947 45.4299C26.037 45.6661 25.8128 45.8502 25.5505 45.959C25.2881 46.0678 24.9994 46.0963 24.7208 46.041C24.4422 45.9857 24.1863 45.849 23.9854 45.6483C23.7845 45.4475 23.6477 45.1917 23.5922 44.9131C23.5367 44.6346 23.565 44.3459 23.6736 44.0834C23.7822 43.821 23.9662 43.5967 24.2023 43.4388C24.4383 43.2809 24.716 43.1966 25 43.1965C25.1886 43.1963 25.3754 43.2333 25.5497 43.3053C25.724 43.3774 25.8824 43.4831 26.0158 43.6164C26.1492 43.7498 26.2551 43.9081 26.3272 44.0823C26.3994 44.2566 26.4365 44.4434 26.4365 44.632ZM22.1275 5.8515C22.1275 5.587 22.342 5.372 22.6065 5.372H27.3935C27.5206 5.37213 27.6425 5.42269 27.7324 5.51259C27.8223 5.60248 27.8728 5.72437 27.873 5.8515C27.8726 5.97846 27.8219 6.10009 27.732 6.18977C27.6422 6.27944 27.5204 6.32987 27.3935 6.33H22.6065C22.4796 6.32987 22.3579 6.27943 22.2681 6.18973C22.1783 6.10004 22.1277 5.97841 22.1275 5.8515Z" fill="#477BFF"/>
</svg>
