<svg width="50" height="50" viewBox="0 0 50 50" fill="none" xmlns="http://www.w3.org/2000/svg">
<g clip-path="url(#clip0_690_297)">
<path fill-rule="evenodd" clip-rule="evenodd" d="M26.8305 50C25.3073 50 23.8428 49.795 22.4661 49.3849C19.0097 48.3597 16.52 46.1921 14.4989 44.464C12.1263 42.4136 11.1597 41.7106 10.1931 42.3843C10.1638 42.4136 10.1345 42.4136 10.1052 42.4429C9.95875 42.5307 8.34774 43.5852 8.64065 46.1629C8.66994 46.4851 8.58207 46.8073 8.37703 47.0416C8.20128 47.2759 7.90837 47.4517 7.58617 47.481C7.35184 47.481 1.64006 48.0082 0.292669 43.9367C0.234086 43.7317 0.204795 43.4974 0.263378 43.2923C1.46431 38.1664 3.66115 35.0615 6.91247 33.802C9.75371 32.6889 12.8293 33.1869 15.817 33.6262C18.8926 34.0949 21.7631 34.5636 23.5791 33.0111C25.3073 31.5466 26.1568 28.3245 26.2153 23.1107C26.2446 20.0937 24.9558 17.7211 23.5791 15.1728C21.6459 11.5114 19.3905 7.38136 21.0894 0.849438C21.2358 0.351488 21.7045 -0.0292969 22.2317 -0.0292969H28.0021C28.3243 -0.0292969 28.6465 0.117159 28.8808 0.380779C29.1152 0.6444 29.203 0.966602 29.1737 1.28881C28.9687 2.81194 28.793 6.70767 29.7889 9.22671C31.1948 7.85002 32.6594 6.942 34.1825 6.47334C36.0279 5.91681 37.9025 6.03397 39.7479 6.85412C42.7941 8.20152 45.6354 11.4821 47.5393 15.9051C49.3846 20.1523 50.1169 24.9268 49.5897 28.9982C49.5018 32.0445 48.5059 35.208 46.6606 38.1371C44.9617 40.8904 42.6184 43.4095 39.8357 45.4013C35.6764 48.4183 31.0777 50 26.8305 50ZM26.3032 42.9994C29.906 42.9994 33.4795 41.4763 36.2915 39.2501C36.5258 39.0451 36.5844 38.6643 36.3794 38.43C36.1743 38.1664 35.8228 38.1078 35.5592 38.3128C33.7725 39.7188 31.7221 40.8026 29.5252 41.3884C27.592 41.9156 25.5124 42.0035 23.5791 41.447C23.2569 41.3591 22.9347 41.5348 22.8469 41.8278C22.759 42.15 22.9347 42.4722 23.2276 42.56C24.2235 42.853 25.278 42.9994 26.3032 42.9994Z" fill="#477BFF"/>
</g>
<defs>
<clipPath id="clip0_690_297">
<rect width="50" height="50" fill="white"/>
</clipPath>
</defs>
</svg>
