<svg width="50" height="50" viewBox="0 0 50 50" fill="none" xmlns="http://www.w3.org/2000/svg">
<path fill-rule="evenodd" clip-rule="evenodd" d="M25.0004 13.1531C27.5028 13.1531 30.0062 12.3597 32.1019 10.773C32.2591 10.6544 32.3626 10.4782 32.3899 10.2832C32.4171 10.0882 32.3657 9.89044 32.2471 9.73331C32.1285 9.57618 31.9523 9.47261 31.7574 9.44538C31.5624 9.41815 31.3646 9.46949 31.2074 9.58811C27.5419 12.3593 22.4587 12.3593 18.7932 9.58811C18.636 9.47106 18.4389 9.42096 18.2448 9.44872C18.0508 9.47649 17.8756 9.57988 17.7575 9.73633C17.6394 9.89277 17.588 10.0896 17.6145 10.2838C17.641 10.478 17.7432 10.6539 17.8988 10.773C19.9944 12.3597 22.4979 13.1531 25.0004 13.1531ZM25.0005 8.86381C26.7374 8.86381 28.4754 8.35741 29.9745 7.34461C30.0554 7.29007 30.1247 7.22014 30.1785 7.13882C30.2323 7.05749 30.2696 6.96636 30.2882 6.87063C30.3068 6.77489 30.3064 6.67643 30.2869 6.58087C30.2675 6.4853 30.2294 6.39451 30.1749 6.31366C30.1203 6.23281 30.0504 6.16349 29.9691 6.10967C29.8878 6.05585 29.7966 6.01857 29.7009 5.99997C29.6052 5.98136 29.5067 5.9818 29.4111 6.00124C29.3156 6.02069 29.2248 6.05877 29.1439 6.11331C27.897 6.95581 26.4492 7.37701 25.0005 7.37701V7.37991C23.5545 7.37991 22.1067 6.95761 20.8569 6.11331C20.6936 6.00607 20.4946 5.96751 20.303 6.00598C20.1115 6.04446 19.9428 6.15687 19.8335 6.31886C19.7243 6.48085 19.6833 6.67936 19.7194 6.87138C19.7555 7.0634 19.8658 7.23346 20.0264 7.34471C21.5227 8.35561 23.2608 8.86101 25.0006 8.86111L25.0005 8.86381ZM48.7449 36.4342L34.4492 13.4281C34.4425 13.4169 34.4333 13.4074 34.4224 13.4002C34.4115 13.393 34.3992 13.3883 34.3862 13.3865C34.3733 13.3843 34.3601 13.3851 34.3475 13.3887C34.3349 13.3923 34.3233 13.3987 34.3135 13.4074C28.9598 18.0072 21.0409 18.0072 15.6872 13.4074C15.6774 13.3987 15.6658 13.3923 15.6532 13.3887C15.6407 13.3851 15.6274 13.3843 15.6145 13.3864C15.6016 13.3882 15.5892 13.3929 15.5783 13.4001C15.5674 13.4073 15.5583 13.4169 15.5515 13.4281L1.25593 36.4342C1.24366 36.4539 1.23939 36.4775 1.244 36.5002C1.24861 36.523 1.26176 36.5431 1.28073 36.5564C15.5057 46.4997 34.495 46.4997 48.72 36.5564C48.7391 36.5431 48.7523 36.523 48.7569 36.5003C48.7616 36.4775 48.7573 36.4539 48.7449 36.4342ZM31.2287 31.2541C31.5498 31.6783 31.9418 32.0438 32.3874 32.3343C32.4055 32.346 32.4189 32.3638 32.425 32.3844C32.4311 32.4051 32.4296 32.4273 32.4207 32.4469C32.3938 32.5075 32.3661 32.5677 32.3376 32.6275C29.9212 37.7135 24.0518 41.2258 18.5695 38.621C15.4389 37.1335 15.6395 35.0835 15.8926 32.103C15.8958 32.0658 15.8773 32.0323 15.8442 32.0151C15.8111 31.9979 15.773 32.0021 15.7444 32.026L11.9206 35.2284C11.9179 35.2307 11.915 35.2328 11.912 35.2348C11.8942 35.2465 11.8755 35.2567 11.8561 35.2655C9.63133 36.4716 9.49073 33.3539 10.8016 32.3011C10.8043 32.2989 10.8069 32.2966 10.8093 32.2942L16.0793 26.9604C16.0824 26.9573 16.0858 26.9544 16.0893 26.9517C16.5386 26.6139 17.0646 26.4468 17.5909 26.4499C18.6274 26.456 19.5128 27.128 19.9604 28.034C20.0896 28.2957 20.2566 28.7789 20.2882 29.1114L20.5171 31.2505C20.5191 31.2701 20.5274 31.2885 20.5408 31.3028C20.5542 31.3172 20.5719 31.3267 20.5913 31.33C20.6106 31.3336 20.6306 31.3307 20.6481 31.3219C20.6656 31.313 20.6797 31.2986 20.6882 31.2809C21.2408 30.1586 22.042 28.8307 23.9549 28.4201C23.9938 28.4118 24.0218 28.3807 24.026 28.3412C24.0302 28.3017 24.0094 28.2656 23.9731 28.2492C23.0627 27.84 22.0733 27.394 21.6206 26.5256C21.2898 25.8911 21.0432 25.3038 21.1725 24.717C21.3036 24.1218 21.801 23.6087 22.9494 23.1912L27.4019 21.5722C28.714 21.0952 29.8022 21.6617 30.2148 22.6882C30.6058 23.661 29.3116 24.481 28.3489 24.8666L28.343 24.8687L25.7025 25.7197C25.6662 25.7314 25.6421 25.7626 25.6399 25.8007C25.6377 25.8388 25.6582 25.8726 25.693 25.8883C26.3109 26.1673 27.5904 26.6471 28.0313 26.847C28.6955 27.148 29.5891 28.0365 30.2674 28.5992C30.2879 28.6162 30.299 28.6387 30.3 28.6653C30.3377 29.6232 30.674 30.5216 31.2287 31.2541ZM36.7794 30.9611C35.4056 32.0015 33.4527 31.7319 32.4136 30.3597C31.3732 28.9858 31.6428 27.0331 33.015 25.9939C34.3879 24.9542 36.3413 25.2226 37.3808 26.5953C38.4205 27.9682 38.1521 29.9215 36.7794 30.9611Z" fill="#477BFF"/>
</svg>
