<svg width="50" height="50" viewBox="0 0 50 50" fill="none" xmlns="http://www.w3.org/2000/svg">
<path d="M37.9751 10.4647C35.7992 9.08797 33.865 8.76403 32.2532 9.41191C30.8026 9.97881 29.7549 11.3556 29.1908 13.5422C28.949 14.514 28.7073 15.5668 28.5461 16.7816L26.1284 14.9189V4.71478C26.209 4.0669 25.6448 3.5 25.0001 3.5C24.3554 3.5 23.7912 4.0669 23.7912 4.71478V14.9189L21.3735 16.7816C21.2124 15.5668 21.0512 14.433 20.7288 13.5422C20.1647 11.4365 19.117 10.0598 17.6664 9.41191C16.0546 8.76403 14.201 9.08797 11.9445 10.4647C3.40189 15.7288 -1.35293 30.1441 0.339462 39.0525C0.903594 42.1299 1.7095 46.1792 6.22256 46.1792C6.62551 46.1792 7.10905 46.1791 7.67318 46.0982C12.3474 45.3693 19.8423 41.401 20.9706 35.3271C21.6959 31.3589 22.0183 24.9611 21.6153 19.697L25.0001 17.1055L28.3849 19.697C27.9819 25.042 28.3043 31.4399 29.0296 35.3271C30.1579 41.401 37.6528 45.3693 42.327 46.0982C42.8106 46.1791 43.2941 46.1792 43.7776 46.1792C48.2907 46.1792 49.0966 42.1299 49.6607 39.0525C51.3531 30.1441 46.5983 15.7288 37.9751 10.4647Z" fill="#477BFF"/>
</svg>
