<?xml version="1.0" encoding="utf-8"?>
<!-- Generator: Adobe Illustrator 23.0.2, SVG Export Plug-In . SVG Version: 6.00 Build 0)  -->
<svg version="1.1" id="Layer_1" xmlns="http://www.w3.org/2000/svg" xmlns:xlink="http://www.w3.org/1999/xlink" x="0px" y="0px"
	 viewBox="0 0 188.2 186.4" style="enable-background:new 0 0 188.2 186.4;" xml:space="preserve">
<style type="text/css">
	.st0{fill:#006DF0;}
	.st1{fill:#E55B56;}
	.st2{fill:#FFFFFF;}
</style>
<g id="Layer_3">
	<g>
		<g>
			<path class="st0" d="M87.2,23.8c-10.3-1.3-20.6-1.3-30.9,0.2c-7.7,1.1-17.2,3-17.6,12.5c-0.1,2.6,1.9,5.1,4.4,5.7
				c16.3,4.6,33.1,3.5,49.8,4.2c4,0.2,7.9,0.4,11.9,0.9c3.8,0.5,7.8,2.1,11.7,2.2c7,0.1,11.5-9.7,14.5-14.7c2.2-3.6-0.2-7.3-3.6-8.7
				c-6.8-2.9-15.6-1.4-22.8-1.3C96.3,24.9,88,25,79.7,25.1c-6.4,0.1-8.4,10.6-1.6,11.7c14.8,2.4,29.6,4.8,44.5,7.2
				c0.5-3.9,1.1-7.8,1.6-11.7c-3-0.1-5.9-0.3-8.8-0.8c-1.2-0.2-2.5-0.5-3.7-0.8c-0.6-0.1-1.2-0.3-1.8-0.5c-1.5-0.5-1.2-0.3,0.7,0.6
				c0.5,1.9,1,3.9,1.5,5.8c0.9-3.8,3.9-8.1,5.6-11.6c1.6-3.3,0.4-7.9-3.6-8.7c-3.4-0.8-6.5-0.8-9.8,0.5c1.5,3.6,3.1,7.3,4.6,10.9
				c14.9-11.4,34.1,0.2,34.6,18c3.7-1,7.4-2,11.1-3c-3.4-8.1-10.1-14.1-17.7-18.4c-4.3-2.4-8.9-4.3-13.5-6.1
				c-3.7-1.5-8-2.9-11.7-0.6c-3.4,2-4.9,6.2-3.5,10c1.5,4,5.5,6.6,9.1,8.5c7.5,4,18.2,5.5,22.7,13.4c1.7-3,3.4-6,5.1-9
				c-7,0.5-39.3-13.8-39.1,2.2c0.1,7.6,9.8,9.5,15.5,10.8c7.3,1.7,14.9,2.4,22.3,3.4c3.6,0.5,7.9,0.7,11.2,2.1
				c3,1.2,5.4,3.7,8.2,5.4c3,1.8,6.1,2.6,8.1,5.7c1.8,2.8,2.9,6.4,3.4,9.7c2.3,16-12.2,19.9-24.9,22.1c2.4,1.4,4.9,2.8,7.3,4.2
				c-2.1-7.7-1-16.4-1-24.3c0-2.9-0.9-7.8,1-10.3c0.8-1,2.1-1.7,3.4-1.8c0.9,0,1.7,0.2,2.5,0.7c1.1,1.2,1.3,1.2,0.8-0.2
				c0.9-1.2,1.8-2.4,2.7-3.6c-1.7,0.9-4.9,0.1-6.7,0.3c-2.4,0.3-4.7,1.1-6.5,2.9c-3.2,3-4.1,7.9-3.6,12.2c0.6,5.1,4.2,7.7,9.3,7.4
				c2.7-0.1,5.2-1,7.6-2.1c1-0.5,2-1,3-1.5c0.7-0.4,1.5-0.8,2.2-1.2c1.3-0.5,1-0.8-1.1-1.1c-0.9-1.2-1.8-2.4-2.7-3.6
				c0.1,0.3-10.6,4.9-11.5,5.6c-3.5,2.7-5.4,6.3-5.4,10.7c0,3.4,2.8,5.7,6,6c5.6,0.5,10.9-0.9,15.6-3.9c6.4-4.1,0.5-14.4-6-10.3
				c-3.1,2-5.9,2.6-9.6,2.3c2,2,4,4,6,6c0-2.5,9.7-5.2,11.7-6.7c3.4-2.7,6.1-7.1,5.1-11.6c-0.8-4.1-4.6-6.5-8.6-5.8
				c-4.1,0.7-9.5,6.6-13.5,5.2c1.2,0.9,2.4,1.8,3.6,2.7c0.7,1.4,0,1.9,0.3,0.2c0.3-1.5-0.6-1.1,0.3-1.6c1.3-0.6,4.2,0.1,5.7-0.1
				c4.4-0.5,8.2-3.2,8.4-7.9c0.4-9.1-11.6-14.2-19.1-12.4c-9.5,2.4-12.5,11-12.6,19.8c0,10.2-1.2,21.3,1.4,31.2
				c0.9,3.3,4.2,4.7,7.3,4.2c10.4-1.8,21.5-4.4,28.3-13.2c7.4-9.6,6.5-22.7,1.7-33.3c-2.6-5.6-6.4-9-11.8-11.7
				c-5.4-2.7-9.4-6.9-15.4-8.3c-6.4-1.5-13-2-19.4-2.9c-3.3-0.5-6.7-1-9.9-1.6c-1.8-0.4-3.5-0.8-5.3-1.2c-0.9-0.2-4.3-2.1-3.5,0
				c-0.2,1.5-0.4,3.1-0.6,4.6c0.1-0.3,0.3-0.6,0.4-0.9c-1.2,0.9-2.4,1.8-3.6,2.7c10.4-2.8,20.7,5.7,31.1,4.9c4.4-0.3,7.5-4.8,5.1-9
				c-3-5.3-7.7-9-13.1-11.6c-2.6-1.3-5.3-2.3-7.9-3.3c-2.8-1.1-5.9-3.5-8.8-4.3c-1.9-1.6-3.1-0.1-3.8,4.2c0.3,0.1,0.7,0.2,1,0.3
				c1.1,1,3.5,1.4,4.9,1.9c3.3,1.4,6.6,2.9,9.7,4.8c5.3,3.2,9.4,7.4,11.9,13.2c2.4,5.6,11.2,2.5,11.1-3
				c-0.3-12.3-6.6-24.5-17.6-30.6c-10.9-6-25-5.3-34.9,2.3c-2.4,1.8-3.7,4.5-2.4,7.4c1.1,2.5,4.3,4.5,7,3.4c1.1-0.7,2.2-0.8,3.4-0.5
				c-1.2-2.9-2.4-5.8-3.6-8.7c-2,4-4.3,8.1-6,12.2c-1.2,2.9-1.5,5.8,0.9,8.3c2.2,2.2,6,2.8,9,3.4c4.3,0.8,8.6,1.3,12.9,1.4
				c6.6,0.2,8.3-10.6,1.6-11.7c-14.8-2.4-29.6-4.8-44.5-7.2c-0.5,3.9-1.1,7.8-1.6,11.7c7.7-0.1,15.3-0.2,23-0.3
				c6.5-0.1,15.5-1.8,21.6,0.8c-1.2-2.9-2.4-5.8-3.6-8.7c-0.6,1-6.4,8.7-6.1,9.1c0.8-0.1,1.7-0.2,2.5-0.3c-1.2-0.3-2.4-0.6-3.6-0.8
				c-1.5-0.3-3-0.6-4.5-0.8c-6.9-1.1-13.8-1.5-20.7-1.6c-14.1-0.3-28.3,0.2-42-3.6c1.5,1.9,2.9,3.8,4.4,5.7
				c-0.1,1.2,4.9-0.4,6.1-0.6c3.5-0.6,7.1-0.9,10.7-1.1c6.6-0.3,13.3,0,19.9,0.9c3.2,0.4,5.9-3,6-6C93.2,26.2,90.4,24.2,87.2,23.8
				L87.2,23.8z"/>
		</g>
	</g>
	<g>
		<g>
			<path class="st0" d="M105.4,29.2c-0.2-8.2-7.7-12.7-13.9-16.8c-7.1-4.7-14.7-8.1-23.3-8.2c0,4,0,7.9,0,11.9
				c8.5-1.1,15.8,7.1,23.7,9.5c3,0.9,6.5-1.1,7.3-4.2c2-7.7-5.7-12.5-12.1-14.5c-7.7-2.3-16.6-1.3-24.6-1.2
				c-7.8,0-14.8,0.1-20.4,6.2c-4.9,5.3-9.6,12.3-10.6,19.5c-0.6,4.8,3.9,9.7,8.7,6.7C47,34,53.9,30.1,61.1,26.7
				c3.4-1.6,6.7-2.9,10.5-2.5c2.3,0.2,9.5,1.5,11,3.3c-0.6-1.4-1.2-2.8-1.7-4.2c0,0.3-0.1,0.6-0.1,0.9c0.6-1.4,1.2-2.8,1.7-4.2
				c-1.7,1.7-7.2,2.4-9.5,3.1c-3.5,1-7.1,2-10.7,2.8c-6.3,1.4-12.9,1.8-19.2,3.3c-5.5,1.3-10.8,4.7-12.5,10.4
				C28.6,46,33.4,50.3,39.4,51c6.9,0.9,13.6-0.5,20.4-1.6c7.5-1.2,14.9-0.8,22.4-1.2c6.8-0.3,13.4-1.3,20.2-0.4
				c3.8,0.5,7.5,1.2,11.3,1.8c1.6,0.3,3.3,0.5,4.9,0.8c1.3,0.2,6.4,2.1,3.7-0.1c-0.6-1.4-1.2-2.8-1.7-4.2c2.2-2.7,2.5-3.5,0.8-2.6
				c-0.5,0.3-1.1,0.5-1.6,0.7c-1.3,0.5-2.7,0.9-4.1,1.3c-2.8,0.7-5.7,1.1-8.6,1.4c-5.7,0.5-11.4,0.5-17.1,0.6
				c-12.5,0.3-25,0.6-37.5,0.9c-7.7,0.2-7.7,11.6,0,11.9c16.8,0.7,33.6,1.4,50.4,1.9c8.2,0.2,16.3,0,24.4-0.5
				c4.2-0.2,8.3-0.5,12.5-0.5c1.3,0,4.6-0.6,5.8,0.1c-2.2-1.3,0.1,1.3,0.1,1.9c0.6-1.4,1.2-2.8,1.7-4.2c-0.3,0.2-0.5,0.5-0.8,0.7
				c1.4-0.6,2.8-1.2,4.2-1.7c-2.3,0.2-5.2-1.3-7.4-1.9c-2.5-0.8-5-1.5-7.5-2.3c-5.3-1.6-10.6-3.2-15.9-4.8
				c-10.7-3.3-21.4-6.8-32.3-9.1c-10.2-2.2-20.8-3.7-31.2-2.4c-4.4,0.5-8.1,2.1-11.6,4.8c-3,2.3-5.4,5.3-9.3,5.9
				c2.2,0.9,4.5,1.8,6.7,2.7c0.1,0.3,0.1,0.7,0.2,1c-2.5,1.9-5,3.8-7.5,5.7c3.2,0.9,9.1,1.4,11.8,3.3c-0.9-2.2-1.8-4.5-2.7-6.7
				c-0.1,0.2-0.1,0.3-0.2,0.5c0.9-1.2,1.8-2.4,2.7-3.6c-1.7,1.2-3.8,2-5.7,3c-0.9,0.5-4.6,2.9-5.2,2.9c1.4,0.6,2.8,1.2,4.2,1.7
				C39.9,58.7,39,55,39,54.9c-1.5-4.4-8.5-6.3-10.9-1.4c-6.9,14.3,21,11.9,28,11.9c7.7,0,7.7-11.9,0-11.9c-3.6,0-7.1,0-10.7-0.2
				c-1.6-0.1-3.2-0.2-4.9-0.3c-0.6-0.1-1.3-0.1-1.9-0.2c-2.4-0.7-2.6-0.2-0.6,1.3c0,2,0,4,0,6c0.1-0.2,0.2-0.4,0.3-0.7
				c-3.6-0.5-7.3-0.9-10.9-1.4c1.8,5.4,3.8,12.9,11.3,10.5c3.5-1.1,6.8-3.3,10.1-5c3.1-1.6,5.7-2.6,6.8-6.1c0.9-2.7-0.6-5.2-2.7-6.7
				c-3.8-2.7-10.2-3.2-14.7-4.5c-3.8-1-7.5,1.9-7.5,5.7c0,1.9,0.3,3.4,1.4,5c1.7,2.4,3.9,3.2,6.7,2.7c6.5-1,9.6-6.1,15-9.1
				c6.3-3.6,17.5-1.6,24.3-0.4c17,2.8,33.5,8.8,50,13.8c3.7,1.1,7.5,2.3,11.2,3.4c3.6,1.1,7.7,3,11.5,2.6c8.6-0.8,7.1-9.8,4.1-15.2
				c-3.7-6.7-12.5-5.5-19-5.2c-8.6,0.3-17.1,1.1-25.7,1c-19.3-0.1-38.6-1.3-57.8-2.1c0,4,0,7.9,0,11.9c16.4-0.4,32.9-0.6,49.4-1.2
				c7.3-0.3,14.8-1,21.7-3.7c5.3-2,12.7-7.4,7.1-13.6c-2.1-2.2-5.1-2.4-7.9-2.8c-4.6-0.7-9.1-1.5-13.7-2.2
				c-7.6-1.2-14.7-1.6-22.4-0.9c-8.3,0.8-16.6,0.1-24.9,1.2c-7.2,1-16.1,4-23.2,1.5c1.2,0.9,2.4,1.8,3.6,2.7
				c1.1,1.4-1.2,0.6,0.9,0.3c0.8-0.1,2.4-1,3.2-1.2c2.4-0.6,4.9-0.8,7.4-1.1c5.5-0.8,10.9-1.9,16.3-3.3c6.2-1.6,26.8-4.6,22.3-15.2
				c-1.7-4.1-7.2-5.4-11.1-6.7c-5.3-1.8-11-2.7-16.5-1.6C54,14.9,43.4,22.3,34.3,27.9c2.9,2.2,5.8,4.5,8.7,6.7
				c0.6-4.6,3-8.2,5.6-11.8c3.5-4.8,6.2-5.1,12-5.1c4.9,0,9.8-0.1,14.7,0c3.8,0,11.4-0.2,13.2,4.1c-0.2-1.5-0.4-3.1-0.6-4.6
				c-0.1,0.4-0.2,0.8-0.3,1.2c2.4-1.4,4.9-2.8,7.3-4.2c-9.5-2.9-16.2-11.3-26.9-9.9c-7.4,0.9-7.9,11.8,0,11.9
				c5.4,0.1,10,2.1,14.5,4.8c2,1.2,10.7,5.7,10.8,8.3C93.7,36.9,105.6,36.9,105.4,29.2L105.4,29.2z"/>
		</g>
	</g>
	<g>
		<g>
			<path class="st0" d="M21.2,56.5c-2.4,4.7-4.5,11.4,1.3,14.6c5.3,2.9,12.7,2.3,18.4,0.9C39,68.6,37,65.3,35.1,62
				c-5.5,5.2-4.4,14.4-4.6,21.5c-0.3,8.3-0.2,16.5,0.6,24.8c2-2,4-4,6-6c-4.3,0.3-8.6,0.5-12.2-2.3c-3.3-2.6-5.8-6.8-7.4-10.7
				c-1.8-4.3-2.6-9.4-1-13.9c0.7-2.1,3.7-7.4,6.6-7.2c-1.7-1-3.4-2-5.1-2.9c-0.4-1.3-0.9-1-1.4,0.7c-0.7,0.9-1.4,1.9-2.1,2.8
				c-1.1,1.7-2,3.6-2.7,5.5c-1.4,4.1-1.3,8.1-0.7,12.3c0.7,4.7,7,5.4,9.9,2.6c1.9-1.7,3.1-3.7,4.3-5.9c0.5-1,1.8-4.4,3.3-4.3
				c-1.7-1-3.4-2-5.1-2.9c1.5,2.9,1,8.5,0.6,11.7c-0.2,1.7-0.6,3.5-0.8,5.2c-0.1,0.6-0.7,6.5,0.2,4.4c1.7-1,3.4-2,5.1-2.9
				c2.2,0.8,2.6,0.5,1.2-1c-0.4-0.7-0.8-1.4-1.1-2.1c-0.5-1-1.8-3.2-1.4-4.4c-0.9,1.2-1.8,2.4-2.7,3.6c0.3-0.3,0.7-0.5,1-0.8
				c-1.5,0.2-3.1,0.4-4.6,0.6c0.4,0.1,0.7,0.2,1.1,0.3c-1.2-0.9-2.4-1.8-3.6-2.7c0.5,1,0.6,3.2,0.7,4.2c0.8,7.5,12.7,7.6,11.9,0
				c-0.5-4.3-0.6-10.6-5.2-12.7c-4.6-2.1-9.6,0.8-10.7,5.6c-1.5,6.4,5.5,21.9,13.3,21.3c1.9-0.1,4.3-1,5.1-2.9
				c1-2.3,1.1-4.4,1.2-6.9c0.1-3.3,0.8-6.5,1.1-9.8c0.5-5.1-0.1-11.9-2.4-16.5c-1-1.9-3.1-2.8-5.1-2.9c-3.4-0.2-7.1,1.9-9.4,4.2
				c-2.8,2.8-3.7,6.9-6.6,9.5c3.3,0.9,6.6,1.8,9.9,2.6c-0.9-6,3.6-9.2,5.8-14.2c1.6-3.7,1.9-9-1.6-11.7c-3.6-2.8-8.8-0.5-12.1,1.7
				c-4.1,2.7-7.2,6.7-9,11.3c-4,10.3-0.9,21.9,5,30.8C16.9,111,25.6,115,37,114.2c3-0.2,6.3-2.6,6-6c-0.6-6.3-0.8-12.7-0.7-19
				c0-2.9,0.1-5.7,0.3-8.6c0.1-2-0.4-8.8,1-10.2c4.4-4.2-0.2-11.4-5.8-9.9c-2.9,0.7-7.3,1.5-10-0.2c1,1.7,2,3.4,2.9,5.1
				c-0.1-1.1,0.2-2,0.8-2.9C34.9,55.7,24.7,49.7,21.2,56.5L21.2,56.5z"/>
		</g>
	</g>
	<g>
		<g>
			<path class="st0" d="M41.1,39.3c-1.6,7.1-5.2,14.2-7.8,21c-2.8,7.1,8.7,10.2,11.5,3.2c2.7-6.8,6.3-13.9,7.8-21
				C54.2,35,42.8,31.8,41.1,39.3L41.1,39.3z"/>
		</g>
	</g>
	<g>
		<g>
			<path class="st0" d="M37.3,38.1c-0.5,5-2.4,11.4,1.1,15.6c2.9,3.5,8.1,4.1,12,1.9c8-4.5,7.7-21.1,3.3-27.9
				c-1.6-2.5-4-3.2-6.7-2.7c-3.6,0.5-4.3,3.7-6.3,6.1c-2.5,3-5.2,3.9-5.9,8.1c-0.6,3.8,1.2,7,1.7,10.7c0.6,4.6-1.7,6.5-4.4,9.9
				c-4.7,6,3.7,14.4,8.4,8.4c4.7-6,8.6-10.2,7.9-18.2c-0.2-1.7-0.4-3.5-0.8-5.1c-0.2-0.7-1.1-2.6-0.8-3.4c0.3-0.9,2.5-2.3,3.3-3.2
				c1.2-1.4,1.9-3,3-4.5c-1.2,0.9-2.4,1.8-3.6,2.7c0.2,0,0.4-0.1,0.6-0.1c-2.2-0.9-4.5-1.8-6.7-2.7c2.2,3.4-0.2,7.6,0.8,11
				c-0.8,1.3-0.1,1.8,1.9,1.4c1.9,1.1,2.7,0.6,2.4-1.3c0.8-1.7,0.5-4.9,0.7-6.7C50.1,30.5,38.2,30.5,37.3,38.1L37.3,38.1z"/>
		</g>
	</g>
	<g>
		<g>
			<path class="st0" d="M142.9,64.2c0.6,0.8,1.1,1.7,1.7,2.5c2.7-2.7,5.4-5.4,8.1-8.1c0.3,0.2-1-1.3-0.9-1.2
				c-0.8-0.9-1.6-1.6-2.5-2.3c-1.9-1.4-4-2.6-6-3.8c-1.5,3.6-3.1,7.3-4.6,10.9c2.2,0.6,2.7,2.2,4,3.9c0-0.1,1.3,1.6,0.9,0.9
				c-0.3-0.6,0.3,0.9,0.4,1.1c0.4,1.4,0.8,2.8,1.1,4.2c0.6,2.9,3.8,4.7,6.5,4.3c3.1-0.5,4.9-2.8,5.2-5.8c0.5-4.8-1.8-9.1-5.4-12.1
				c-1.4-1.1-2.9-2.1-4.1-3.3c-1.7-1.6-3.1-3.1-5.1-4.3c-6.5-4-12.5,6.2-6,10.3c1.9,1.2,3.4,3.1,5.2,4.5c1.9,1.5,3.7,2.4,3.5,5
				c3.9-0.5,7.8-1.1,11.7-1.6c-1.8-7.9-6.3-16.1-14.7-18.5c-6.6-1.9-10.3,7.4-4.6,10.9c1.7,1,3.8,2,5.3,3.3c1.5,1.4,2.3,2.8,4.1,4
				c4.9,3.2,11.4-3.2,8.1-8.1c-0.5-0.8-1.1-1.7-1.7-2.5C149,51.8,138.7,57.8,142.9,64.2L142.9,64.2z"/>
		</g>
	</g>
	<g>
		<g>
			<path class="st0" d="M155.2,75.3c-0.2,4.8,1,10.4-0.4,15c-0.9,3.1-4.5,5.1-4,8.8c0.5,3.4,2.4,5.7,6,6c4.8,0.4,10.5-5.7,13-9.3
				c3.8-5.5,4-12.1,3.1-18.5c-0.9-6.6-4.2-8.6-10.7-8.5c-5.8,0.1-11.8,2.1-13.6,8.3c-0.8,2.8-0.7,5.8-0.7,8.7
				c-0.1,3.5-0.4,7.2-0.2,10.7c0.5,6.8,7.5,7.8,13,7c6-0.8,12.1-4.1,14-10.2c1.9-6.1,2.1-13.3,1-19.4c-1.4-7.5-12.9-4.3-11.5,3.2
				c0.6,3.4,0.5,7.8-0.5,11.1c-0.5,1.7-0.6,2.2-2.4,3c-1,0.5-3.5,1.3-4.6,0.7c0.9,1.2,1.8,2.4,2.7,3.6c-0.5-3.4,0.3-7.9,0.3-11.4
				c0-0.5-0.1-2.9,0.2-3.1c0.7-0.6,4-0.4,4.8-0.1c-1.4-1.4-2.8-2.8-4.2-4.2c1.1,2.7,1.3,7.8,0.2,10.6c-0.5,1.4-1.4,2.4-2.4,3.5
				c-0.7,0.6-1.3,1.3-2.1,1.8c-1.6,0.9-1.5,1.1,0.2,0.7c2,2,4,4,6,6c0.2,1.4-0.8,2,0.6,0.5c0.6-0.6,1.2-1.5,1.6-2.3
				c1.1-2,1.5-4.2,1.9-6.4c0.7-5.2,0.1-10.4,0.4-15.6C167.4,67.6,155.5,67.7,155.2,75.3L155.2,75.3z"/>
		</g>
	</g>
	<g>
		<g>
			<path class="st1" d="M57.7,78.6c1.2-1.4,2.5-2.8,3.7-4.2c2.6-3,2.1-9.2-2.6-9.9c-4.4-0.7-9.3,0.3-10.8,5.2
				c-1,3.6-0.4,7.9-0.4,11.6c0,7.7,11.9,7.7,11.9,0c0-1.7,0-3.5,0-5.2c0-0.9,0-1.7,0-2.6c0-0.3,0-0.6,0-0.9c0-0.7,0-0.7,0.1,0
				c-0.5,0.9-1,1.8-1.5,2.6c-0.5,0.6-1.7,0.9-2.4,0.7c-0.9-3.3-1.8-6.6-2.6-9.9c-1.2,1.4-2.5,2.8-3.7,4.2c-2.1,2.4-2.4,6,0,8.4
				C51.5,80.7,55.6,81,57.7,78.6L57.7,78.6z"/>
		</g>
	</g>
	<g>
		<g>
			<path class="st1" d="M61.8,77.9c5.5,0.2,12.3,1.7,17.3-1c5.2-2.9,2.8-11.1-3-11.1c-3.7,0-7.3,0-11,0.1c-7.9,0-7.4,11,0,11.9
				c6.9,0.8,14,0.4,20.9,0.4c6.5,0,8.3-10.3,1.6-11.7c-8-1.6-16.5-0.2-24.4,1.9c-3,0.8-5.3,1.8-7.4,4.2c-1.1,1.2-2,2.6-2.9,3.9
				c-0.7,0.9-1.3,1.8-2,2.7c-1,1.2-0.9,1.2,0.4,0.1c-4.4,0-7.6,5.1-5.1,9c0.5,0.9,0.5,2.9,0.7,3.9c0.6,3.7,5.8,5.5,8.7,3.6
				c2.1-1.4,3.9-3.2,6.1-4.5c2.4-1.5,5.5-2.1,8.1-3.1c3.8-1.5,10.3-3.4,14.5-2.3c-1.4-1.4-2.8-2.8-4.2-4.2c3.1-2,3.6-2.9,1.6-2.5
				c-0.9,0.1-1.8,0.2-2.7,0.3c-1.4,0.2-2.8,0.4-4.3,0.6c-3.3,0.5-6.5,1.1-9.8,1.9c-7.5,1.7-4.3,13.2,3.2,11.5
				c3.9-0.9,7.8-1.7,11.8-2.1c3.2-0.3,6.1-0.2,8.7-2.4c4-3.4,5.1-11.8-0.5-14.2c-5-2.2-14.3-0.6-19.4,1.1c-3.1,1.1-6.3,2.2-9.3,3.4
				c-3.8,1.5-6.5,4.1-9.8,6.3c2.9,1.2,5.8,2.4,8.7,3.6c-0.4-2.6-0.4-4.5-1.9-6.8c-1.7,3-3.4,6-5.1,9c7.7,0,8.4-6.1,13.3-10.5
				c1.3-1.2,5.8-1.7,8.3-2.2c3.9-0.7,7.7-1.4,11.7-0.6c0.5-3.9,1.1-7.8,1.6-11.7c-6.9,0-14,0.4-20.9-0.4c0,4,0,7.9,0,11.9
				c3.7,0,7.3,0,11-0.1c-1-3.7-2-7.4-3-11.1c-0.5,0.3-3.8-0.3-4.7-0.3c-2.2-0.1-4.4-0.2-6.6-0.3C54.1,65.7,54.2,77.6,61.8,77.9
				L61.8,77.9z"/>
		</g>
	</g>
	<g>
		<g>
			<path class="st1" d="M46.6,95.8c-0.3,4,0.1,7.8,1.3,11.7c1.5,5.1,8.1,5.7,10.9,1.4c1.8-2.7,3.6-5.4,5.4-8.1c0.7-1,1.2-1.7,2-2.2
				c1.2-0.6,4.2-0.7,5.5-0.9c5.4-0.8,10.5-1.6,14.1-6.1c1.5-1.9,2.5-4.1,3.8-6.1c1.5-2.4,3.7-4.1,5.3-6.3c1.4-1.8,2.4-3.6,2.2-5.9
				c-0.1-1.7-0.6-2.9-1.7-4.2c-0.6-0.7-2.6-3-0.9-0.6c0.2,1.5,0.4,3.1,0.6,4.6c0.1-0.2,0.2-0.5,0.3-0.7c2.6-7.2-8.9-10.3-11.5-3.2
				c-1.4,3.8,0.7,5.8,3.1,8.3c-0.6-1.4-1.2-2.8-1.7-4.2c0-1.6,0.7-1.4-0.7-0.2c-0.8,0.6-1.5,1.5-2.1,2.2c-1.5,1.7-2.7,3.6-3.8,5.5
				c-0.8,1.4-1.5,3.2-2.9,4.1c-1.8,1.1-5.2,1.1-7.2,1.4c-4.1,0.6-8.6,0.9-11.6,4.1c-3.3,3.6-5.8,8.4-8.5,12.4
				c3.6,0.5,7.3,0.9,10.9,1.4c-0.9-2.9-1.1-5.5-0.8-8.5C59.2,88.2,47.3,88.2,46.6,95.8L46.6,95.8z"/>
		</g>
	</g>
	<g>
		<g>
			<path class="st1" d="M90.7,76.2c9.7,1.2,19.5,1,29.3,0.9c2.6,0,5.2,0,7.8,0c0.7,0,1.3,0,2,0c2.5,0.5,2.6,0,0.4-1.5
				c-0.2,0,0.3,13.4,0.3,14.7c3.9-0.5,7.8-1.1,11.7-1.6c-0.6-4.4-2.3-9-5.6-12.1c-3.8-3.5-10.1-3.5-14.9-3.9
				c-11-1-22.3-0.2-32.8,3.6c-6.1,2.2-5.5,11.7,1.6,11.7c9.4,0,19-0.2,28.2,1.9c1.6,0.4,3.9,0.6,5.3,1.5c1.6,1,2,2.5,2.8,4.1
				c0.9,1.6,1.8,3.1,3.1,4.3c0.7,0.6,1.5,1.1,2.2,1.7c1.3,0.7,1.4,0.7,0.2-0.1c-0.2-1.5-0.4-3.1-0.6-4.6c-0.7,3.2-1.4,6.1-1.2,9.4
				c3.4-1.4,6.8-2.8,10.2-4.2c-4.3-4.5-7.6-9.7-12.9-13.1c-5.5-3.5-12.1-4.6-18.3-5.7C96.4,81,83.6,80.3,72.7,89
				c-4.6,3.7-0.2,9.6,4.2,10.2c10.9,1.5,22,0.1,32.9,2.1c4.9,0.9,10.6,1.8,15.1,4c1.1,0.5,1.2,0.4,0.2-0.2c0.1,0.5,0.2,1,0.4,1.5
				c0.1,1,0.6,2,1,3c0.7,1.8,4,5.6,3.6,7.6c1.9-1.5,3.8-2.9,5.7-4.4c-7.6,0.1-15.5-2.2-22.9-4c-7.2-1.7-14.3-3.8-20.9-7.2
				c-6.2-3.2-11.4-7.8-18.4-9c-6.1-1-13.3-1.4-18,3.2c-3.7,3.6-0.9,10.2,4.2,10.2c10.5,0,21.1,0,31.6-0.1c3.6,0,26-2.9,25.2,3.6
				c2-2,4-4,6-6c-6.3-0.6-12.7-1.2-19-1.7c1.9,1.5,3.8,2.9,5.7,4.4c-0.3-1.2-0.6-2.4-0.9-3.5c-0.9-3.3-4.2-4.7-7.3-4.2
				c-8.6,1.6-17,4.2-25.7,5.5c-2,0.3-4.2,0.7-6.2,0.5c-2-0.2-3.6-1.2-5.5-1.4c-3.6-0.4-7.6,2.1-11,3.4c2.4,1.4,4.9,2.8,7.3,4.2
				c-0.3-1-0.6-2-0.9-3.1c-1.5-5.4-10.3-5.9-11.5,0c-1.1,5.5-1.1,10.7-0.1,16.2c0.8,4.2,5.5,5,8.7,3.6c11.2-4.9,23-4,34.9-3.9
				c12.2,0.1,24.5,0.6,36.6,2.7c7.5,1.3,10.7-10.2,3.2-11.5c-13.8-2.4-27.7-3.1-41.7-3.2c-6.9,0-13.9-0.3-20.7,0.3
				c-6.6,0.6-12.3,2.6-18.3,5.3c2.9,1.2,5.8,2.4,8.7,3.6c-0.6-3.3-0.6-6.5,0.1-9.8c-3.8,0-7.7,0-11.5,0c0.3,1,0.6,2,0.9,3.1
				c0.8,2.9,4.3,5.4,7.3,4.2c2-0.8,4.1-1.5,6.1-2.4c1.8-0.6,2-0.8,0.7-0.4c1,0.5,2.1,0.8,3.2,0.9c3.9,0.7,8,0.1,11.9-0.4
				c8.9-1.3,17.6-4,26.5-5.6c-2.4-1.4-4.9-2.8-7.3-4.2c0.3,1.2,0.6,2.4,0.9,3.5c0.7,2.7,3.1,4.1,5.7,4.4c6.3,0.6,12.7,1.2,19,1.7
				c3.5,0.3,5.6-3,6-6c0.7-5.8-3.3-10.3-8.1-12.9c-6.1-3.3-11.2-3.1-17.9-2.8C88.4,94.3,74.1,94,59.9,94c1.4,3.4,2.8,6.8,4.2,10.2
				c1.2-1.1,5.9-0.2,7.2,0c3.4,0.5,5.9,2.3,8.7,4.1c5.4,3.4,11.1,6.1,17.1,8.3c6.1,2.2,12.4,3.7,18.7,5.1c6.6,1.4,13.3,3.1,20,3
				c2.5,0,5.2-1.8,5.7-4.4c1.5-7.2-2.9-12-5-18.4c-2.3-7-9.1-8.6-15.6-10.3c-7-1.9-14.3-3-21.6-3.5c-7.5-0.5-15.1,0.2-22.6-0.8
				c1.4,3.4,2.8,6.8,4.2,10.2c7.9-6.3,19.7-3.8,28.7-2.2c4.4,0.8,9.1,1.6,12.7,4.4c3.8,2.9,6.5,7.3,9.8,10.7
				c3.4,3.6,10.5,1,10.2-4.2c-0.2-3.2,1.5-6.3,0.8-9.4c-0.6-2.4-2.3-3.6-4.1-5.1c-3.9-3.3-4.8-8.4-9.9-10.9
				C118,75,102.8,75.9,90.4,76c0.5,3.9,1.1,7.8,1.6,11.7c7.6-2.7,15.4-3.7,23.4-3.5c3.7,0.1,8,0.1,11.6,1c2.7,0.7,1-0.3,2.1,1.1
				c1.1,1.4,1.3,3.9,1.5,5.6c1,6.7,11.8,5,11.7-1.6c-0.1-5.6,0.7-11.9-0.6-17.4c-1.3-5.5-5.7-7.4-11-7.7c-13.4-0.6-26.7,0.7-40-1
				C83.2,63.3,83.2,75.2,90.7,76.2L90.7,76.2z"/>
		</g>
	</g>
	<g>
		<g>
			<path class="st1" d="M46,125.4c0.8,12.7,1.1,25.4,0.8,38.2c-0.1,5.8,8.3,8.3,11.1,3c3.1-5.9,4.7-12.1,5.6-18.6
				c0.5-3.3,0.8-6.6,1.2-9.9c0.3-2.7,0.3-6.9,1.5-9.3c-1.2,0.9-2.4,1.8-3.6,2.7c2.5-0.6,5.8-0.1,8.4-0.1c3,0,6-0.1,9-0.1
				c6.3-0.1,12.6-0.1,19-0.2c12.3-0.1,24.6-0.2,36.9-0.3c-2-2-4-4-6-6c0.5,11.8,2.3,24.3,0,36.1c3.9,0.5,7.8,1.1,11.7,1.6
				c-0.2-8.8-1.6-17.6-4.6-25.9c-1.2-3.4-2.4-7-5.5-9.1c-3-2.1-7.2-2.2-10.8-2.4c-9.2-0.6-18.4,0.9-27.5,1.5
				c-9.5,0.7-19.1,0.2-28.6-0.5c-6.6-0.4-8.3,10.7-1.6,11.7c11.4,1.7,22.9,2.7,34.4,2.4c5.3-0.1,10.8-1.1,16.1-0.9
				c1.7,0.1,3.1,0.5,4.7,1.1c0.1,0.1,2.3,0.8,2.2,0.6c1.2,1.3,0.7,6.9,0.7,8.7c0.1,7.7,11.7,7.7,11.9,0
				c0.3-12.7-20.3-12.8-28.9-13.2c-13.9-0.6-27.8,0.5-41.6-1.1c-2.9-0.3-6.3,3-6,6c1.5,11.7,20.5,10.3,29.2,10.4
				c6.3,0.1,12.6-0.1,18.9,0c3.1,0.1,6.3,0.2,9.4,0.5c1.6,0.1,3.3,0.6,4.9,0.6c0.6,0.1,1.2,0.2,1.9,0.3c-0.4-1.2-0.3-1.5,0-0.9
				c1.4-1.4,2.8-2.8,4.2-4.2c-4,1.5-9.8,0.6-13.9,0.4c1.9,1.5,3.8,2.9,5.7,4.4c-0.8-2.2-0.6-4.2-2.6-5.9c-2.7-2.4-5.4-1.5-8.7-1.1
				c-7.1,1-14.7,0.3-21.9,0.3c-3.5,0-7,0-10.5,0c-3.3,0-6-1.2-9.2-1.5c-6.3-0.5-10.2,4.4-9.3,10.3c0.4,2.7,3.4,4.2,5.7,4.4
				c18.9,1.2,37.9,1.8,56.9,1.7c1.8,0,4.2,0.5,5.9,0c2.6,0.5,3.7-1.2,3.4-4.9c-1.1-0.3-2.3-0.6-3.4-0.9c-4-1-8.1-1.8-12.2-2.5
				c-8.9-1.6-17.8-2.7-26.8-3.1c-4.6-0.2-9.1-0.3-13.7-0.2c-3.6,0.1-8-0.2-11.3,1.5c-6.8,3.3-5.3,12,1.7,13.9
				c8.2,2.2,18.3,0.9,26.8,1c9.9,0.1,19.9,0.3,29.8,0.4c7.7,0.1,7.7-11.8,0-11.9c-9.3-0.1-18.6-0.2-27.9-0.4
				c-4.6-0.1-9.3-0.1-13.9-0.2c-3,0-9.6,1-11.9-0.7c0.9,1.2,1.8,2.4,2.7,3.6c-0.1-0.3-0.1-0.5-0.2-0.8c-0.2,1.5-0.4,3.1-0.6,4.6
				c-1.4,1.1-1.5,1.5-0.1,1.1c1-0.1,2-0.1,2.9-0.1c2-0.1,3.9-0.1,5.9-0.1c3.6,0,7.2,0.1,10.7,0.3c7.3,0.4,14.5,1.2,21.7,2.5
				c7.5,1.3,30.6,10.4,30.1-4.9c-0.2-5.9-5.3-9.4-10.6-9.9c-6.8-0.7-13.9,0-20.7-0.1c-15.1-0.2-30.1-0.7-45.1-1.7
				c1.9,1.5,3.8,2.9,5.7,4.4c0-0.3-0.1-0.6-0.1-1c-0.2,1.5-0.4,3.1-0.6,4.6c-2.2,0.9-2.3,1.5-0.3,1.8c1,0.3,2.1,0.5,3.2,0.6
				c1.6,0.2,3.3,0.3,4.9,0.3c4.1,0,8.3,0,12.4,0c4.1,0,8.3,0,12.4,0c4.1,0,8-0.8,12.1-1c-1.4-0.6-2.8-1.2-4.2-1.7
				c-0.9-2.1-1.2-2.4-0.9-1c0,0.6,0.2,1.1,0.4,1.6c1,2.6,2.9,4.2,5.7,4.4c6.1,0.3,19.9,2.4,21.4-6c1.5-8.5-5-12.3-12.2-13.3
				c-8.6-1.2-17.3-1.3-26-1.2c-4.4,0-8.8,0.1-13.2-0.1c-3.6-0.1-11.3,0.6-14.3-1.7c0.6,1.4,1.2,2.8,1.7,4.2c0-0.3-0.1-0.6-0.1-0.9
				c-2,2-4,4-6,6c10.3,1.2,20.6,0.9,31,0.9c5.2,0,10.3,0.1,15.5,0.5c2.4,0.2,4.8,0.4,7.2,0.9c1.6,0.3,4.9,2.3,5,0.1
				c4,0,7.9,0,11.9,0c0-5.5,0.2-13.1-4.4-16.9c-5.3-4.3-12-5.7-18.6-5.2c-14.7,1.1-29.2,0.9-43.8-1.3c-0.5,3.9-1.1,7.8-1.6,11.7
				c7.6,0.5,15.3,1,22.9,0.8c7.3-0.2,14.6-1.3,21.9-1.7c3.5-0.2,6.9-0.4,10.4-0.2c0.8,0,4.5-0.1,5.2,0.5c0.1,0.1,1.1,3.9,1.1,4
				c2.3,6.8,3.5,13.9,3.6,21.1c0.1,6.5,10.4,8.4,11.7,1.6c2.5-12.9,1-26.2,0.4-39.2c-0.1-3.2-2.6-6-6-6c-22,0.2-43.9,0.4-65.9,0.6
				c-4,0.1-10-1-13.2,2.1c-2.8,2.7-3,8-3.5,11.6c-1.3,9.2-1.4,19-5.8,27.4c3.7,1,7.4,2,11.1,3c0.3-12.7,0-25.5-0.8-38.2
				C57.4,117.8,45.5,117.7,46,125.4L46,125.4z"/>
		</g>
	</g>
	<g>
		<g>
			<path class="st1" d="M46.6,167.9c-0.4,3.3,0.6,6.7,3.5,8.6c3.2,2.2,6.1,1.2,9.1-0.5c7-3.9,15.9-2.4,23.8-2.4c9.2,0,18.5,0,27.7,0
				c8.8,0,17.7,0.4,26.4-0.9c-2.5-1.9-5-3.8-7.5-5.7c0.2,1.8,0.8,4-0.7,5c-1.9,1.2-7.5,0.1-9.7,0.2c-7.2,0.1-14.3,0.1-21.5,0.2
				c-7.2,0.1-14.3,0.1-21.5,0.2c-2.7,0-17.4,1.5-18.2-0.5c-3-7-13.3-1-10.3,6c3.6,8.5,15.3,6.5,22.6,6.4c10.4-0.1,20.8-0.1,31.2-0.2
				c5.2,0,10.4-0.1,15.6-0.1c4.6,0,9.5,0.4,14.1-0.4c8.4-1.6,11-8.9,10.2-16.6c-0.4-4.2-3.4-6.4-7.5-5.7c-7,1.1-14.3,0.5-21.3,0.5
				c-7.6,0-15.2,0-22.8,0c-7.1,0-14.1-0.2-21.2,0c-2.9,0.1-5.8,0.3-8.6,0.9c-2.8,0.7-5,2.8-7.6,3.5c1.5,0.2,3.1,0.4,4.6,0.6
				c0.9,2.8,1.3,3.2,1.3,1.2C59.5,160.3,47.6,160.4,46.6,167.9L46.6,167.9z"/>
		</g>
	</g>
	<g>
		<g>
			<path class="st1" d="M117.5,76.2c2.8,0.5,5.6,0.9,8.4,1.2c1.2,0.1,2.5,0.3,3.7,0.4c0.6,0.1,1.2,0.1,1.9,0.1
				c1.4,0.1,1.7,0.1,0.8,0.1c-0.9-0.5-1.8-1-2.6-1.5c-1.3-1.2-0.2-0.7-0.4,0.1c-0.4,1-0.6,2.3-0.7,3.3c-0.2,2.2-0.2,4.4-0.2,6.6
				c-0.1,7.7,11.8,7.7,11.9,0c0-2.7,0.2-5.2,0.6-7.8c0.5-3.1,0.2-7-1.8-9.6c-2.1-2.7-5-2.9-8.2-3.2c-3.4-0.3-6.8-0.7-10.1-1.2
				c-3.2-0.5-6.4,0.8-7.3,4.2C112.6,71.7,114.3,75.6,117.5,76.2L117.5,76.2z"/>
		</g>
	</g>
	<g>
		<g>
			<path class="st1" d="M48.9,70.8c-0.4,1.1-0.9,2.2-1.3,3.3c3.8,0,7.7,0,11.5,0c0.5,3-1.3,2.3,1.6,2.4c1.6,0.1,3.1,0.2,4.7,0.3
				c3.3,0.2,6.6,0.4,9.9,0.5c6.6,0.3,13.2,0.4,19.8,0.4c12.6,0.1,25.6,0.8,38.1-1.2c-2.2-0.9-4.5-1.8-6.7-2.7c1.2,2.5,2,5.2,2.2,8
				c0.8,7.6,12.7,7.6,11.9,0c-0.5-5-1.7-9.4-3.9-14c-1.2-2.5-4.3-3.1-6.7-2.7c-8.2,1.3-16.8,0.8-25,0.8c-8.3,0-16.5,0-24.8-0.3
				c-10-0.3-35.4-6.1-32.6,11.6c1,6.5,9.6,4.8,11.5,0c0.4-1.1,0.9-2.2,1.3-3.3C63.1,66.8,51.6,63.7,48.9,70.8L48.9,70.8z"/>
		</g>
	</g>
	<g>
		<path class="st2" d="M93.6,186.4c-11.5,0-23,0-34.5,0c-11.9,0-17.2-5.4-17.2-17.5c0-15-0.2-30,0.1-45c0.1-4.5-1.1-5.8-5.7-5.8
			c-22,0.1-37.9-16.7-36.1-38.6C1.3,65,9.6,55,23.3,49.9c3.3-1.2,4.4-2.2,4.5-6.1C27.8,25.4,36.3,11.7,53,4.2
			c16.5-7.5,32.2-4.7,46.1,6.9c2.2,1.9,3.6,2.9,6.6,1.2c23.8-13.2,52.1,3.2,52.3,30.4c0,3.9,1.5,4.8,4.6,5.7
			c17.2,4.9,27.6,21.2,25.1,39.2c-2.3,16.8-17.4,29.6-34.8,29.8c-7.7,0.1-6.8-1.2-6.8,6.9c-0.1,15.2,0,30.3,0,45.5
			c0,11-5.6,16.6-16.6,16.6C117.6,186.4,105.6,186.4,93.6,186.4z M93.9,60.1c12.2,0,24.3-0.1,36.5,0c10,0.1,15.7,5.9,15.8,15.9
			c0.1,10.3,0.2,20.7-0.1,31c-0.1,3.5,1,4.9,4.5,4.4c1.1-0.2,2.3,0,3.5,0C168.4,111,181,99.1,182,85c1.1-15.3-8.7-28.7-23.2-31.5
			c-6.9-1.3-7-1.3-6.7-8.6c0.5-12.3-4.5-21.7-15.3-27.6c-10.4-5.6-20.9-5.1-30.6,1.8c-3.7,2.7-5.6,2.3-8.6-1
			C84.8,4.2,63.7,2.2,48.7,13.5C37.3,22.1,32.5,33.8,34,48.1c0.3,3.1,0.2,5.7-3.7,6.2C16,56,3.9,70.2,6.1,86.9
			c2,15.4,15.5,25.8,32,25.5c3.2-0.1,3.9-1.2,3.8-4.1c-0.1-10.5-0.1-21,0-31.5c0-11.1,5.5-16.6,16.5-16.7C70.2,60,82,60.1,93.9,60.1
			z M140.1,123c0-15.5,0-31,0-46.5c0-7.2-3.1-10.3-10.3-10.3c-23.8,0-47.6,0-71.4,0c-7.5,0-10.4,3-10.4,10.7c0,31,0,61.9,0,92.9
			c0,7.5,3.1,10.6,10.6,10.6c23.6,0,47.3,0,70.9,0c7.6,0,10.7-3,10.7-10.5C140.1,154.3,140.1,138.6,140.1,123z"/>
		<path class="st2" d="M75.8,99.5c1.7,0,3.3,0,5,0c3.7,0,5.5,1.9,5.5,5.5c0,4.8,0.1,9.6,0,14.4c0,2.4,0.1,3.8,3.3,4.1
			c4,0.4,5.2,4.2,2.5,7.5c-4,4.9-8.3,9.5-12.6,14.1c-2.4,2.5-5,2.3-7.3-0.2c-4.1-4.5-8.4-9-12.3-13.7c-2.9-3.5-1.9-6.9,2.6-7.7
			c2.5-0.4,3-1.3,2.9-3.5c-0.1-3.3,0-6.6,0-10C65.3,99.7,65.5,99.5,75.8,99.5z M85.2,129.7c-4.5-0.9-5.1-3.9-5-7.5
			c0.1-4.5-0.1-9,0.1-13.4c0.2-3.3-1.7-3.4-4.1-3.3c-2.3,0.1-4.8-0.4-4.6,3.3c0.2,4.6,0,9.3,0,13.9c0,2,0.2,4.5-1.8,5.4
			c-3.5,1.6-2.1,2.9-0.4,4.8c6.5,7.4,6.5,7.5,12.9,0.2C83.1,132.1,83.9,131.1,85.2,129.7z"/>
		<path class="st2" d="M101.8,134c0-1.8-0.1-3.7,0-5.5c0.1-2.9,0.2-5.2-3.9-5.7c-3.3-0.4-4.3-4.3-2-7.1c4.1-5,8.5-9.8,13-14.5
			c2.3-2.4,4.8-2.2,6.9,0.2c4.3,4.6,8.6,9.3,12.7,14.1c2.7,3.2,1.6,6.8-2.5,7.5c-3.2,0.5-3.1,2.1-3.1,4.4c0.1,4,0,8,0,12
			c0,6.3-1.4,7.7-7.5,7.8C100.3,147.3,101.8,147.1,101.8,134z M111.9,140.8c3.4,0.7,4.9-0.5,4.7-4.2c-0.3-4.3-0.1-8.7,0-13
			c0-1.7-0.3-3.9,1.2-4.7c5.2-2.6,1.5-4.5-0.3-6.6c-1.2-1.4-2.4-2.7-3.7-4.1c-0.5-0.6-1.3-1.7-1.9-1c-2.8,2.8-5.8,5.6-8,8.9
			c-1.2,1.8,2.3,1.3,2.9,2.8c0.7,1.6,1.1,3.1,1,4.8c0,4.3,0.2,8.7-0.1,13C107.6,139.9,108.5,141.5,111.9,140.8z"/>
		<path class="st2" d="M94.5,74.7c10.5,0,21,0,31.4,0c2.3,0,5.2-0.1,5.2,3.1c0,3.3-2.9,3.1-5.2,3.1c-21.3,0-42.6,0-63.9,0
			c-2.3,0-5.2,0.2-5.2-3.1c0-3.3,2.8-3.1,5.2-3.1C72.9,74.7,83.7,74.7,94.5,74.7z"/>
		<path class="st2" d="M94,159.2c-10.6,0-21.3,0-31.9,0c-2.3,0-5.2,0.3-5.2-3.1c0-3.5,3-3,5.2-3c21.3,0,42.6,0,63.8,0
			c2.2,0,5.2-0.5,5.2,3c0,3.3-2.9,3.1-5.2,3.1C115.3,159.2,104.6,159.2,94,159.2z"/>
		<path class="st2" d="M79.5,93.4c-6.2,0-12.3,0-18.5,0c-2.1,0-4.2-0.2-4.2-3c0-2.7,2.1-3,4.3-3c12.3,0,24.6,0,37,0
			c2.2,0,4.2,0.5,4.2,3.1c0,2.7-2.1,2.9-4.3,2.9C91.9,93.4,85.7,93.4,79.5,93.4z"/>
		<path class="st2" d="M78,165.5c5.3,0,10.6,0,15.9,0c2.2,0,4.2,0.4,4.3,3.1c0.1,2.8-2.1,3-4.2,3c-11,0-21.9,0-32.9,0
			c-2.1,0-4.3-0.1-4.3-3c0-2.7,2-3.1,4.2-3.1C66.7,165.5,72.3,165.5,78,165.5z"/>
	</g>
</g>
</svg>
