<?xml version="1.0" encoding="UTF-8"?>
<svg id="Layer_10" data-name="Layer 10" xmlns="http://www.w3.org/2000/svg" viewBox="0 0 500 500">
  <defs>
    <style>
      .cls-1, .cls-2 {
        fill: #e86003;
      }

      .cls-3 {
        fill: #fcf1ed;
      }

      .cls-2 {
        fill-rule: evenodd;
      }
    </style>
  </defs>
  <rect class="cls-3" width="500" height="500"/>
  <g>
    <path class="cls-1" d="m53.86,63.69l8.69,29.79,7.91-27.69c.85-2.9,1.47-4.87,1.88-5.93.41-1.06,1.17-2.07,2.29-3.03,1.12-.96,2.66-1.44,4.61-1.44s3.54.48,4.66,1.44c1.12.96,1.91,2,2.37,3.12.46,1.12,1.09,3.07,1.9,5.83l7.91,27.69,8.79-29.79c.59-2.15,1.06-3.7,1.42-4.66.36-.96.96-1.81,1.81-2.54.85-.73,2.07-1.1,3.66-1.1s2.98.55,4.15,1.66c1.17,1.11,1.76,2.41,1.76,3.91,0,1.37-.5,3.43-1.51,6.2l-10.89,31.93c-.94,2.7-1.68,4.66-2.2,5.86-.52,1.2-1.34,2.28-2.47,3.22s-2.66,1.42-4.61,1.42-3.61-.5-4.76-1.51c-1.16-1.01-2.01-2.25-2.56-3.71-.55-1.46-1.16-3.37-1.81-5.71l-7.62-25.98-7.37,25.98c-.98,3.61-2.03,6.34-3.17,8.18-1.14,1.84-3.14,2.76-6.01,2.76-1.46,0-2.71-.29-3.74-.85s-1.88-1.38-2.56-2.44c-.68-1.06-1.29-2.31-1.81-3.76-.52-1.45-.93-2.6-1.22-3.44l-10.79-31.93c-1.07-2.99-1.61-5.06-1.61-6.2,0-1.43.57-2.72,1.71-3.86s2.54-1.71,4.2-1.71c2.21,0,3.71.63,4.49,1.88.78,1.25,1.61,3.39,2.49,6.42Z"/>
    <path class="cls-1" d="m139.16,62.86v1.61c2.51-3.09,5.11-5.36,7.81-6.81,2.7-1.45,5.76-2.17,9.18-2.17,4.1,0,7.88,1.06,11.33,3.17,3.45,2.12,6.18,5.21,8.18,9.28,2,4.07,3,8.89,3,14.45,0,4.1-.58,7.87-1.73,11.3-1.16,3.43-2.74,6.32-4.76,8.64-2.02,2.33-4.4,4.12-7.15,5.37-2.75,1.25-5.71,1.88-8.86,1.88-3.81,0-7.01-.77-9.59-2.29s-5.05-3.78-7.4-6.74v20.02c0,5.86-2.13,8.79-6.4,8.79-2.51,0-4.17-.76-4.98-2.27-.81-1.51-1.22-3.72-1.22-6.62v-57.52c0-2.54.55-4.44,1.66-5.69,1.11-1.25,2.62-1.88,4.54-1.88s3.43.64,4.61,1.93c1.19,1.29,1.78,3.13,1.78,5.54Zm26.12,19.38c0-3.52-.54-6.53-1.61-9.06-1.07-2.52-2.56-4.46-4.47-5.81-1.9-1.35-4.01-2.03-6.32-2.03-3.68,0-6.78,1.45-9.3,4.35-2.52,2.9-3.78,7.16-3.78,12.79,0,5.31,1.25,9.43,3.76,12.38,2.51,2.95,5.62,4.42,9.33,4.42,2.21,0,4.26-.64,6.15-1.93,1.89-1.29,3.4-3.21,4.54-5.79,1.14-2.57,1.71-5.68,1.71-9.33Z"/>
    <path d="m188.28,56.56h3.17v-4c0-4.17.53-7.48,1.59-9.94,1.06-2.46,2.85-4.25,5.37-5.37,2.52-1.12,5.98-1.68,10.38-1.68,7.78,0,11.67,1.9,11.67,5.71,0,1.24-.41,2.29-1.22,3.17-.81.88-1.77,1.32-2.88,1.32-.52,0-1.42-.1-2.69-.29s-2.34-.29-3.22-.29c-2.41,0-3.96.71-4.64,2.12s-1.03,3.44-1.03,6.08v3.17h3.27c5.08,0,7.62,1.53,7.62,4.59,0,2.18-.68,3.56-2.03,4.15-1.35.59-3.21.88-5.59.88h-3.27v35.3c0,2.64-.63,4.65-1.88,6.03-1.25,1.38-2.87,2.08-4.86,2.08s-3.46-.69-4.71-2.08c-1.25-1.38-1.88-3.39-1.88-6.03v-35.3h-3.66c-1.99,0-3.52-.45-4.59-1.34-1.07-.9-1.61-2.06-1.61-3.49,0-3.19,2.23-4.79,6.69-4.79Z"/>
    <path d="m271.24,82.48c0,3.97-.62,7.63-1.86,10.99-1.24,3.35-3.03,6.23-5.37,8.64-2.34,2.41-5.14,4.26-8.4,5.54s-6.92,1.93-10.99,1.93-7.67-.65-10.89-1.95-6.01-3.17-8.37-5.59c-2.36-2.42-4.15-5.29-5.37-8.59-1.22-3.3-1.83-6.96-1.83-10.96s.62-7.73,1.86-11.08c1.24-3.35,3.01-6.22,5.32-8.59,2.31-2.38,5.11-4.21,8.4-5.49,3.29-1.29,6.92-1.93,10.89-1.93s7.7.65,10.99,1.95c3.29,1.3,6.1,3.16,8.45,5.57,2.34,2.41,4.13,5.27,5.35,8.59s1.83,6.98,1.83,10.99Zm-13.38,0c0-5.44-1.2-9.67-3.59-12.7s-5.61-4.54-9.64-4.54c-2.6,0-4.9.68-6.88,2.03-1.99,1.35-3.52,3.34-4.59,5.98s-1.61,5.71-1.61,9.23.53,6.53,1.59,9.13c1.06,2.6,2.57,4.6,4.54,5.98,1.97,1.38,4.29,2.08,6.96,2.08,4.04,0,7.25-1.52,9.64-4.57,2.39-3.04,3.59-7.25,3.59-12.62Z"/>
    <path d="m294.97,90.35v11.13c0,2.7-.63,4.73-1.9,6.08s-2.88,2.03-4.83,2.03-3.5-.68-4.74-2.05-1.86-3.39-1.86-6.05v-37.11c0-5.99,2.17-8.98,6.49-8.98,2.21,0,3.81.7,4.79,2.1.98,1.4,1.51,3.47,1.61,6.2,1.59-2.73,3.23-4.8,4.91-6.2,1.68-1.4,3.91-2.1,6.71-2.1s5.52.7,8.15,2.1c2.64,1.4,3.96,3.26,3.96,5.57,0,1.63-.56,2.97-1.68,4.03-1.12,1.06-2.34,1.59-3.64,1.59-.49,0-1.67-.3-3.54-.9-1.87-.6-3.52-.9-4.96-.9-1.95,0-3.55.51-4.79,1.54s-2.2,2.55-2.88,4.57c-.68,2.02-1.16,4.42-1.42,7.2s-.39,6.18-.39,10.18Z"/>
    <path d="m369.87,83.46v17.72c0,2.8-.63,4.9-1.9,6.3s-2.95,2.1-5.03,2.1-3.65-.7-4.91-2.1c-1.25-1.4-1.88-3.5-1.88-6.3v-21.24c0-3.35-.11-5.96-.34-7.81s-.85-3.38-1.86-4.57c-1.01-1.19-2.6-1.78-4.79-1.78-4.36,0-7.23,1.5-8.62,4.49-1.38,3-2.08,7.29-2.08,12.89v18.02c0,2.77-.63,4.86-1.88,6.27s-2.91,2.12-4.96,2.12-3.67-.71-4.96-2.12-1.93-3.51-1.93-6.27v-38.13c0-2.51.58-4.41,1.73-5.71,1.16-1.3,2.68-1.95,4.57-1.95s3.34.61,4.57,1.83,1.83,2.91,1.83,5.05v1.27c2.31-2.77,4.79-4.8,7.42-6.1,2.64-1.3,5.57-1.95,8.79-1.95s6.23.67,8.64,2c2.41,1.33,4.39,3.35,5.96,6.05,2.25-2.73,4.65-4.76,7.23-6.08s5.42-1.98,8.54-1.98c3.65,0,6.79.72,9.42,2.15,2.64,1.43,4.61,3.48,5.91,6.15,1.14,2.41,1.71,6.2,1.71,11.38v26.03c0,2.8-.63,4.9-1.9,6.3s-2.95,2.1-5.03,2.1-3.67-.71-4.96-2.12c-1.29-1.42-1.93-3.51-1.93-6.27v-22.41c0-2.86-.12-5.16-.37-6.88-.24-1.73-.9-3.17-1.98-4.35s-2.7-1.76-4.88-1.76c-1.76,0-3.43.52-5,1.56-1.58,1.04-2.81,2.44-3.69,4.2-.98,2.25-1.46,6.22-1.46,11.91Z"/>
    <path d="m456.93,92.15c0,3.68-.9,6.83-2.69,9.45-1.79,2.62-4.44,4.61-7.93,5.96-3.5,1.35-7.76,2.03-12.77,2.03s-8.89-.73-12.3-2.2-5.94-3.3-7.57-5.49c-1.63-2.2-2.44-4.4-2.44-6.62,0-1.46.52-2.72,1.56-3.76,1.04-1.04,2.36-1.56,3.96-1.56,1.4,0,2.47.34,3.22,1.03.75.68,1.46,1.64,2.15,2.88,1.37,2.38,3,4.15,4.91,5.32s4.5,1.76,7.79,1.76c2.67,0,4.86-.59,6.57-1.78,1.71-1.19,2.56-2.55,2.56-4.08,0-2.34-.89-4.05-2.66-5.13-1.77-1.07-4.7-2.1-8.76-3.08-4.59-1.14-8.33-2.34-11.21-3.59-2.88-1.25-5.18-2.91-6.91-4.96-1.73-2.05-2.59-4.57-2.59-7.57,0-2.67.8-5.19,2.39-7.57,1.59-2.38,3.95-4.27,7.06-5.69,3.11-1.42,6.86-2.12,11.25-2.12,3.45,0,6.55.36,9.3,1.07,2.75.72,5.04,1.68,6.88,2.88,1.84,1.2,3.24,2.54,4.2,4,.96,1.46,1.44,2.9,1.44,4.3,0,1.53-.51,2.78-1.54,3.76s-2.48,1.46-4.37,1.46c-1.37,0-2.53-.39-3.49-1.17-.96-.78-2.06-1.95-3.3-3.52-1.01-1.3-2.2-2.34-3.56-3.12s-3.22-1.17-5.57-1.17-4.41.51-6.01,1.54c-1.6,1.03-2.39,2.3-2.39,3.83,0,1.4.59,2.55,1.76,3.44,1.17.9,2.75,1.64,4.74,2.22,1.99.59,4.72,1.3,8.2,2.15,4.13,1.01,7.51,2.21,10.13,3.61,2.62,1.4,4.61,3.05,5.96,4.96,1.35,1.9,2.03,4.08,2.03,6.52Z"/>
  </g>
  <g>
    <g>
      <path class="cls-1" d="m218.65,424.23l-3.42-8.98h-29.1l-3.42,9.18c-1.33,3.58-2.47,6-3.42,7.25-.94,1.25-2.49,1.88-4.64,1.88-1.82,0-3.43-.67-4.83-2-1.4-1.33-2.1-2.85-2.1-4.54,0-.98.16-1.99.49-3.03.33-1.04.86-2.49,1.61-4.35l18.31-46.48c.52-1.33,1.15-2.94,1.88-4.81s1.51-3.43,2.34-4.66,1.92-2.24,3.27-3c1.35-.76,3.02-1.15,5-1.15s3.7.38,5.05,1.15c1.35.76,2.44,1.75,3.27,2.95s1.53,2.5,2.1,3.88c.57,1.38,1.29,3.23,2.17,5.54l18.7,46.19c1.46,3.52,2.2,6.07,2.2,7.67s-.69,3.18-2.08,4.57c-1.38,1.38-3.05,2.08-5,2.08-1.14,0-2.12-.2-2.93-.61-.81-.41-1.5-.96-2.05-1.66-.55-.7-1.15-1.77-1.78-3.22s-1.18-2.73-1.64-3.83Zm-28.71-19.87h21.39l-10.79-29.54-10.6,29.54Z"/>
      <path class="cls-1" d="m272.56,404.45h-13.28v20.26c0,2.9-.68,5.09-2.05,6.59s-3.09,2.25-5.18,2.25-3.94-.74-5.27-2.22c-1.33-1.48-2-3.65-2-6.52v-55.18c0-3.19.73-5.47,2.2-6.84s3.79-2.05,6.98-2.05h18.6c5.5,0,9.73.42,12.7,1.27,2.93.81,5.46,2.17,7.59,4.05s3.75,4.2,4.86,6.93,1.66,5.81,1.66,9.23c0,7.29-2.25,12.82-6.74,16.58s-11.18,5.64-20.07,5.64Zm-3.52-32.81h-9.77v21.88h9.77c3.42,0,6.27-.36,8.57-1.07s4.04-1.89,5.25-3.52,1.81-3.76,1.81-6.4c0-3.16-.93-5.73-2.78-7.71-2.08-2.12-6.36-3.17-12.84-3.17Z"/>
      <path class="cls-1" d="m312.06,424.71v-56.4c0-2.93.67-5.13,2-6.59s3.06-2.2,5.18-2.2,3.95.72,5.3,2.17,2.03,3.65,2.03,6.62v56.4c0,2.96-.68,5.18-2.03,6.64s-3.12,2.2-5.3,2.2-3.8-.74-5.15-2.22c-1.35-1.48-2.03-3.69-2.03-6.62Z"/>
    </g>
    <g>
      <path d="m356.11,268.15h-212.23c-12.38,0-22.45,9.23-22.45,20.59v164.71c0,11.35,10.07,20.59,22.45,20.59h212.23c12.38,0,22.45-9.23,22.45-20.59v-164.71c0-11.35-10.07-20.59-22.45-20.59Zm-212.23,11.23h212.23c5.63,0,10.2,4.2,10.2,9.36v24.33h-232.63v-24.33c0-5.16,4.58-9.36,10.2-9.36Zm212.23,183.42h-212.23c-5.63,0-10.2-4.2-10.2-9.36v-129.14h232.63v129.14c0,5.16-4.58,9.36-10.2,9.36Z"/>
      <path d="m339.87,302.3c3.38,0,6.12-2.74,6.12-6.12s-2.74-6.12-6.12-6.12h-.16c-3.38,0-6.04,2.74-6.04,6.12s2.82,6.12,6.2,6.12Z"/>
      <path d="m315.38,302.3c3.38,0,6.12-2.74,6.12-6.12s-2.74-6.12-6.12-6.12h-.16c-3.38,0-6.04,2.74-6.04,6.12s2.82,6.12,6.2,6.12Z"/>
      <path d="m290.89,302.3c3.38,0,6.12-2.74,6.12-6.12s-2.74-6.12-6.12-6.12h-.16c-3.38,0-6.04,2.74-6.04,6.12s2.82,6.12,6.2,6.12Z"/>
    </g>
  </g>
  <path class="cls-2" d="m301.94,212.82c0,17.21-13.95,31.16-31.16,31.16h-41.55c-17.21,0-31.16-13.95-31.16-31.16v-41.55c0-17.21,13.95-31.16,31.16-31.16h41.55c17.21,0,31.16,13.95,31.16,31.16v41.55Zm-80.19-7.78l7.04,7.93v-42.73c0-2.15,1.74-3.9,3.9-3.9s3.9,1.74,3.9,3.9v42.73l7.04-7.92c1.43-1.61,3.89-1.75,5.5-.32,1.61,1.43,1.75,3.89.32,5.5l-11.91,13.4c-2.58,2.91-7.12,2.91-9.71,0l-11.91-13.4c-1.43-1.61-1.28-4.07.32-5.5,1.61-1.43,4.07-1.28,5.5.32Zm41.67-33.91l-7.04,7.92c-1.43,1.61-3.89,1.75-5.5.32s-1.75-3.89-.32-5.5l11.91-13.4c2.58-2.91,7.12-2.91,9.71,0l11.91,13.4c1.43,1.61,1.28,4.07-.32,5.5s-4.07,1.28-5.5-.32l-7.04-7.92v42.73c0,2.15-1.74,3.9-3.9,3.9s-3.9-1.74-3.9-3.9v-42.73Z"/>
</svg>