<svg width="20" height="21" viewBox="0 0 20 21" fill="none" xmlns="http://www.w3.org/2000/svg">
<g clip-path="url(#clip0_1858_12100)">
<mask id="mask0_1858_12100" style="mask-type:luminance" maskUnits="userSpaceOnUse" x="0" y="0" width="20" height="21">
<path d="M20 0.297363H0V20.2974H20V0.297363Z" fill="white"/>
</mask>
<g mask="url(#mask0_1858_12100)">
<path d="M19.5135 9.1173L18.1494 7.7532C17.8259 7.42971 17.5613 6.78951 17.5613 6.33028V4.40064C17.5613 3.48219 16.8125 2.73341 15.894 2.73341H13.9644C13.5052 2.73341 12.865 2.46873 12.5415 2.14524L11.1774 0.781137C10.5304 0.134152 9.46941 0.134152 8.82017 0.781137L7.45607 2.14524C7.13257 2.46873 6.49011 2.73341 6.03315 2.73341H4.10351C3.18732 2.73341 2.43627 3.48219 2.43627 4.40064V6.33028C2.43627 6.78724 2.1716 7.42971 1.8481 7.7532L0.484006 9.1173C-0.165242 9.76428 -0.165242 10.8252 0.484006 11.4745L1.8481 12.8386C2.1716 13.1621 2.43627 13.8045 2.43627 14.2615V16.1911C2.43627 17.1073 3.18732 17.8584 4.10351 17.8584H6.03315C6.49237 17.8584 7.13257 18.123 7.45607 18.4465L8.82017 19.8106C9.46715 20.4576 10.5281 20.4576 11.1774 19.8106L12.5415 18.4465C12.865 18.123 13.5052 17.8584 13.9644 17.8584H15.894C16.8102 17.8584 17.5613 17.1073 17.5613 16.1911V14.2615C17.5613 13.8023 17.8259 13.1621 18.1494 12.8386L19.5135 11.4745C20.1605 10.8275 20.1605 9.76655 19.5135 9.1173Z" fill="#2AA7FF"/>
<path d="M8.888 14.0149L5.26172 10.3886L6.84977 8.80057L8.888 10.8388L13.1477 6.5791L14.7358 8.16716L8.888 14.0149Z" fill="white"/>
</g>
</g>
<defs>
<clipPath id="clip0_1858_12100">
<rect width="20" height="20" fill="white" transform="translate(0 0.297363)"/>
</clipPath>
</defs>
</svg>
