<svg width="50" height="50" viewBox="0 0 50 50" fill="none" xmlns="http://www.w3.org/2000/svg">
<path fill-rule="evenodd" clip-rule="evenodd" d="M6.72674 0H33.7727V7.62198C33.7727 9.75638 35.5107 11.4901 37.6504 11.4901H45.2913V48.9838C45.2913 49.5435 44.8337 50 44.2726 50H6.72674C6.16565 50 5.70801 49.5435 5.70801 48.9838V1.01621C5.70801 0.456509 6.16565 0 6.72674 0ZM37.1411 0.0882011V7.62215C37.1411 7.90209 37.3699 8.13017 37.6506 8.13017H45.2033C45.1539 8.02233 45.0838 7.92293 44.9931 7.83249L37.4395 0.297678C37.3489 0.207238 37.2492 0.13747 37.1411 0.0882011ZM35.6934 29.3063H15.3059C14.5573 29.3063 13.9503 29.9119 13.9503 30.6586C13.9503 31.4054 14.5573 32.0109 15.3059 32.0109H35.6934C36.442 32.0109 37.0491 31.4053 37.0491 30.6586C37.0491 29.9119 36.442 29.3063 35.6934 29.3063ZM35.6934 41.6771H15.3059C14.5573 41.6771 13.9503 42.2826 13.9503 43.0292C13.9503 43.776 14.5573 44.3815 15.3059 44.3815H35.6934C36.442 44.3815 37.0491 43.776 37.0491 43.0292C37.0491 42.2826 36.442 41.6771 35.6934 41.6771ZM35.6934 35.4916H15.3059C14.5573 35.4916 13.9503 36.0971 13.9503 36.8439C13.9503 37.5907 14.5573 38.1962 15.3059 38.1962H35.6934C36.442 38.1962 37.0491 37.5907 37.0491 36.8439C37.0491 36.0973 36.442 35.4916 35.6934 35.4916ZM23.161 8.55154C22.8804 8.55154 22.6516 8.77979 22.6516 9.05956V12.8243H18.8775C18.597 12.8243 18.3682 13.0525 18.3682 13.3325V17.9984C18.3682 18.2783 18.597 18.5065 18.8775 18.5065H22.6516V22.2713C22.6516 22.551 22.8804 22.7793 23.161 22.7793H27.8383C28.119 22.7793 28.3478 22.551 28.3478 22.2713V18.5065H32.1219C32.4025 18.5065 32.6313 18.2783 32.6313 17.9984V13.3325C32.6313 13.0525 32.4025 12.8243 32.1219 12.8243H28.3478V9.05973C28.3478 8.77979 28.119 8.55171 27.8383 8.55171L23.161 8.55154Z" fill="#477BFF"/>
</svg>
