<svg width="50" height="50" viewBox="0 0 50 50" fill="none" xmlns="http://www.w3.org/2000/svg">
<path d="M42.5563 39.8285C42.1275 41.0104 42.7841 42.9142 43.0619 44.1426L47.4154 37.1939L44.3154 37.9649C43.8761 38.0779 43.4778 38.3129 43.1664 38.6427C42.855 38.9724 42.6441 39.3835 42.5563 39.8285ZM3.73423 19.763C4.90874 18.9893 6.00399 18.1014 7.00402 17.1124C7.09848 17.017 7.21902 16.9518 7.35047 16.9247C7.48193 16.8977 7.61844 16.9102 7.74284 16.9605C8.98396 17.4295 10.267 17.7789 11.5746 18.004L10.3774 13.16C10.1242 12.1112 10.294 11.0048 10.8503 10.0802C11.4065 9.15561 12.3044 8.48721 13.3497 8.2196L31.9125 3.62581C31.8386 3.0498 31.6448 2.49567 31.3435 1.99919C31.0423 1.5027 30.6403 1.0749 30.1635 0.743389C29.6866 0.411876 29.1456 0.184017 28.5753 0.0745163C28.005 -0.0349841 27.418 -0.0236926 26.8524 0.107662L3.08384 5.99507C2.03755 6.2572 1.13792 6.92356 0.582238 7.84802C0.0265534 8.77249 -0.139826 9.8796 0.119587 10.9266L2.48885 20.5108C2.91499 20.2785 3.32416 20.0284 3.73423 19.763ZM11.9194 39.1379C9.99479 38.8228 8.15981 38.0996 6.53767 37.017L8.77113 46.0536C9.03373 47.0992 9.69777 47.9992 10.6194 48.5585C11.5409 49.1179 12.6458 49.2916 13.6946 49.042L18.8994 47.7573C18.8726 47.6697 16.0424 36.1013 15.8878 35.4991C15.0052 36.657 13.54 38.492 11.9194 39.1379Z" fill="#477BFF"/>
<path d="M15.8087 19.707C13.0363 19.7853 10.2737 19.3441 7.66366 18.4062C5.64207 20.3006 3.3002 21.8209 0.74707 22.8964C1.23218 28.7659 4.42157 36.3329 11.7598 37.7087C17.8572 33.5545 17.7804 25.3175 15.8087 19.707ZM9.80689 33.7886C9.45299 33.7857 9.11061 33.6624 8.83617 33.439C8.56172 33.2155 8.37158 32.9052 8.29707 32.5593L7.91917 30.7761C7.87271 30.7814 6.14223 31.1575 6.15205 31.154C5.75199 31.2339 5.33652 31.1543 4.99434 30.9321C4.65217 30.71 4.41038 30.3628 4.32061 29.9649L3.99899 28.439C3.91908 28.0388 3.99882 27.6232 4.22116 27.281C4.44351 26.9388 4.79084 26.6971 5.18898 26.6075L6.9561 26.2377L6.5782 24.4545C6.49415 24.0542 6.57193 23.6368 6.79456 23.2937C7.0172 22.9505 7.36658 22.7094 7.7664 22.623L9.28516 22.3014C9.48297 22.2596 9.68707 22.2573 9.8858 22.2944C10.0845 22.3316 10.274 22.4076 10.4433 22.518C10.6127 22.6285 10.7586 22.7712 10.8727 22.9381C10.9869 23.1049 11.067 23.2926 11.1086 23.4905L11.4865 25.2737L13.2616 24.8967C13.6617 24.8172 14.077 24.8982 14.418 25.1221C14.7589 25.3461 14.9982 25.6951 15.0841 26.0938C15.1297 26.3476 15.4567 27.7162 15.4459 27.9485C15.4419 28.299 15.319 28.6378 15.0973 28.9093C14.8756 29.1809 14.5682 29.3691 14.2256 29.4431L12.4495 29.8201L12.8274 31.6033C12.9098 32.0035 12.8313 32.42 12.6089 32.7627C12.3866 33.1055 12.0382 33.3469 11.6392 33.4348C11.4016 33.4777 10.0231 33.8064 9.80689 33.7886Z" fill="#477BFF"/>
<path d="M43.9769 36.6156L48.0739 35.5953L40.6919 5.65797C40.5213 4.9673 40.0839 4.37238 39.4756 4.0035C38.8673 3.63461 38.1375 3.52183 37.4462 3.68984C37.4462 3.68984 13.7018 9.56921 13.6857 9.56921C12.9966 9.74444 12.4043 10.1843 12.0373 10.7934C11.6704 11.4025 11.5584 12.1318 11.7257 12.8229L13.0595 18.2127C14.1264 18.3266 15.2006 18.3562 16.2721 18.3012C16.4225 18.2919 16.5717 18.3325 16.6967 18.4167C16.8217 18.5008 16.9155 18.6238 16.9636 18.7666C18.2411 22.5188 19.5008 28.5903 16.8993 33.8041C16.9225 33.8327 20.3772 47.9571 20.3772 47.9571C20.5493 48.6467 20.9868 49.2404 21.5945 49.609C22.2022 49.9776 22.9309 50.0913 23.622 49.9252L41.9364 45.3868L41.2217 42.4547C40.5606 40.0998 41.5201 37.157 43.9769 36.6156ZM17.9034 16.2115C17.7285 16.2546 17.5437 16.2277 17.3883 16.1368C17.2328 16.0458 17.1189 15.8978 17.0708 15.7242C17.0227 15.5506 17.0441 15.3651 17.1305 15.2071C17.2169 15.0491 17.3615 14.9309 17.5336 14.8777L36.5466 9.67284C36.6347 9.64856 36.7267 9.64186 36.8174 9.65314C36.9081 9.66443 36.9957 9.69346 37.0752 9.73859C37.1546 9.78372 37.2244 9.84406 37.2806 9.91617C37.3368 9.98827 37.3782 10.0707 37.4024 10.1588C37.4267 10.247 37.4334 10.339 37.4221 10.4297C37.4109 10.5204 37.3818 10.608 37.3367 10.6874C37.2916 10.7669 37.2312 10.8367 37.1591 10.8929C37.087 10.949 37.0046 10.9904 36.9164 11.0147L17.9034 16.2115ZM19.8304 24.6781C19.6545 24.7202 19.469 24.692 19.3135 24.5995C19.158 24.5069 19.0447 24.3574 18.9977 24.1827C18.9507 24.0079 18.9737 23.8217 19.0618 23.6637C19.1499 23.5056 19.2962 23.3882 19.4695 23.3363L35.479 18.9587C35.6557 18.9135 35.8431 18.9395 36.0008 19.0311C36.1586 19.1227 36.274 19.2726 36.3224 19.4484C36.3708 19.6243 36.3481 19.8121 36.2594 19.9715C36.1707 20.1309 36.0229 20.249 35.848 20.3006L19.8304 24.6781ZM22.08 33.1117C21.9061 33.1487 21.7246 33.1176 21.5729 33.0248C21.4212 32.9321 21.3108 32.7847 21.2644 32.613C21.2181 32.4414 21.2393 32.2584 21.3237 32.1019C21.4081 31.9454 21.5493 31.8272 21.7182 31.7716L40.7249 26.5659C40.9001 26.5251 41.0842 26.5536 41.2387 26.6455C41.3933 26.7375 41.5062 26.8857 41.5539 27.059C41.6016 27.2324 41.5804 27.4175 41.4946 27.5755C41.4089 27.7336 41.2653 27.8523 41.0939 27.9068L22.08 33.1117ZM39.4143 36.4137L24.3054 40.55C24.245 40.5654 24.1829 40.5735 24.1205 40.5742C23.954 40.5712 23.7941 40.5088 23.6697 40.3981C23.5452 40.2875 23.4646 40.136 23.4422 39.971C23.4199 39.806 23.4573 39.6384 23.5478 39.4987C23.6383 39.3589 23.7759 39.2562 23.9356 39.2091L39.0445 35.0727C39.2199 35.0308 39.4048 35.0587 39.56 35.1505C39.7153 35.2423 39.8289 35.3907 39.8769 35.5646C39.9248 35.7385 39.9034 35.9242 39.8171 36.0826C39.7308 36.2409 39.5864 36.3597 39.4143 36.4137ZM14.0476 27.8997L13.7259 26.3809C13.7248 26.3602 13.7162 26.3405 13.7018 26.3256C13.6839 26.3003 13.6595 26.2803 13.6312 26.2678C13.6029 26.2552 13.5718 26.2505 13.541 26.2541L11.4532 26.7035C11.3171 26.7322 11.1766 26.7338 11.0399 26.7082C10.9031 26.6826 10.7728 26.6302 10.6564 26.5541C10.5399 26.478 10.4396 26.3796 10.3613 26.2647C10.2829 26.1497 10.228 26.0204 10.1998 25.8842L9.74949 23.7794C9.74068 23.7392 9.71648 23.7041 9.68208 23.6815C9.64768 23.659 9.60581 23.6508 9.56545 23.6588L8.05563 23.9804C8.03565 23.9842 8.01669 23.9922 7.99994 24.0037C7.9832 24.0152 7.96904 24.0301 7.95837 24.0474C7.94769 24.0648 7.94074 24.0841 7.93795 24.1042C7.93516 24.1244 7.9366 24.1449 7.94217 24.1645L8.38439 26.2693C8.44296 26.543 8.39042 26.8289 8.2383 27.0639C8.08618 27.299 7.84695 27.464 7.5732 27.5227L5.47642 27.9721C5.4395 27.9839 5.40759 28.0078 5.38574 28.0398C5.3639 28.0718 5.35336 28.1102 5.35582 28.149L5.68548 29.6749C5.6889 29.6945 5.69623 29.7133 5.70704 29.7301C5.71785 29.7469 5.73192 29.7613 5.74842 29.7726C5.76491 29.7838 5.7835 29.7916 5.80307 29.7956C5.82264 29.7995 5.84281 29.7995 5.86237 29.7955C5.94724 29.783 8.18964 29.2862 8.17624 29.33C8.41847 29.3297 8.6535 29.4124 8.8421 29.5644C9.0307 29.7164 9.16146 29.9285 9.21256 30.1653L9.66194 32.2701C9.66524 32.2897 9.67247 32.3085 9.68321 32.3252C9.69394 32.342 9.70795 32.3564 9.72439 32.3675C9.74083 32.3787 9.75937 32.3865 9.77888 32.3903C9.79839 32.3941 9.81848 32.394 9.83793 32.3898C10.382 32.299 10.919 32.1704 11.4451 32.0048C11.4671 31.9717 11.4757 31.9315 11.4693 31.8922L11.027 29.7874C10.9967 29.6513 10.9937 29.5106 11.0182 29.3733C11.0426 29.2361 11.0941 29.1051 11.1695 28.9878C11.245 28.8706 11.3429 28.7695 11.4577 28.6904C11.5725 28.6112 11.7018 28.5557 11.8382 28.5269L13.935 28.0846C13.9725 28.0719 14.0042 28.0464 14.0248 28.0126C14.0454 27.9788 14.0534 27.9388 14.0476 27.8997Z" fill="#477BFF"/>
</svg>
