<svg width="50" height="50" viewBox="0 0 50 50" fill="none" xmlns="http://www.w3.org/2000/svg">
<g clip-path="url(#clip0_690_278)">
<path d="M35.5778 0H14.7445C11.2986 0 8.49447 2.80417 8.49447 6.25V50H41.8278V6.25C41.8278 2.80417 39.0236 0 35.5778 0ZM23.0778 39.5833H16.8278V35.4167H23.0778V39.5833ZM23.0778 31.25H16.8278V27.0833H23.0778V31.25ZM18.9111 16.6667V12.5H23.0778V8.33333H27.2445V12.5H31.4111V16.6667H27.2445V20.8333H23.0778V16.6667H18.9111ZM33.4945 39.5833H27.2445V35.4167H33.4945V39.5833ZM33.4945 31.25H27.2445V27.0833H33.4945V31.25ZM50.1611 18.75V50H45.9945V12.8833C48.4132 13.7458 50.1611 16.0375 50.1611 18.75ZM4.3278 12.8833V50H0.161133V18.75C0.161133 16.0375 1.90905 13.7458 4.3278 12.8833Z" fill="#477BFF"/>
</g>
<defs>
<clipPath id="clip0_690_278">
<rect width="50" height="50" fill="white"/>
</clipPath>
</defs>
</svg>
