<svg width="50" height="50" viewBox="0 0 50 50" fill="none" xmlns="http://www.w3.org/2000/svg">
<path d="M41.2346 42.0114C42.8532 39.3891 43.7498 36.4336 43.7498 33.3334C43.7498 26.1115 39.1928 19.8468 32.3852 17.5636C31.4693 16.0839 29.9657 15.0156 28.1919 14.6955L29.1665 12.7463C29.4238 12.2315 29.2153 11.6059 28.7006 11.3486L29.6324 9.48504C29.8797 9.60803 30.1655 9.62806 30.4275 9.54074C30.6895 9.45341 30.9062 9.26586 31.0302 9.01913L33.2233 4.63272C33.4806 4.11797 33.2721 3.49239 32.7574 3.23497L26.5074 0.109985C25.9917 -0.146362 25.3681 0.0601802 25.1097 0.575901L22.9165 4.96231C22.6592 5.47705 22.8677 6.10263 23.3824 6.36005L22.4506 8.22362C21.9369 7.96825 21.3103 8.17479 21.0529 8.68954L12.6097 25.5759C12.3524 26.0906 12.5609 26.7162 13.0757 26.9736L19.3256 30.0986C19.448 30.1598 19.5812 30.1963 19.7177 30.206C19.8541 30.2157 19.9912 30.1984 20.121 30.1551C20.2507 30.1119 20.3707 30.0435 20.4741 29.9538C20.5774 29.8642 20.6621 29.7551 20.7233 29.6327L22.8418 25.3962C23.9581 26.4345 25.4419 27.0834 27.0831 27.0834C28.4507 27.0834 29.7064 26.6293 30.7365 25.8816C33.59 27.277 35.4164 30.1286 35.4164 33.3334C35.4164 37.9283 31.678 41.6666 27.0831 41.6666H18.7498V39.5833H21.8748C22.0117 39.5834 22.1472 39.5566 22.2736 39.5042C22.4 39.4519 22.5149 39.3752 22.6116 39.2784C22.7084 39.1817 22.7851 39.0668 22.8374 38.9404C22.8897 38.814 22.9166 38.6785 22.9165 38.5417C22.9166 38.4048 22.8897 38.2693 22.8374 38.1429C22.7851 38.0165 22.7084 37.9016 22.6116 37.8049C22.5149 37.7081 22.4 37.6314 22.2736 37.5791C22.1472 37.5267 22.0117 37.4999 21.8748 37.5H7.29169C7.15487 37.4999 7.01937 37.5267 6.89295 37.5791C6.76652 37.6314 6.65165 37.7081 6.5549 37.8049C6.45816 37.9016 6.38143 38.0165 6.32911 38.1429C6.27679 38.2693 6.24991 38.4048 6.25 38.5417C6.24991 38.6785 6.27679 38.814 6.32911 38.9404C6.38143 39.0668 6.45816 39.1817 6.5549 39.2784C6.65165 39.3752 6.76652 39.4519 6.89295 39.5042C7.01937 39.5566 7.15487 39.5834 7.29169 39.5833H10.4167V41.6666C8.11874 41.6666 6.25 43.5353 6.25 45.8333V48.9583C6.24991 49.0951 6.27679 49.2306 6.32911 49.357C6.38143 49.4835 6.45816 49.5983 6.5549 49.6951C6.65165 49.7918 6.76652 49.8686 6.89295 49.9209C7.01937 49.9732 7.15487 50.0001 7.29169 50H42.7082C42.8451 50.0001 42.9806 49.9732 43.107 49.9209C43.2334 49.8686 43.3483 49.7918 43.445 49.6951C43.5418 49.5983 43.6185 49.4835 43.6708 49.357C43.7231 49.2306 43.75 49.0951 43.7499 48.9583V45.8333C43.7499 44.1224 42.7123 42.6524 41.2346 42.0114ZM27.0833 22.9167C25.9349 22.9167 25 21.9819 25 20.8334C25 19.685 25.9349 18.7501 27.0833 18.7501C28.2317 18.7501 29.1666 19.685 29.1666 20.8334C29.1666 21.9819 28.2317 22.9167 27.0833 22.9167Z" fill="#477BFF"/>
</svg>
