<svg width="50" height="50" viewBox="0 0 50 50" fill="none" xmlns="http://www.w3.org/2000/svg">
<g clip-path="url(#clip0_690_291)">
<path d="M46.1126 3.85437C40.9706 -1.28479 32.6067 -1.28479 27.4647 3.85437L16.593 14.726L28.9361 27.0692C31.4766 24.9537 34.6974 23.6291 38.2537 23.6291C40.2936 23.6291 42.2347 24.0528 44.0009 24.8094L46.1126 22.5024C51.2531 17.3618 51.2531 8.99646 46.1126 3.85437ZM26.8816 29.158L14.5212 16.7977L3.88078 27.4486C-1.25974 32.5891 -1.25974 40.9546 3.88078 46.0965C9.02268 51.2354 17.4843 51.3335 22.6264 46.1941L24.7834 44.0267C24.0268 42.2605 23.603 40.3194 23.603 38.2796C23.6031 34.8145 24.8629 31.6691 26.8816 29.158ZM26.5332 38.2796C26.5332 44.2507 31.015 49.1239 36.7886 49.8523V26.7069C31.015 27.4353 26.5332 32.3083 26.5332 38.2796ZM39.7187 26.7069V49.8523C45.4923 49.1239 49.974 44.2507 49.974 38.2796C49.974 32.3084 45.4924 27.4353 39.7187 26.7069Z" fill="#477BFF"/>
</g>
<defs>
<clipPath id="clip0_690_291">
<rect width="50" height="50" fill="white"/>
</clipPath>
</defs>
</svg>
