<svg width="24" height="24" viewBox="0 0 24 24" fill="none" xmlns="http://www.w3.org/2000/svg">
<path d="M22.0166 22.1251H20.6741C20.3872 22.1243 20.1108 22.0175 19.8979 21.8251L19.1741 21.1688C19.1891 21.1088 19.2004 21.0488 19.2004 20.9888C19.2004 20.8013 19.1291 20.6176 18.9866 20.4751L18.8891 20.3776C18.7579 20.2463 18.6829 20.0701 18.6754 19.8863L18.6604 19.3876C18.654 19.2037 18.5775 19.0293 18.4466 18.9001L17.2054 17.6588C17.1495 18.1874 16.9123 18.6804 16.5341 19.0538C16.1591 19.4326 15.6716 19.6651 15.1429 19.7213L16.3804 20.9626C16.5116 21.0938 16.6879 21.1688 16.8716 21.1763L17.3704 21.1951C17.5541 21.1988 17.7304 21.2776 17.8579 21.4051L17.9554 21.5026C18.1429 21.6901 18.4016 21.7501 18.6379 21.6938L19.3916 22.3801C19.7441 22.6988 20.1979 22.8751 20.6741 22.8751H22.0166C22.2229 22.8751 22.3916 22.7063 22.3916 22.5001C22.3916 22.2938 22.2229 22.1251 22.0166 22.1251ZM10.3316 2.93259C10.9466 2.93259 11.4454 3.08634 11.8504 3.31884C12.6304 3.53259 13.5529 3.86634 14.4529 4.37259C13.7779 2.68884 12.1391 1.49634 10.2154 1.49634H9.72789C7.80789 1.49634 6.16914 2.68509 5.49414 4.36134C7.64289 3.15009 9.93789 2.94759 10.0691 2.93634C10.1666 2.92884 10.2529 2.92884 10.3354 2.92884L10.3316 2.93259Z" fill="#477BFF"/>
<path d="M9.86639 20.4375C7.45889 20.3925 5.36264 18.75 4.65389 16.3688L4.37264 15.2138L4.51139 13.2225C4.51139 13.2225 4.25264 9.37125 11.0701 7.935C11.2389 7.8975 11.4001 7.8375 11.5464 7.74375C11.9814 7.47 12.7164 6.78375 12.5026 5.34375C12.5026 5.34375 12.1089 3.55875 10.1251 3.69C10.1251 3.69 5.99639 4.02 3.81764 6.6975C3.81764 6.6975 1.44014 9.20625 2.10014 12.705C2.10014 12.705 2.49764 15.3675 3.90764 16.7588C3.93764 16.7925 3.97514 16.8075 4.01639 16.815C4.50764 18.2588 5.44889 19.4438 6.64889 20.2125V21.9563C6.64889 22.2563 6.89264 22.5 7.19264 22.5H12.5739C12.8739 22.5 13.1176 22.2563 13.1176 21.9563V20.3363C13.4476 20.145 13.7551 19.9275 14.0439 19.6875L13.5114 19.155C12.4896 20.006 11.1959 20.4612 9.86639 20.4375Z" fill="#477BFF"/>
<path d="M13.2378 5.17893L13.2453 5.23143C13.5303 7.15518 12.4316 8.07393 11.9478 8.37768C11.7491 8.50143 11.5278 8.59143 11.2916 8.64768C15.6191 10.3577 15.4278 13.2227 15.4278 13.2227L15.5741 15.3302C15.6828 15.3414 15.7841 15.3714 15.8853 15.4127C16.0316 15.4727 16.1628 15.5589 16.2791 15.6752L16.6278 16.0239C17.5578 14.5989 17.8391 12.7052 17.8391 12.7052C18.4991 9.20643 16.1216 6.69768 16.1216 6.69768C15.2553 5.62893 14.0778 4.94268 12.9716 4.49268C13.1066 4.74393 13.1928 4.98393 13.2378 5.17893ZM9.18781 13.5864C9.31156 13.4214 9.28156 13.1852 9.11656 13.0614C8.95156 12.9377 8.71531 12.9677 8.59156 13.1327C8.38156 13.4102 8.06656 13.5677 7.72156 13.5677C7.37656 13.5677 7.06156 13.4102 6.85156 13.1327C6.82199 13.0932 6.78487 13.0601 6.74236 13.0351C6.69986 13.0101 6.65281 12.9939 6.60396 12.9872C6.55512 12.9806 6.50544 12.9837 6.45781 12.9965C6.41019 13.0092 6.36558 13.0313 6.32656 13.0614C6.16156 13.1852 6.12781 13.4214 6.25531 13.5864C6.60781 14.0514 7.14406 14.3177 7.72531 14.3177C8.30656 14.3177 8.84281 14.0514 9.19156 13.5864H9.18781ZM13.6878 13.5864C13.8116 13.4214 13.7816 13.1852 13.6166 13.0614C13.4516 12.9377 13.2153 12.9677 13.0916 13.1327C12.8816 13.4102 12.5666 13.5677 12.2216 13.5677C11.8766 13.5677 11.5616 13.4102 11.3516 13.1327C11.322 13.0932 11.2849 13.0601 11.2424 13.0351C11.1999 13.0101 11.1528 12.9939 11.104 12.9872C11.0551 12.9806 11.0054 12.9837 10.9578 12.9965C10.9102 13.0092 10.8656 13.0313 10.8266 13.0614C10.6616 13.1852 10.6278 13.4214 10.7553 13.5864C11.1078 14.0514 11.6441 14.3177 12.2253 14.3177C12.8066 14.3177 13.3428 14.0514 13.6916 13.5864H13.6878ZM9.97156 18.0302C10.4891 18.0302 10.9766 17.8614 11.3028 17.5652C11.3393 17.5322 11.3688 17.4923 11.3899 17.4479C11.4109 17.4035 11.423 17.3553 11.4254 17.3062C11.4279 17.2571 11.4206 17.208 11.4041 17.1617C11.3875 17.1155 11.3621 17.0729 11.3291 17.0364C11.2961 17 11.2562 16.9704 11.2118 16.9494C11.1674 16.9283 11.1192 16.9162 11.0701 16.9138C11.021 16.9114 10.9719 16.9186 10.9256 16.9352C10.8793 16.9517 10.8368 16.9772 10.8003 17.0102C10.6128 17.1827 10.3016 17.2839 9.97156 17.2839C9.64156 17.2839 9.33031 17.1827 9.14281 17.0102C9.10637 16.9772 9.06378 16.9517 9.01749 16.9352C8.97119 16.9186 8.9221 16.9114 8.873 16.9138C8.8239 16.9162 8.77576 16.9283 8.73133 16.9494C8.6869 16.9704 8.64705 17 8.61406 17.0364C8.58106 17.0729 8.55557 17.1155 8.53903 17.1617C8.5225 17.208 8.51524 17.2571 8.51768 17.3062C8.52011 17.3553 8.5322 17.4035 8.55324 17.4479C8.57428 17.4923 8.60387 17.5322 8.64031 17.5652C8.96656 17.8614 9.45406 18.0302 9.97156 18.0302ZM16.3391 16.7964L15.7466 16.2039C15.704 16.1612 15.6535 16.1273 15.5978 16.1041C15.5422 16.081 15.4825 16.0691 15.4222 16.0691C15.3619 16.0691 15.3022 16.081 15.2465 16.1041C15.1909 16.1273 15.1403 16.1612 15.0978 16.2039L15.0528 16.2489L13.0841 15.0939C12.7653 14.9289 12.4241 15.2702 12.5853 15.5889L13.7291 17.5727L13.6841 17.6177C13.6413 17.6602 13.6074 17.7107 13.5842 17.7664C13.5611 17.8221 13.5492 17.8818 13.5492 17.9421C13.5492 18.0023 13.5611 18.062 13.5842 18.1177C13.6074 18.1734 13.6413 18.2239 13.6841 18.2664L14.2841 18.8664C14.8578 19.1027 15.5403 18.9864 16.0016 18.5214C16.2241 18.3007 16.3752 18.0183 16.4354 17.7108C16.4956 17.4032 16.462 17.0847 16.3391 16.7964ZM15.4916 18.0152C15.4203 18.0864 15.3228 18.1239 15.2291 18.1239C15.1353 18.1239 15.0378 18.0864 14.9628 18.0152L14.7903 17.8389C14.7556 17.8042 14.7281 17.763 14.7093 17.7176C14.6905 17.6723 14.6808 17.6237 14.6808 17.5746C14.6808 17.5255 14.6905 17.4768 14.7093 17.4315C14.7281 17.3861 14.7556 17.3449 14.7903 17.3102C14.825 17.2755 14.8662 17.2479 14.9116 17.2291C14.957 17.2103 15.0056 17.2007 15.0547 17.2007C15.1038 17.2007 15.1524 17.2103 15.1978 17.2291C15.2431 17.2479 15.2843 17.2755 15.3191 17.3102L15.4916 17.4827C15.6416 17.6289 15.6416 17.8689 15.4916 18.0152Z" fill="#477BFF"/>
</svg>
