<svg width="24" height="24" viewBox="0 0 24 24" fill="none" xmlns="http://www.w3.org/2000/svg">
<path d="M8.61045 21.791C8.61045 21.9063 8.63323 22.0205 8.67748 22.127C8.72173 22.2335 8.78658 22.3302 8.86831 22.4116C8.95003 22.4929 9.04703 22.5573 9.15372 22.6011C9.26041 22.6449 9.37469 22.6671 9.49001 22.6666H14.5096C14.6249 22.6672 14.7392 22.645 14.846 22.6012C14.9527 22.5575 15.0498 22.4931 15.1315 22.4117C15.2133 22.3304 15.2782 22.2336 15.3225 22.1271C15.3668 22.0206 15.3896 21.9064 15.3896 21.791V20.3733H8.61001L8.61045 21.791ZM20.5211 7.97636H3.47934C2.9949 7.97636 2.60201 8.36881 2.60201 8.85325V9.82214H21.398V8.85325C21.398 8.36881 21.0056 7.97636 20.5211 7.97636ZM2.60156 10.951C2.60156 14.951 5.10067 18.3644 8.61934 19.7168H15.3891C18.9078 18.3604 21.398 14.9466 21.398 10.951V10.479H2.60156V10.951ZM9.84378 14.1421H11.206V12.7764C11.206 12.7056 11.2341 12.6378 11.2841 12.5878C11.3341 12.5378 11.4019 12.5097 11.4727 12.5097H12.5242C12.595 12.5097 12.6628 12.5378 12.7128 12.5878C12.7628 12.6378 12.7909 12.7056 12.7909 12.7764V14.1421H14.1567C14.2274 14.1421 14.2952 14.1702 14.3452 14.2202C14.3952 14.2703 14.4233 14.3381 14.4233 14.4088V15.4568C14.4233 15.4918 14.4164 15.5265 14.403 15.5589C14.3896 15.5912 14.37 15.6206 14.3452 15.6454C14.3205 15.6701 14.2911 15.6898 14.2587 15.7032C14.2264 15.7166 14.1917 15.7235 14.1567 15.7235H12.7913V17.0897C12.7913 17.1604 12.7632 17.2282 12.7132 17.2783C12.6632 17.3283 12.5954 17.3564 12.5247 17.3564H11.4731C11.4024 17.3564 11.3346 17.3283 11.2846 17.2783C11.2345 17.2282 11.2065 17.1604 11.2065 17.0897V15.7235H9.84423C9.80921 15.7235 9.77453 15.7166 9.74218 15.7032C9.70983 15.6898 9.68043 15.6701 9.65567 15.6454C9.6309 15.6206 9.61126 15.5912 9.59786 15.5589C9.58446 15.5265 9.57756 15.4918 9.57756 15.4568V14.4088C9.57756 14.3738 9.58446 14.3391 9.59786 14.3068C9.61126 14.2744 9.6309 14.245 9.65567 14.2202C9.68043 14.1955 9.70983 14.1758 9.74218 14.1624C9.77453 14.149 9.80877 14.1421 9.84378 14.1421ZM6.5229 7.31903L5.9229 5.93592C5.88894 5.85567 5.88784 5.76531 5.91985 5.68426C5.95185 5.60322 6.01439 5.53798 6.09401 5.50258C6.1742 5.4686 6.26452 5.46744 6.34555 5.49935C6.42659 5.53127 6.49186 5.59371 6.52734 5.67325L6.80734 6.31681C6.90067 5.61547 7.13178 4.93014 7.50734 4.34747C7.55978 4.26436 7.61667 4.18125 7.66956 4.09814C6.77623 2.87681 5.45934 2.13725 4.79401 1.81814C4.74145 1.79274 4.68404 1.77897 4.62568 1.77775C4.56732 1.77654 4.50938 1.78792 4.45581 1.81112C4.40225 1.83432 4.35431 1.86879 4.31527 1.91218C4.27623 1.95558 4.24699 2.00687 4.22956 2.06258C3.69578 3.80925 3.62112 5.76081 4.55801 7.31903H6.5229ZM8.41356 7.31903L9.24912 5.64258C9.32778 5.48081 9.52912 5.41947 9.69134 5.49814C9.85312 5.57725 9.91889 5.77369 9.83578 5.94036L9.14867 7.31903H10.7065C10.8598 7.11769 10.9998 6.90303 11.1136 6.66703C11.8487 5.18347 11.5291 3.44569 11.3367 2.70214C11.3241 2.65431 11.3014 2.60976 11.2701 2.57153C11.2387 2.53331 11.1995 2.5023 11.155 2.48065C11.1106 2.459 11.062 2.44721 11.0126 2.44608C10.9631 2.44496 10.9141 2.45453 10.8687 2.47414C9.65001 2.98481 8.44867 3.87325 7.85756 5.05636C7.49001 5.80036 7.38512 6.60569 7.39801 7.31858H8.41356V7.31903ZM18.7327 5.83103C18.8291 5.71725 18.9736 5.66925 19.118 5.67325C19.4213 5.69109 19.7249 5.64411 20.0086 5.53544C20.2923 5.42678 20.5496 5.25891 20.7633 5.04303C20.9932 4.81276 21.1684 4.53383 21.2761 4.22682C21.3837 3.9198 21.4211 3.59253 21.3854 3.26915C21.3497 2.94577 21.2418 2.63453 21.0698 2.35839C20.8977 2.08226 20.6659 1.84827 20.3913 1.67369C20.0309 1.44292 19.6099 1.32467 19.182 1.33401C18.7541 1.34335 18.3387 1.47986 17.9887 1.72614C17.3322 2.18969 17.0216 2.91192 17.0607 3.61636C17.0696 3.76525 17.0171 3.90969 16.9033 4.00169L12.8856 7.31903H17.5073L18.7327 5.83103Z" fill="#477BFF"/>
</svg>
