<svg width="24" height="24" viewBox="0 0 24 24" fill="none" xmlns="http://www.w3.org/2000/svg">
<path d="M9.47657 5.4525C9.04307 5.86575 9.25269 6.19388 9.37907 6.8475C9.62267 7.96155 10.0416 9.02986 10.6203 10.0125C10.7186 7.3665 13.4283 5.50125 16.0203 5.67375H17.0141C16.6689 5.24436 16.2875 4.8454 15.8741 4.48125V1.875C15.8738 1.77564 15.8342 1.68042 15.7639 1.61016C15.6936 1.5399 15.5984 1.5003 15.4991 1.5H13.1628C13.1136 1.49995 13.0648 1.50962 13.0193 1.52844C12.9737 1.54727 12.9324 1.57489 12.8975 1.60973C12.8627 1.64456 12.8351 1.68592 12.8163 1.73144C12.7974 1.77695 12.7878 1.82574 12.7878 1.875V3.48375C12.6438 3.48111 12.4998 3.48738 12.3566 3.5025L10.8678 2.01375C10.7966 1.9439 10.7006 1.90508 10.6008 1.90579C10.501 1.90649 10.4056 1.94665 10.3353 2.0175L8.47157 3.9225C8.40217 3.993 8.36328 4.08795 8.36328 4.18688C8.36328 4.2858 8.40217 4.38075 8.47157 4.45125L9.47657 5.4525Z" fill="#477BFF"/>
<path d="M19.2636 6.42382H15.7161C13.5418 6.37282 11.3436 8.01532 11.3623 10.2188C11.3614 10.3955 11.322 10.5699 11.2469 10.7299C11.1717 10.8898 11.0627 11.0315 10.9273 11.1451L9.64483 12.2813C9.56967 12.3433 9.47339 12.3737 9.37626 12.3661C9.27912 12.3586 9.18872 12.3136 9.12408 12.2407C9.05945 12.1678 9.02562 12.0727 9.02972 11.9753C9.03383 11.878 9.07554 11.786 9.14608 11.7188L10.2186 10.7701C9.36687 9.47867 8.79344 8.02404 8.53483 6.49882C4.52233 8.35882 4.61233 11.8651 4.61608 11.9776C4.49233 13.9951 6.09358 18.2026 8.34733 20.5988C13.2718 25.8601 17.7201 18.8581 18.3561 16.7963C19.5486 14.0663 19.7136 11.4301 18.8473 8.94007H18.0523C16.2133 8.8047 14.6035 10.1108 14.7598 11.8013C14.7598 11.9008 14.7203 11.9962 14.65 12.0665C14.5797 12.1368 14.4843 12.1763 14.3848 12.1763C14.2854 12.1763 14.19 12.1368 14.1197 12.0665C14.0493 11.9962 14.0098 11.9008 14.0098 11.8013V11.5276C13.9877 9.54457 15.9748 8.0262 18.1123 8.19007C18.3617 8.18857 19.0097 8.1912 19.2636 8.19007C19.5148 8.18445 19.7496 8.00445 19.7436 7.81132V6.81007C19.7289 6.69618 19.6708 6.59237 19.5813 6.52037C19.4918 6.44838 19.378 6.41378 19.2636 6.42382ZM16.2373 15.4313C16.2546 15.385 16.2808 15.3426 16.3144 15.3064C16.348 15.2702 16.3885 15.2411 16.4334 15.2205C16.4783 15.2 16.5268 15.1885 16.5762 15.1867C16.6256 15.1849 16.6748 15.1928 16.7211 15.2101C16.7674 15.2273 16.8098 15.2535 16.846 15.2871C16.8822 15.3208 16.9114 15.3612 16.9319 15.4061C16.9524 15.451 16.9639 15.4996 16.9657 15.5489C16.9675 15.5983 16.9596 15.6475 16.9423 15.6938C16.2743 17.337 15.2703 18.8225 13.9948 20.0551C13.9221 20.1193 13.8272 20.1527 13.7302 20.1483C13.6333 20.1439 13.5418 20.102 13.4752 20.0315C13.4085 19.9609 13.3719 19.8673 13.373 19.7702C13.3741 19.6732 13.4128 19.5803 13.4811 19.5113C14.6694 18.3543 15.6075 16.9656 16.2373 15.4313Z" fill="#477BFF"/>
</svg>
