<svg width="24" height="24" viewBox="0 0 24 24" fill="none" xmlns="http://www.w3.org/2000/svg">
<g clip-path="url(#clip0_4597_74)">
<path d="M7.38169 14.4463H11.2474V12.865H8.96302V9.17435C8.96302 7.52435 7.62544 6.18681 5.97548 6.18681H4.48167C2.83167 6.18681 1.49414 7.52439 1.49414 9.17435V9.96499H7.38173V14.4463H7.38169ZM11.9505 15.8525H7.38169V18.137H10.4568V22.2947H12.7412V16.6432C12.7412 16.2072 12.3865 15.8525 11.9505 15.8525ZM12.6537 14.5623C13.5211 14.8563 14.1474 15.6777 14.1474 16.6432V16.8767H15.5537V15.4704H16.9599V16.8767H18.3662V18.2829H16.9599V19.6892H15.5537V18.2829H14.1474V22.2946H24.0003V12.865H12.6537V14.5623ZM18.0235 11.4587H22.5065V9.1743C22.5065 7.5243 21.1689 6.18677 19.519 6.18677H18.0252C16.6175 6.18677 15.4379 7.16064 15.1216 8.47117H17.65L18.0235 11.4587Z" fill="#477BFF"/>
<path d="M18.7719 6.18667C20.0094 6.18667 21.0126 5.18348 21.0126 3.94599C21.0126 2.70851 20.0094 1.70532 18.7719 1.70532C17.5344 1.70532 16.5312 2.70851 16.5312 3.94599C16.5312 5.18348 17.5344 6.18667 18.7719 6.18667Z" fill="#477BFF"/>
<path d="M5.22895 6.18667C6.46644 6.18667 7.46962 5.18348 7.46962 3.94599C7.46962 2.70851 6.46644 1.70532 5.22895 1.70532C3.99146 1.70532 2.98828 2.70851 2.98828 3.94599C2.98828 5.18348 3.99146 6.18667 5.22895 6.18667Z" fill="#477BFF"/>
<path d="M16.606 11.4587L16.4083 9.87744H12.8463L13.044 11.4587H16.606ZM5.97511 11.3712H0V22.2946H1.40625V18.137H4.56886V22.2946H5.97511V11.3712Z" fill="#477BFF"/>
</g>
<defs>
<clipPath id="clip0_4597_74">
<rect width="24" height="24" fill="white"/>
</clipPath>
</defs>
</svg>
