<svg width="50" height="50" viewBox="0 0 50 50" fill="none" xmlns="http://www.w3.org/2000/svg">
<path d="M46.0938 25.9604C42.4688 25.937 42.4531 27.4917 39.0625 27.5229C35.6719 27.4917 35.6484 25.937 32.0234 25.9604C28.3984 25.937 28.3828 27.4917 24.9922 27.5229C23.8846 27.5544 22.7866 27.3101 21.7969 26.812C20.6053 26.2239 19.2894 25.9318 17.9609 25.9604C16.6349 25.9316 15.3216 26.2238 14.1328 26.812C13.1431 27.3101 12.0451 27.5544 10.9375 27.5229C9.82746 27.5542 8.72696 27.31 7.73437 26.812C6.54562 26.2238 5.23228 25.9316 3.90625 25.9604C3.69924 25.9611 3.50088 26.0436 3.35451 26.1899C3.20813 26.3363 3.12562 26.5347 3.125 26.7417V44.9058C3.12562 45.1128 3.20813 45.3111 3.35451 45.4575C3.50088 45.6039 3.69924 45.6864 3.90625 45.687H46.0938C46.3008 45.6864 46.4991 45.6039 46.6455 45.4575C46.7919 45.3111 46.8744 45.1128 46.875 44.9058V26.7417C46.8744 26.5347 46.7919 26.3363 46.6455 26.1899C46.4991 26.0436 46.3008 25.9611 46.0938 25.9604ZM5.07812 32.0151C5.07812 31.7834 5.14685 31.5568 5.27562 31.3641C5.40439 31.1714 5.58741 31.0212 5.80154 30.9325C6.01568 30.8438 6.2513 30.8206 6.47862 30.8658C6.70594 30.911 6.91475 31.0226 7.07864 31.1865C7.24253 31.3504 7.35414 31.5592 7.39936 31.7865C7.44457 32.0138 7.42137 32.2495 7.33267 32.4636C7.24397 32.6777 7.09377 32.8607 6.90106 32.9895C6.70834 33.1183 6.48177 33.187 6.25 33.187C6.09605 33.1872 5.94357 33.157 5.8013 33.0982C5.65903 33.0394 5.52976 32.9531 5.4209 32.8442C5.31204 32.7354 5.22573 32.6061 5.16691 32.4638C5.10809 32.3216 5.07792 32.1691 5.07812 32.0151ZM5.48437 36.6714C5.48437 36.1306 5.64474 35.6019 5.9452 35.1522C6.24566 34.7026 6.67271 34.3521 7.17235 34.1451C7.67199 33.9382 8.22178 33.884 8.7522 33.9895C9.28262 34.0951 9.76984 34.3555 10.1522 34.7379C10.5347 35.1203 10.7951 35.6075 10.9006 36.1379C11.0061 36.6683 10.9519 37.2181 10.745 37.7178C10.538 38.2174 10.1876 38.6445 9.73789 38.9449C9.28822 39.2454 8.75956 39.4058 8.21875 39.4058C7.4938 39.4049 6.79878 39.1166 6.28617 38.604C5.77355 38.0913 5.4852 37.3963 5.48437 36.6714ZM10.9375 43.3354C10.7057 43.3354 10.4792 43.2667 10.2864 43.1379C10.0937 43.0092 9.94353 42.8262 9.85483 42.612C9.76613 42.3979 9.74293 42.1623 9.78814 41.9349C9.83336 41.7076 9.94497 41.4988 10.1089 41.3349C10.2727 41.171 10.4816 41.0594 10.7089 41.0142C10.9362 40.969 11.1718 40.9922 11.386 41.0809C11.6001 41.1696 11.7831 41.3198 11.9119 41.5125C12.0406 41.7052 12.1094 41.9318 12.1094 42.1636C12.1096 42.3175 12.0794 42.47 12.0206 42.6123C11.9618 42.7545 11.8755 42.8838 11.7666 42.9927C11.6577 43.1015 11.5285 43.1878 11.3862 43.2467C11.2439 43.3055 11.0915 43.3356 10.9375 43.3354ZM13.1953 34.7026C12.9635 34.7026 12.737 34.6339 12.5443 34.5051C12.3515 34.3764 12.2013 34.1933 12.1126 33.9792C12.0239 33.7651 12.0007 33.5295 12.046 33.3021C12.0912 33.0748 12.2028 32.866 12.3667 32.7021C12.5306 32.5382 12.7394 32.4266 12.9667 32.3814C13.194 32.3362 13.4296 32.3594 13.6438 32.4481C13.8579 32.5368 14.0409 32.687 14.1697 32.8797C14.2985 33.0724 14.3672 33.299 14.3672 33.5308C14.3664 33.8413 14.2426 34.1389 14.023 34.3585C13.8035 34.5781 13.5059 34.7018 13.1953 34.7026ZM17.1875 44.1245C16.6467 44.1245 16.118 43.9641 15.6684 43.6637C15.2187 43.3632 14.8682 42.9362 14.6613 42.4365C14.4543 41.9369 14.4002 41.3871 14.5057 40.8567C14.6112 40.3263 14.8716 39.839 15.254 39.4566C15.6364 39.0742 16.1236 38.8138 16.6541 38.7083C17.1845 38.6028 17.7343 38.6569 18.2339 38.8639C18.7335 39.0709 19.1606 39.4213 19.461 39.871C19.7615 40.3207 19.9219 40.8493 19.9219 41.3901C19.921 42.1151 19.6327 42.8101 19.1201 43.3227C18.6075 43.8353 17.9124 44.1237 17.1875 44.1245ZM19.5312 36.9995C18.9904 36.9995 18.4618 36.8391 18.0121 36.5387C17.5624 36.2382 17.212 35.8112 17.005 35.3115C16.7981 34.8119 16.7439 34.2621 16.8494 33.7317C16.9549 33.2013 17.2153 32.714 17.5978 32.3316C17.9802 31.9492 18.4674 31.6888 18.9978 31.5833C19.5282 31.4778 20.078 31.5319 20.5776 31.7389C21.0773 31.9459 21.5043 32.2963 21.8048 32.746C22.1053 33.1957 22.2656 33.7243 22.2656 34.2651C22.2636 34.9897 21.9748 35.684 21.4625 36.1963C20.9501 36.7087 20.2558 36.9974 19.5312 36.9995ZM27.5078 41.4839L25.5547 43.437C25.4826 43.5112 25.3964 43.5702 25.3011 43.6104C25.2058 43.6507 25.1034 43.6714 25 43.6714C24.8966 43.6714 24.7942 43.6507 24.6989 43.6104C24.6036 43.5702 24.5174 43.5112 24.4453 43.437L22.4922 41.4839C22.4198 41.4116 22.3623 41.3258 22.3231 41.2312C22.2839 41.1367 22.2637 41.0354 22.2637 40.9331C22.2637 40.8308 22.2839 40.7295 22.3231 40.635C22.3623 40.5404 22.4198 40.4546 22.4922 40.3823C22.6397 40.2359 22.8391 40.1538 23.0469 40.1538C23.2547 40.1538 23.4541 40.2359 23.6016 40.3823L24.2188 40.9995V31.4292C24.2188 31.222 24.3011 31.0233 24.4476 30.8768C24.5941 30.7303 24.7928 30.6479 25 30.6479C25.2072 30.6479 25.4059 30.7303 25.5524 30.8768C25.6989 31.0233 25.7812 31.222 25.7812 31.4292V40.9995L26.3984 40.3823C26.5459 40.2359 26.7453 40.1538 26.9531 40.1538C27.1609 40.1538 27.3603 40.2359 27.5078 40.3823C27.5802 40.4546 27.6377 40.5404 27.6769 40.635C27.7161 40.7295 27.7363 40.8308 27.7363 40.9331C27.7363 41.0354 27.7161 41.1367 27.6769 41.2312C27.6377 41.3258 27.5802 41.4116 27.5078 41.4839ZM27.7344 34.2651C27.7344 33.7243 27.8947 33.1957 28.1952 32.746C28.4957 32.2963 28.9227 31.9459 29.4223 31.7389C29.922 31.5319 30.4718 31.4778 31.0022 31.5833C31.5326 31.6888 32.0198 31.9492 32.4022 32.3316C32.7847 32.714 33.0451 33.2013 33.1506 33.7317C33.2561 34.2621 33.2019 34.8119 32.995 35.3115C32.788 35.8112 32.4376 36.2382 31.9879 36.5387C31.5382 36.8391 31.0096 36.9995 30.4688 36.9995C29.7438 36.9987 29.0488 36.7103 28.5362 36.1977C28.0236 35.6851 27.7352 34.9901 27.7344 34.2651ZM32.8125 44.1245C32.2717 44.1245 31.743 43.9641 31.2934 43.6637C30.8437 43.3632 30.4932 42.9362 30.2863 42.4365C30.0793 41.9369 30.0252 41.3871 30.1307 40.8567C30.2362 40.3263 30.4966 39.839 30.879 39.4566C31.2614 39.0742 31.7486 38.8138 32.2791 38.7083C32.8095 38.6028 33.3593 38.6569 33.8589 38.8639C34.3585 39.0709 34.7856 39.4213 35.0861 39.871C35.3865 40.3207 35.5469 40.8493 35.5469 41.3901C35.546 42.1151 35.2577 42.8101 34.7451 43.3227C34.2325 43.8353 33.5374 44.1237 32.8125 44.1245ZM36.7031 34.7026C36.4713 34.7026 36.2448 34.6339 36.0521 34.5051C35.8594 34.3764 35.7092 34.1933 35.6205 33.9792C35.5318 33.7651 35.5086 33.5295 35.5538 33.3021C35.599 33.0748 35.7106 32.866 35.8745 32.7021C36.0384 32.5382 36.2472 32.4266 36.4745 32.3814C36.7018 32.3362 36.9374 32.3594 37.1516 32.4481C37.3657 32.5368 37.5487 32.687 37.6775 32.8797C37.8063 33.0724 37.875 33.299 37.875 33.5308C37.8742 33.8413 37.7504 34.1389 37.5309 34.3585C37.3113 34.5781 37.0137 34.7018 36.7031 34.7026ZM39.0625 43.3433C38.8307 43.3433 38.6042 43.2745 38.4114 43.1458C38.2187 43.017 38.0685 42.834 37.9798 42.6198C37.8911 42.4057 37.8679 42.1701 37.9131 41.9428C37.9584 41.7154 38.07 41.5066 38.2339 41.3427C38.3977 41.1788 38.6066 41.0672 38.8339 41.022C39.0612 40.9768 39.2968 41 39.511 41.0887C39.7251 41.1774 39.9081 41.3276 40.0369 41.5203C40.1656 41.713 40.2344 41.9396 40.2344 42.1714C40.2346 42.3253 40.2044 42.4778 40.1456 42.6201C40.0868 42.7624 40.0005 42.8916 39.8916 43.0005C39.7827 43.1093 39.6535 43.1957 39.5112 43.2545C39.3689 43.3133 39.2165 43.3435 39.0625 43.3433ZM41.7812 39.4058C41.2404 39.4058 40.7118 39.2454 40.2621 38.9449C39.8124 38.6445 39.462 38.2174 39.255 37.7178C39.0481 37.2181 38.9939 36.6683 39.0994 36.1379C39.2049 35.6075 39.4653 35.1203 39.8478 34.7379C40.2302 34.3555 40.7174 34.0951 41.2478 33.9895C41.7782 33.884 42.328 33.9382 42.8277 34.1451C43.3273 34.3521 43.7543 34.7026 44.0548 35.1522C44.3553 35.6019 44.5156 36.1306 44.5156 36.6714C44.5148 37.3963 44.2264 38.0913 43.7138 38.604C43.2012 39.1166 42.5062 39.4049 41.7812 39.4058ZM43.7344 33.187C43.5026 33.187 43.276 33.1183 43.0833 32.9895C42.8906 32.8607 42.7404 32.6777 42.6517 32.4636C42.563 32.2495 42.5398 32.0138 42.585 31.7865C42.6302 31.5592 42.7418 31.3504 42.9057 31.1865C43.0696 31.0226 43.2784 30.911 43.5058 30.8658C43.7331 30.8206 43.9687 30.8438 44.1828 30.9325C44.397 31.0212 44.58 31.1714 44.7088 31.3641C44.8375 31.5568 44.9062 31.7834 44.9062 32.0151C44.9054 32.3257 44.7817 32.6233 44.5621 32.8429C44.3425 33.0624 44.0449 33.1862 43.7344 33.187Z" fill="#477BFF"/>
<path d="M41.7812 37.8433C42.4285 37.8433 42.9531 37.3186 42.9531 36.6714C42.9531 36.0242 42.4285 35.4995 41.7812 35.4995C41.134 35.4995 40.6094 36.0242 40.6094 36.6714C40.6094 37.3186 41.134 37.8433 41.7812 37.8433Z" fill="#477BFF"/>
<path d="M32.8125 42.562C33.4597 42.562 33.9844 42.0373 33.9844 41.3901C33.9844 40.7429 33.4597 40.2183 32.8125 40.2183C32.1653 40.2183 31.6406 40.7429 31.6406 41.3901C31.6406 42.0373 32.1653 42.562 32.8125 42.562Z" fill="#477BFF"/>
<path d="M30.4688 35.437C31.116 35.437 31.6406 34.9123 31.6406 34.2651C31.6406 33.6179 31.116 33.0933 30.4688 33.0933C29.8215 33.0933 29.2969 33.6179 29.2969 34.2651C29.2969 34.9123 29.8215 35.437 30.4688 35.437Z" fill="#477BFF"/>
<path d="M17.1875 42.562C17.8347 42.562 18.3594 42.0373 18.3594 41.3901C18.3594 40.7429 17.8347 40.2183 17.1875 40.2183C16.5403 40.2183 16.0156 40.7429 16.0156 41.3901C16.0156 42.0373 16.5403 42.562 17.1875 42.562Z" fill="#477BFF"/>
<path d="M19.5312 35.437C20.1785 35.437 20.7031 34.9123 20.7031 34.2651C20.7031 33.6179 20.1785 33.0933 19.5312 33.0933C18.884 33.0933 18.3594 33.6179 18.3594 34.2651C18.3594 34.9123 18.884 35.437 19.5312 35.437Z" fill="#477BFF"/>
<path d="M8.21875 37.8433C8.86596 37.8433 9.39062 37.3186 9.39062 36.6714C9.39062 36.0242 8.86596 35.4995 8.21875 35.4995C7.57154 35.4995 7.04688 36.0242 7.04688 36.6714C7.04688 37.3186 7.57154 37.8433 8.21875 37.8433Z" fill="#477BFF"/>
<path d="M3.90625 22.0542H18.0094C18.8894 23.0373 19.9668 23.8238 21.1714 24.3622C22.376 24.9006 23.6806 25.1789 25 25.1789C26.3194 25.1789 27.624 24.9006 28.8286 24.3622C30.0332 23.8238 31.1106 23.0373 31.9906 22.0542H46.0938C46.301 22.0542 46.4997 21.9719 46.6462 21.8254C46.7927 21.6789 46.875 21.4801 46.875 21.2729C46.875 21.0657 46.7927 20.867 46.6462 20.7205C46.4997 20.574 46.301 20.4917 46.0938 20.4917H31.6328C31.5179 20.4918 31.4045 20.5171 31.3005 20.566C31.1965 20.6149 31.1046 20.6861 31.0313 20.7745C30.2975 21.6635 29.3764 22.3792 28.3337 22.8706C27.291 23.3619 26.1526 23.6167 25 23.6167C23.8474 23.6167 22.709 23.3619 21.6663 22.8706C20.6236 22.3792 19.7025 21.6635 18.9688 20.7745C18.8954 20.6861 18.8035 20.6149 18.6995 20.566C18.5955 20.5171 18.4821 20.4918 18.3672 20.4917H3.90625C3.69905 20.4917 3.50034 20.574 3.35382 20.7205C3.20731 20.867 3.125 21.0657 3.125 21.2729C3.125 21.4801 3.20731 21.6789 3.35382 21.8254C3.50034 21.9719 3.69905 22.0542 3.90625 22.0542Z" fill="#477BFF"/>
<path d="M25 22.054C26.657 22.0519 28.2455 21.3928 29.4171 20.2211C30.5888 19.0495 31.2479 17.4609 31.25 15.804C31.25 12.6243 26.2109 5.42898 25.6406 4.62429C25.5642 4.52755 25.4669 4.44938 25.3559 4.39563C25.245 4.34188 25.1233 4.31396 25 4.31396C24.8767 4.31396 24.755 4.34188 24.6441 4.39563C24.5331 4.44938 24.4358 4.52755 24.3594 4.62429C23.7891 5.42898 18.75 12.6243 18.75 15.804C18.7521 17.4609 19.4112 19.0495 20.5829 20.2211C21.7545 21.3928 23.343 22.0519 25 22.054Z" fill="#477BFF"/>
</svg>
