<svg width="24" height="24" viewBox="0 0 24 24" fill="none" xmlns="http://www.w3.org/2000/svg">
<g clip-path="url(#clip0_4597_106)">
<path d="M18.3748 14.6455V12H23.2969C23.6855 12 24 11.6855 24 11.2968C24 10.9082 23.6855 10.5937 23.2969 10.5937H21.1874V9.89053C21.1874 9.50187 20.8729 9.18737 20.4843 9.18737C20.0956 9.18737 19.7811 9.50187 19.7811 9.89053V10.5937H18.3748V3.44128C18.3748 1.95739 17.1669 0.749512 15.683 0.749512C14.9641 0.749512 14.2877 1.0297 13.7796 1.5378L12.5734 2.74394C11.2228 1.88051 9.31192 2.02705 8.15434 3.1858C7.87969 3.46046 7.87969 3.90546 8.15434 4.18011L12.1316 8.15735C12.2689 8.2947 12.4488 8.36337 12.6287 8.36337C12.8086 8.36337 12.9885 8.2947 13.1258 8.15735C13.7898 7.49404 14.1559 6.61097 14.1559 5.6716C14.1559 4.97126 13.9514 4.30321 13.5728 3.73319L14.7739 2.5321C15.0129 2.29312 15.3445 2.15582 15.6831 2.15582C16.3917 2.15582 16.9685 2.73264 16.9685 3.44128V13.4315C16.9261 13.4235 16.886 13.4064 16.8422 13.4064H12.7496V12H14.8591C15.2477 12 15.5622 11.6855 15.5622 11.2969C15.5622 10.9082 15.2477 10.5937 14.8591 10.5937H10.6401C10.2515 10.5937 9.93698 10.9082 9.93698 11.2969C9.93698 11.6855 10.2515 12 10.6401 12H11.3433V13.4064H10.1032L7.38391 10.6748C7.31868 10.6091 7.24112 10.557 7.15568 10.5214C7.07025 10.4858 6.97863 10.4675 6.88608 10.4674H6.88538C6.79304 10.4674 6.70161 10.4856 6.6163 10.5209C6.531 10.5563 6.4535 10.6081 6.38825 10.6734L5.88699 11.1747L4.894 10.1817L5.39113 9.68455C5.66578 9.4099 5.66578 8.9649 5.39113 8.69024L3.59991 6.89903C2.77726 6.07638 1.43963 6.07638 0.616984 6.89903C-0.205661 7.72167 -0.205661 9.05931 0.616984 9.88195L2.4082 11.6732C2.54555 11.8105 2.72546 11.8792 2.90533 11.8792C3.0852 11.8792 3.26516 11.8105 3.40246 11.6732L3.89959 11.176L4.89254 12.169L4.39129 12.6702C4.25947 12.8021 4.18526 12.9813 4.18526 13.1681C4.18526 13.3548 4.26012 13.5334 4.39194 13.6652L8.16043 17.42C8.22564 17.4851 8.30305 17.5368 8.38824 17.572C8.47343 17.6073 8.56472 17.6253 8.65691 17.6253H15.3966L20.3813 22.6228C20.7802 23.0218 21.3302 23.2505 21.8906 23.2505C23.0538 23.2505 24 22.3042 24 21.141C24 20.5807 23.7714 20.0306 23.3717 19.631L18.3748 14.6455Z" fill="#477BFF"/>
<path d="M16.266 21.8441H14.1566V19.0315H9.93762V21.8441H7.82816C7.4395 21.8441 7.125 22.1586 7.125 22.5473C7.125 22.9359 7.4395 23.2504 7.82816 23.2504H16.266C16.6547 23.2504 16.9692 22.9359 16.9692 22.5473C16.9692 22.1586 16.6547 21.8441 16.266 21.8441Z" fill="#477BFF"/>
</g>
<defs>
<clipPath id="clip0_4597_106">
<rect width="24" height="24" fill="white"/>
</clipPath>
</defs>
</svg>
