<svg width="24" height="24" viewBox="0 0 24 24" fill="none" xmlns="http://www.w3.org/2000/svg">
<path d="M2.83789 13.5451C3.48402 13.1967 4.35589 13.7802 4.94539 14.0101C5.01606 14.0401 5.09214 14.0552 5.16891 14.0546C5.24568 14.0539 5.32149 14.0375 5.39164 14.0063C6.00364 13.7412 6.80539 13.2001 7.47289 13.6088L8.24914 14.0213C8.32841 14.0632 8.41683 14.0848 8.50649 14.0841C8.59615 14.0835 8.68424 14.0606 8.76289 14.0176C8.76739 14.0213 9.28039 13.7326 9.28414 13.7326C9.28414 13.7326 9.92914 13.3763 9.95539 13.3688C9.80859 12.9572 9.53805 12.6011 9.18088 12.3493C8.8237 12.0976 8.39738 11.9625 7.96039 11.9626C6.38014 11.9596 3.51289 11.9648 1.90039 11.9626C1.8511 11.9624 1.80227 11.972 1.75671 11.9908C1.71115 12.0096 1.66975 12.0372 1.6349 12.0721C1.60004 12.1069 1.57243 12.1483 1.55363 12.1939C1.53484 12.2394 1.52524 12.2883 1.52539 12.3376V14.1038C1.85352 13.9662 2.51614 13.6816 2.83789 13.5451ZM21.1566 14.4151C20.8776 14.3108 20.4989 14.0888 20.2041 14.2313C19.5633 14.4608 18.6741 15.0432 17.9804 14.6926L16.9866 14.2613C16.9002 14.2247 16.807 14.2071 16.7131 14.2097C16.6193 14.2123 16.5272 14.235 16.4429 14.2763L15.6104 14.6888C15.4127 14.7853 15.1953 14.8346 14.9753 14.8326C14.7553 14.8307 14.5388 14.7776 14.3429 14.6776L13.4016 14.1901C13.387 14.4679 13.9409 16.3298 14.0054 16.6351C14.3204 17.6693 13.7943 18.7699 12.6254 18.7276C11.9509 18.7272 11.304 18.4593 10.8267 17.9827C10.3494 17.5061 10.0805 16.8596 10.0791 16.1851V14.1488L9.32914 14.5613C9.12484 14.7117 8.88302 14.8028 8.63029 14.8246C8.37756 14.8465 8.12371 14.7982 7.89664 14.6851L7.12039 14.2726C7.04666 14.2341 6.96521 14.2128 6.88211 14.2102C6.799 14.2076 6.71638 14.2238 6.64039 14.2576L5.70664 14.6888C5.05114 15.0533 4.18189 14.4634 3.58414 14.2313C3.34039 14.1068 3.05989 14.2658 2.83789 14.3588C2.54352 14.4844 1.56664 14.8913 1.52539 14.8913V20.8763C1.52549 21.287 1.68869 21.6809 1.97912 21.9713C2.26955 22.2618 2.66342 22.425 3.07414 22.4251H20.9204C21.3311 22.425 21.725 22.2618 22.0154 21.9713C22.3058 21.6809 22.469 21.287 22.4691 20.8763V14.8913C22.4099 14.9026 21.4424 14.5276 21.1566 14.4151ZM15.3291 20.3963C15.3291 20.5316 15.2754 20.6613 15.1798 20.7569C15.0841 20.8526 14.9544 20.9063 14.8191 20.9063C14.6839 20.9063 14.5542 20.8526 14.4585 20.7569C14.3629 20.6613 14.3091 20.5316 14.3091 20.3963C14.3091 20.2611 14.3629 20.1313 14.4585 20.0357C14.5542 19.94 14.6839 19.8863 14.8191 19.8863C14.9544 19.8863 15.0841 19.94 15.1798 20.0357C15.2754 20.1313 15.3291 20.2611 15.3291 20.3963ZM9.34789 19.7663C9.48315 19.7663 9.61287 19.82 9.70852 19.9157C9.80416 20.0113 9.85789 20.1411 9.85789 20.2763C9.85789 20.4116 9.80416 20.5413 9.70852 20.6369C9.61287 20.7326 9.48315 20.7863 9.34789 20.7863C9.21263 20.7863 9.08291 20.7326 8.98727 20.6369C8.89162 20.5413 8.83789 20.4116 8.83789 20.2763C8.83789 20.1411 8.89162 20.0113 8.98727 19.9157C9.08291 19.82 9.21263 19.7663 9.34789 19.7663ZM20.2154 15.7838C20.3507 15.7838 20.4804 15.8375 20.576 15.9332C20.6717 16.0288 20.7254 16.1586 20.7254 16.2938C20.7254 16.4291 20.6717 16.5588 20.576 16.6544C20.4804 16.7501 20.3507 16.8038 20.2154 16.8038C20.0801 16.8038 19.9504 16.7501 19.8548 16.6544C19.7591 16.5588 19.7054 16.4291 19.7054 16.2938C19.7054 16.1586 19.7591 16.0288 19.8548 15.9332C19.9504 15.8375 20.0801 15.7838 20.2154 15.7838ZM19.7054 19.7663C19.8407 19.7663 19.9704 19.82 20.066 19.9157C20.1617 20.0113 20.2154 20.1411 20.2154 20.2763C20.2154 20.4116 20.1617 20.5413 20.066 20.6369C19.9704 20.7326 19.8407 20.7863 19.7054 20.7863C19.5701 20.7863 19.4404 20.7326 19.3448 20.6369C19.2491 20.5413 19.1954 20.4116 19.1954 20.2763C19.1954 20.1411 19.2491 20.0113 19.3448 19.9157C19.4404 19.82 19.5701 19.7663 19.7054 19.7663ZM17.3879 15.5363C17.5232 15.5363 17.6529 15.59 17.7485 15.6857C17.8442 15.7813 17.8979 15.9111 17.8979 16.0463C17.8979 16.1816 17.8442 16.3113 17.7485 16.4069C17.6529 16.5026 17.5232 16.5563 17.3879 16.5563C17.2526 16.5563 17.1229 16.5026 17.0273 16.4069C16.9316 16.3113 16.8779 16.1816 16.8779 16.0463C16.8779 15.9111 16.9316 15.7813 17.0273 15.6857C17.1229 15.59 17.2526 15.5363 17.3879 15.5363ZM17.2529 18.1126C17.3882 18.1126 17.5179 18.1663 17.6135 18.2619C17.7092 18.3576 17.7629 18.4873 17.7629 18.6226C17.7629 18.7578 17.7092 18.8875 17.6135 18.9832C17.5179 19.0788 17.3882 19.1326 17.2529 19.1326C17.1176 19.1326 16.9879 19.0788 16.8923 18.9832C16.7966 18.8875 16.7429 18.7578 16.7429 18.6226C16.7429 18.4873 16.7966 18.3576 16.8923 18.2619C16.9879 18.1663 17.1176 18.1126 17.2529 18.1126ZM7.16914 19.3463C7.03388 19.3463 6.90416 19.2926 6.80852 19.1969C6.71287 19.1013 6.65914 18.9716 6.65914 18.8363C6.65914 18.7011 6.71287 18.5713 6.80852 18.4757C6.90416 18.38 7.03388 18.3263 7.16914 18.3263C7.3044 18.3263 7.43412 18.38 7.52977 18.4757C7.62541 18.5713 7.67914 18.7011 7.67914 18.8363C7.67914 18.9716 7.62541 19.1013 7.52977 19.1969C7.43412 19.2926 7.3044 19.3463 7.16914 19.3463ZM7.03039 15.9113C7.16565 15.9113 7.29537 15.965 7.39102 16.0607C7.48666 16.1563 7.54039 16.2861 7.54039 16.4213C7.54039 16.5566 7.48666 16.6863 7.39102 16.7819C7.29537 16.8776 7.16565 16.9313 7.03039 16.9313C6.89513 16.9313 6.76541 16.8776 6.66977 16.7819C6.57412 16.6863 6.52039 16.5566 6.52039 16.4213C6.52039 16.2861 6.57412 16.1563 6.66977 16.0607C6.76541 15.965 6.89513 15.9113 7.03039 15.9113ZM4.12039 16.1738C4.25565 16.1738 4.38537 16.2275 4.48102 16.3232C4.57666 16.4188 4.63039 16.5486 4.63039 16.6838C4.63039 16.8191 4.57666 16.9488 4.48102 17.0444C4.38537 17.1401 4.25565 17.1938 4.12039 17.1938C3.98513 17.1938 3.85541 17.1401 3.75977 17.0444C3.66412 16.9488 3.61039 16.8191 3.61039 16.6838C3.61039 16.5486 3.66412 16.4188 3.75977 16.3232C3.85541 16.2275 3.98513 16.1738 4.12039 16.1738ZM4.12039 19.7663C4.25565 19.7663 4.38537 19.82 4.48102 19.9157C4.57666 20.0113 4.63039 20.1411 4.63039 20.2763C4.63039 20.4116 4.57666 20.5413 4.48102 20.6369C4.38537 20.7326 4.25565 20.7863 4.12039 20.7863C3.98513 20.7863 3.85541 20.7326 3.75977 20.6369C3.66412 20.5413 3.61039 20.4116 3.61039 20.2763C3.61039 20.1411 3.66412 20.0113 3.75977 19.9157C3.85541 19.82 3.98513 19.7663 4.12039 19.7663ZM22.0941 11.9626C21.55 11.9611 16.0964 11.9637 15.7866 11.9626C15.2953 11.9093 14.8005 12.0257 14.3844 12.2924C13.9683 12.5591 13.6559 12.9601 13.4991 13.4288C13.7373 13.5149 13.9671 13.6229 14.1854 13.7513L14.6879 14.0138C14.6963 14.0182 14.7051 14.022 14.7141 14.0251C14.8013 14.0656 14.8964 14.0859 14.9925 14.0846C15.0886 14.0833 15.1831 14.0604 15.2691 14.0176L16.1016 13.6088C16.2838 13.5167 16.484 13.4655 16.6881 13.4591C16.8922 13.4526 17.0952 13.4909 17.2829 13.5713L18.2766 14.0026C18.4385 14.0694 18.62 14.0707 18.7829 14.0063L19.9154 13.5413C20.1151 13.4631 20.3292 13.4287 20.5433 13.4403C20.7575 13.452 20.9666 13.5094 21.1566 13.6088C21.4765 13.7359 22.1463 14.0052 22.4691 14.1338V12.3376C22.4696 12.2882 22.4603 12.2392 22.4416 12.1935C22.423 12.1477 22.3953 12.1062 22.3604 12.0713C22.3255 12.0364 22.284 12.0088 22.2382 11.9901C22.1925 11.9714 22.1435 11.9621 22.0941 11.9626Z" fill="#477BFF"/>
<path d="M11.8832 18.2588C12.1819 18.3533 12.5042 18.3406 12.7944 18.2228C13.0847 18.1051 13.3248 17.8897 13.4732 17.6138C14.2832 16.3935 12.937 14.8838 12.9407 13.68C12.7626 11.2988 13.0592 7.62043 16.762 2.1638C16.8106 2.0905 16.8321 2.00245 16.8225 1.91497C16.813 1.82749 16.7731 1.74613 16.7098 1.68503C16.6465 1.62394 16.5637 1.58698 16.476 1.58058C16.3882 1.57419 16.301 1.59877 16.2295 1.65005C16.1788 1.68605 11.0646 5.61567 10.5707 13.4775C10.5212 14.273 10.5187 15.0706 10.5632 15.8663C10.5482 16.1138 10.507 17.7825 11.8832 18.2588ZM17.7707 11.4C17.6657 10.1112 18.2582 7.55443 20.782 4.56755C20.8062 4.50151 20.8113 4.42996 20.7968 4.36113C20.7822 4.2923 20.7485 4.22898 20.6995 4.17846C20.6505 4.12793 20.5883 4.09224 20.52 4.0755C20.4517 4.05875 20.38 4.06163 20.3132 4.0838C19.0645 4.88859 18.013 5.96411 17.2366 7.23062C16.4602 8.49714 15.9789 9.92216 15.8282 11.4C15.8282 11.4 17.5007 11.4008 17.7707 11.4ZM7.4132 11.4C7.3607 10.0913 7.7657 7.7513 10.342 4.6988C10.405 4.62956 10.44 4.53938 10.4403 4.44576C10.4405 4.35214 10.406 4.26175 10.3434 4.19214C10.2808 4.12253 10.1946 4.07866 10.1015 4.06903C10.0083 4.05941 9.91497 4.08472 9.83945 4.14005C8.63045 4.96319 7.61396 6.0383 6.85984 7.29151C6.10571 8.54472 5.63181 9.94633 5.4707 11.4C5.75233 11.3895 7.4132 11.4 7.4132 11.4Z" fill="#477BFF"/>
</svg>
