<svg width="24" height="24" viewBox="0 0 24 24" fill="none" xmlns="http://www.w3.org/2000/svg">
<path d="M11.3048 5.57019H10.959C10.9295 5.57019 10.9037 5.57747 10.8779 5.59565C10.8524 5.61056 10.8263 5.6291 10.8044 5.64365L9.84772 6.40183C9.8341 6.40986 9.82263 6.42107 9.81427 6.43449C9.80591 6.44791 9.80092 6.46315 9.79972 6.47892C9.79608 6.51201 9.80336 6.54147 9.82554 6.56728L10.0317 6.82837C10.0535 6.85419 10.083 6.8691 10.1124 6.87637C10.1455 6.88001 10.1714 6.87274 10.2008 6.85092L10.8263 6.3611V8.54292C10.8263 8.57274 10.8372 8.60219 10.863 8.62401C10.8852 8.64983 10.9146 8.66074 10.9441 8.66074H11.3048C11.3339 8.66074 11.3637 8.64983 11.3855 8.62437C11.3973 8.6144 11.4066 8.60196 11.413 8.58794C11.4193 8.57392 11.4225 8.55867 11.4223 8.54328V5.68801C11.4223 5.65856 11.4114 5.6291 11.3859 5.60692C11.3759 5.5952 11.3635 5.58583 11.3495 5.57948C11.3354 5.57313 11.3202 5.56996 11.3048 5.57019ZM11.5695 3.32947H10.547C10.5107 3.32913 10.4747 3.33602 10.4411 3.34975C10.4074 3.36348 10.3769 3.38376 10.3512 3.40942C10.3255 3.43508 10.3052 3.4656 10.2914 3.49919C10.2776 3.53279 10.2707 3.56879 10.271 3.6051C10.271 3.75601 10.3924 3.88147 10.5474 3.88147H11.5699C11.6431 3.88147 11.7133 3.85239 11.7651 3.80063C11.8168 3.74887 11.8459 3.67867 11.8459 3.60547C11.8459 3.53227 11.8168 3.46206 11.7651 3.4103C11.7133 3.35854 11.6427 3.32947 11.5695 3.32947ZM12.9459 3.8811H13.9688C14.005 3.8811 14.0409 3.87396 14.0744 3.86009C14.1078 3.84621 14.1382 3.82587 14.1638 3.80024C14.1894 3.77461 14.2097 3.74418 14.2236 3.71069C14.2374 3.67721 14.2445 3.64133 14.2444 3.6051C14.2447 3.56882 14.2378 3.53285 14.2241 3.49928C14.2103 3.4657 14.19 3.4352 14.1644 3.40955C14.1387 3.3839 14.1082 3.3636 14.0746 3.34985C14.0411 3.33611 14.0051 3.32917 13.9688 3.32947H12.9459C12.8727 3.32947 12.8026 3.35852 12.7509 3.41025C12.6991 3.46198 12.6701 3.53213 12.6701 3.60528C12.6701 3.67844 12.6991 3.74859 12.7509 3.80032C12.8026 3.85204 12.8727 3.8811 12.9459 3.8811ZM14.0754 8.36292C14.1674 8.25601 14.2335 8.12728 14.2779 7.98401C14.3179 7.83674 14.3441 7.67856 14.355 7.5091C14.3586 7.45419 14.3586 7.39128 14.3586 7.32147V6.90947C14.3586 6.83965 14.3586 6.7771 14.355 6.72183C14.3441 6.55237 14.3183 6.39456 14.2779 6.24728C14.2374 6.10818 14.1684 5.97902 14.0754 5.86801C13.9757 5.75664 13.8507 5.67084 13.711 5.61783C13.5641 5.55528 13.3801 5.52583 13.1666 5.52583C12.9495 5.52583 12.7655 5.55892 12.6183 5.62147C12.4796 5.6782 12.3561 5.76647 12.2575 5.87928C12.1646 5.9929 12.0958 6.12431 12.0554 6.26547C12.0135 6.42197 11.9876 6.5823 11.9779 6.74401C11.9743 6.85783 11.9706 6.98292 11.9706 7.12656C11.9706 7.27019 11.9743 7.39528 11.9779 7.5091C11.9888 7.67856 12.015 7.83637 12.0554 7.98401C12.0994 8.12728 12.1655 8.25601 12.2575 8.36292C12.3535 8.46947 12.471 8.55419 12.6183 8.6131C12.7655 8.67565 12.9492 8.7051 13.1666 8.7051C13.3801 8.7051 13.5641 8.67565 13.711 8.6131C13.8507 8.56009 13.9757 8.47429 14.0754 8.36292ZM13.1663 8.1531C12.9604 8.1531 12.8135 8.09419 12.7288 7.98001C12.6404 7.86256 12.5888 7.69674 12.5743 7.48728C12.5706 7.3731 12.567 7.25165 12.567 7.11565C12.567 6.97965 12.5706 6.85783 12.5743 6.74401C12.5888 6.53419 12.6404 6.36874 12.7288 6.25092C12.8132 6.13674 12.9604 6.07783 13.1666 6.07783C13.3724 6.07783 13.5197 6.13674 13.6044 6.25092C13.6928 6.36874 13.7441 6.53419 13.759 6.74401C13.7626 6.85783 13.7663 6.97928 13.7663 7.11565C13.7663 7.25201 13.7626 7.3731 13.759 7.48728C13.7444 7.69674 13.6928 7.86256 13.6044 7.98001C13.5197 8.09419 13.3721 8.1531 13.1663 8.1531ZM16.3714 10.3276H13.5088C13.4356 10.3276 13.3654 10.3567 13.3136 10.4085C13.2619 10.4602 13.2328 10.5304 13.2328 10.6036C13.2328 10.6768 13.2619 10.747 13.3136 10.7988C13.3654 10.8506 13.4356 10.8796 13.5088 10.8796H16.3714C16.4446 10.8796 16.5148 10.8506 16.5665 10.7988C16.6183 10.747 16.6474 10.6768 16.6474 10.6036C16.6474 10.5304 16.6183 10.4602 16.5665 10.4085C16.5148 10.3567 16.4446 10.3276 16.3714 10.3276ZM15.3484 3.8811H16.3714C16.4446 3.8811 16.5148 3.85202 16.5665 3.80026C16.6183 3.7485 16.6474 3.6783 16.6474 3.6051C16.6474 3.5319 16.6183 3.4617 16.5665 3.40994C16.5148 3.35818 16.4446 3.3291 16.3714 3.3291H15.3484C15.2752 3.3291 15.205 3.35818 15.1533 3.40994C15.1015 3.4617 15.0724 3.5319 15.0724 3.6051C15.0724 3.6783 15.1015 3.7485 15.1533 3.80026C15.205 3.85202 15.2752 3.8811 15.3484 3.8811ZM16.787 6.88365C16.6793 6.79381 16.5541 6.72742 16.4194 6.68874C16.2715 6.6436 16.1176 6.62128 15.963 6.62256C15.9114 6.62256 15.8488 6.62256 15.7681 6.62983C15.687 6.63763 15.6076 6.65749 15.5324 6.68874L15.5804 6.12219H16.8241C16.8532 6.12219 16.883 6.11128 16.9048 6.0851C16.9165 6.07517 16.9258 6.06279 16.9322 6.04883C16.9385 6.03488 16.9417 6.0197 16.9415 6.00437V5.68801C16.9415 5.65856 16.9306 5.6291 16.9052 5.60692C16.8952 5.5952 16.8828 5.58583 16.8687 5.57948C16.8547 5.57313 16.8395 5.56996 16.8241 5.57019H15.1608C15.1317 5.57019 15.1019 5.5811 15.0797 5.60692C15.0681 5.61693 15.0588 5.62938 15.0525 5.6434C15.0462 5.65742 15.0431 5.67265 15.0434 5.68801L14.9106 7.18547C14.9106 7.21819 14.9215 7.24801 14.9474 7.27019C14.9692 7.29201 14.999 7.30656 15.0284 7.30656H15.4368C15.4772 7.30656 15.5103 7.29928 15.5361 7.28474C15.5655 7.27383 15.595 7.25565 15.6244 7.24074C15.6575 7.22219 15.7015 7.20765 15.7532 7.19274C15.8048 7.17819 15.8746 7.17456 15.963 7.17456C16.1284 7.17456 16.2648 7.22219 16.3677 7.31056C16.4706 7.39892 16.5223 7.5091 16.5223 7.64147C16.5223 7.80001 16.4706 7.9251 16.3677 8.0171C16.2648 8.1091 16.1284 8.1531 15.963 8.1531C15.8977 8.15402 15.8325 8.14915 15.7681 8.13856C15.7096 8.13093 15.6525 8.11476 15.5986 8.09056C15.549 8.06401 15.5042 8.02921 15.4663 7.98765C15.4258 7.93951 15.3968 7.88281 15.3815 7.82183C15.3761 7.79098 15.3591 7.76338 15.3339 7.74474C15.3125 7.72592 15.285 7.71546 15.2564 7.71528H14.8957C14.8666 7.71528 14.8372 7.72619 14.8114 7.74837C14.7988 7.75905 14.7891 7.77278 14.7833 7.78825C14.7775 7.80372 14.7758 7.82041 14.7783 7.83674C14.7855 7.95092 14.811 8.0611 14.859 8.16401C14.907 8.26728 14.9804 8.36292 15.0761 8.44401C15.1717 8.52474 15.2932 8.58728 15.4368 8.63528C15.5841 8.68292 15.7568 8.7051 15.963 8.7051C16.1212 8.7051 16.2721 8.68692 16.4117 8.64619C16.5467 8.60954 16.6722 8.5443 16.7797 8.45492C16.8866 8.37019 16.9674 8.25965 17.0263 8.12401C17.0888 7.99128 17.1183 7.82947 17.1183 7.64183C17.1183 7.47601 17.0892 7.3291 17.0299 7.20365C16.9727 7.08085 16.8899 6.97173 16.787 6.88365Z" fill="#477BFF"/>
<path d="M16.1194 0.363525H10.795C8.36335 0.363525 6.39062 2.33589 6.39062 4.76789V11.2588C6.55281 11.3283 6.69972 11.4352 6.82117 11.5715C7.73753 12.6053 8.8339 14.125 8.8339 15.4897C8.8339 16.281 8.52481 16.9948 8.02081 17.5246C8.8034 18.165 9.78415 18.5136 10.7954 18.5108H16.119C18.5517 18.5108 20.5237 16.5384 20.5237 14.1064V4.76789C20.5234 2.33589 18.5514 0.363525 16.1194 0.363525ZM12.0423 16.1006C12.0426 16.1848 12.0202 16.2676 11.9775 16.3402C11.9348 16.4128 11.8734 16.4726 11.7996 16.5132C11.7258 16.5539 11.6425 16.5739 11.5583 16.5713C11.4741 16.5686 11.3922 16.5433 11.3212 16.4981L10.0594 15.6923C9.76844 15.5083 9.76844 15.085 10.0594 14.9013L11.3212 14.0955C11.6339 13.8966 12.0423 14.121 12.0423 14.489V16.1006ZM16.8554 15.6923L15.5932 16.4981C15.5221 16.5433 15.4402 16.5686 15.356 16.5713C15.2718 16.5739 15.1885 16.5539 15.1147 16.5132C15.041 16.4726 14.9795 16.4128 14.9368 16.3402C14.8941 16.2676 14.8718 16.1848 14.8721 16.1006V14.489C14.8721 14.121 15.2804 13.8966 15.5932 14.0955L16.855 14.9013C17.1459 15.085 17.1463 15.5083 16.8554 15.6923ZM18.7612 9.43698C18.7615 9.78401 18.6933 10.1277 18.5607 10.4484C18.428 10.769 18.2334 11.0604 17.9881 11.3058C17.7427 11.5512 17.4513 11.7458 17.1307 11.8785C16.81 12.0112 16.4664 12.0794 16.1194 12.0792H10.795C9.33426 12.0792 8.14953 10.8977 8.14953 9.43698V4.76789C8.14953 3.3108 9.33426 2.12607 10.795 2.12607H16.1197C16.8203 2.12617 17.4922 2.40453 17.9877 2.89995C18.4831 3.39536 18.7614 4.06727 18.7615 4.76789L18.7612 9.43698ZM12.1452 23.1948C12.1452 23.4413 12.3441 23.6363 12.587 23.6363H13.1797V22.3301C13.1797 22.2569 13.2088 22.1867 13.2606 22.1349C13.3123 22.0832 13.3825 22.0541 13.4557 22.0541C13.5289 22.0541 13.5991 22.0832 13.6509 22.1349C13.7026 22.1867 13.7317 22.2569 13.7317 22.3301V23.6363H14.327C14.5699 23.6363 14.7648 23.4413 14.7648 23.1948V19.0628H12.1452V23.1948Z" fill="#477BFF"/>
<path d="M6.40784 11.9363C6.34181 11.8617 6.2607 11.8019 6.16987 11.761C6.07903 11.7201 5.98055 11.699 5.88093 11.699C5.78131 11.699 5.68282 11.7201 5.59199 11.761C5.50115 11.8019 5.42004 11.8617 5.35402 11.9363C4.64602 12.7319 3.47656 14.237 3.47656 15.4897C3.47656 16.817 4.55402 17.8945 5.88129 17.8945C7.20856 17.8945 8.28202 16.817 8.28202 15.4897C8.28202 14.237 7.11438 12.7326 6.40784 11.9363Z" fill="#477BFF"/>
</svg>
