<svg width="50" height="50" viewBox="0 0 50 50" fill="none" xmlns="http://www.w3.org/2000/svg">
<path d="M23.5476 11.605H22.8272C22.7658 11.605 22.712 11.6201 22.6582 11.658C22.6052 11.6891 22.5506 11.7277 22.5052 11.758L20.512 13.3376C20.4836 13.3543 20.4597 13.3776 20.4423 13.4056C20.4249 13.4336 20.4145 13.4653 20.412 13.4982C20.4044 13.5671 20.4196 13.6285 20.4658 13.6822L20.8953 14.2262C20.9408 14.28 21.0022 14.311 21.0635 14.3262C21.1325 14.3338 21.1863 14.3186 21.2476 14.2732L22.5506 13.2527V17.7982C22.5506 17.8603 22.5734 17.9216 22.6272 17.9671C22.6734 18.0209 22.7347 18.0436 22.7961 18.0436H23.5476C23.6082 18.0436 23.6703 18.0209 23.7158 17.9679C23.7402 17.9471 23.7597 17.9212 23.773 17.892C23.7862 17.8627 23.7928 17.831 23.7923 17.7989V11.8504C23.7923 11.7891 23.7696 11.7277 23.7166 11.6815C23.6958 11.6571 23.6699 11.6375 23.6407 11.6243C23.6114 11.6111 23.5797 11.6045 23.5476 11.605ZM24.0991 6.93679H21.9688C21.8932 6.93609 21.8182 6.95045 21.7481 6.97905C21.6781 7.00765 21.6145 7.04991 21.5609 7.10336C21.5074 7.15682 21.4651 7.2204 21.4364 7.29039C21.4077 7.36038 21.3932 7.43539 21.3938 7.51104C21.3938 7.82543 21.6469 8.08679 21.9696 8.08679H24.0999C24.2524 8.08679 24.3986 8.02621 24.5065 7.91838C24.6143 7.81055 24.6749 7.66429 24.6749 7.51179C24.6749 7.35929 24.6143 7.21304 24.5065 7.10521C24.3986 6.99737 24.2516 6.93679 24.0991 6.93679ZM26.9666 8.08604H29.0976C29.1731 8.08604 29.2478 8.07116 29.3175 8.04225C29.3873 8.01335 29.4506 7.97098 29.5039 7.91758C29.5573 7.86417 29.5996 7.80078 29.6284 7.73102C29.6572 7.66126 29.672 7.58651 29.6719 7.51104C29.6725 7.43546 29.658 7.36051 29.6294 7.29057C29.6007 7.22062 29.5585 7.15708 29.505 7.10363C29.4516 7.05019 29.388 7.00792 29.3181 6.97927C29.2481 6.95063 29.1732 6.93619 29.0976 6.93679H26.9666C26.8142 6.93679 26.668 6.99733 26.5602 7.1051C26.4525 7.21286 26.3919 7.35902 26.3919 7.51141C26.3919 7.66381 26.4525 7.80997 26.5602 7.91773C26.668 8.0255 26.8142 8.08604 26.9666 8.08604ZM29.3196 17.4232C29.5113 17.2004 29.6491 16.9322 29.7416 16.6338C29.8249 16.3269 29.8794 15.9974 29.9022 15.6444C29.9097 15.53 29.9097 15.3989 29.9097 15.2535V14.3951C29.9097 14.2497 29.9097 14.1194 29.9022 14.0042C29.8794 13.6512 29.8256 13.3224 29.7416 13.0156C29.6572 12.7258 29.5135 12.4567 29.3196 12.2254C29.112 11.9934 28.8516 11.8147 28.5605 11.7042C28.2544 11.5739 27.8711 11.5126 27.4264 11.5126C26.9741 11.5126 26.5908 11.5815 26.284 11.7118C25.9951 11.83 25.7378 12.0139 25.5325 12.2489C25.3387 12.4856 25.1954 12.7594 25.1113 13.0535C25.0241 13.3795 24.97 13.7135 24.9499 14.0504C24.9423 14.2876 24.9347 14.5482 24.9347 14.8474C24.9347 15.1466 24.9423 15.4072 24.9499 15.6444C24.9726 15.9974 25.0272 16.3262 25.1113 16.6338C25.2029 16.9322 25.3408 17.2004 25.5325 17.4232C25.7325 17.6451 25.9772 17.8216 26.284 17.9444C26.5908 18.0747 26.9734 18.136 27.4264 18.136C27.8711 18.136 28.2544 18.0747 28.5605 17.9444C28.8516 17.8339 29.112 17.6552 29.3196 17.4232ZM27.4256 16.986C26.9969 16.986 26.6908 16.8633 26.5143 16.6254C26.3302 16.3807 26.2226 16.0353 26.1923 15.5989C26.1847 15.361 26.1772 15.108 26.1772 14.8247C26.1772 14.5413 26.1847 14.2876 26.1923 14.0504C26.2226 13.6133 26.3302 13.2686 26.5143 13.0232C26.69 12.7853 26.9969 12.6626 27.4264 12.6626C27.8552 12.6626 28.162 12.7853 28.3385 13.0232C28.5226 13.2686 28.6294 13.6133 28.6605 14.0504C28.6681 14.2876 28.6757 14.5406 28.6757 14.8247C28.6757 15.1088 28.6681 15.361 28.6605 15.5989C28.6302 16.0353 28.5226 16.3807 28.3385 16.6254C28.162 16.8633 27.8544 16.986 27.4256 16.986ZM34.1029 21.5163H28.1393C27.9868 21.5163 27.8405 21.5769 27.7327 21.6848C27.6249 21.7926 27.5643 21.9388 27.5643 22.0913C27.5643 22.2438 27.6249 22.3901 27.7327 22.4979C27.8405 22.6058 27.9868 22.6663 28.1393 22.6663H34.1029C34.2554 22.6663 34.4017 22.6058 34.5095 22.4979C34.6173 22.3901 34.6779 22.2438 34.6779 22.0913C34.6779 21.9388 34.6173 21.7926 34.5095 21.6848C34.4017 21.5769 34.2554 21.5163 34.1029 21.5163ZM31.9719 8.08604H34.1029C34.2554 8.08604 34.4017 8.02546 34.5095 7.91762C34.6173 7.80979 34.6779 7.66353 34.6779 7.51104C34.6779 7.35854 34.6173 7.21228 34.5095 7.10445C34.4017 6.99662 34.2554 6.93604 34.1029 6.93604H31.9719C31.8194 6.93604 31.6731 6.99662 31.5653 7.10445C31.4574 7.21228 31.3969 7.35854 31.3969 7.51104C31.3969 7.66353 31.4574 7.80979 31.5653 7.91762C31.6731 8.02546 31.8194 8.08604 31.9719 8.08604ZM34.9688 14.3413C34.7446 14.1542 34.4837 14.0159 34.2029 13.9353C33.8949 13.8412 33.5743 13.7947 33.2522 13.7974C33.1446 13.7974 33.0143 13.7974 32.8461 13.8126C32.6773 13.8288 32.5118 13.8702 32.3552 13.9353L32.4552 12.755H35.0461C35.1067 12.755 35.1688 12.7322 35.2143 12.6777C35.2386 12.657 35.2581 12.6312 35.2713 12.6021C35.2845 12.5731 35.2912 12.5415 35.2908 12.5095V11.8504C35.2908 11.7891 35.2681 11.7277 35.215 11.6815C35.1943 11.6571 35.1683 11.6375 35.1391 11.6243C35.1099 11.6111 35.0782 11.6045 35.0461 11.605H31.581C31.5203 11.605 31.4582 11.6277 31.412 11.6815C31.3877 11.7023 31.3683 11.7283 31.3553 11.7575C31.3422 11.7867 31.3357 11.8184 31.3363 11.8504L31.0597 14.9701C31.0597 15.0383 31.0825 15.1004 31.1363 15.1466C31.1817 15.1921 31.2438 15.2224 31.3052 15.2224H32.156C32.24 15.2224 32.309 15.2072 32.3628 15.1769C32.4241 15.1542 32.4855 15.1163 32.5469 15.0853C32.6158 15.0466 32.7075 15.0163 32.815 14.9853C32.9226 14.955 33.0681 14.9474 33.2522 14.9474C33.5969 14.9474 33.881 15.0466 34.0953 15.2307C34.3097 15.4148 34.4173 15.6444 34.4173 15.9201C34.4173 16.2504 34.3097 16.511 34.0953 16.7027C33.881 16.8944 33.5969 16.986 33.2522 16.986C33.1162 16.9879 32.9803 16.9778 32.8461 16.9557C32.7242 16.9398 32.6052 16.9062 32.4931 16.8557C32.3897 16.8004 32.2964 16.7279 32.2173 16.6413C32.133 16.5411 32.0727 16.4229 32.0408 16.2959C32.0295 16.2316 31.994 16.1741 31.9416 16.1353C31.8969 16.0961 31.8396 16.0743 31.7802 16.0739H31.0287C30.9681 16.0739 30.9067 16.0966 30.8529 16.1429C30.8267 16.1651 30.8066 16.1937 30.7945 16.2259C30.7824 16.2581 30.7788 16.2929 30.784 16.3269C30.7991 16.5648 30.8522 16.7944 30.9522 17.0088C31.0522 17.2239 31.2052 17.4232 31.4044 17.5921C31.6037 17.7603 31.8567 17.8906 32.156 17.9906C32.4628 18.0898 32.8226 18.136 33.2522 18.136C33.5817 18.136 33.8961 18.0982 34.187 18.0133C34.4682 17.9369 34.7296 17.801 34.9537 17.6148C35.1764 17.4383 35.3446 17.208 35.4673 16.9254C35.5976 16.6489 35.659 16.3118 35.659 15.9209C35.659 15.5754 35.5984 15.2694 35.4749 15.008C35.3558 14.7522 35.1832 14.5248 34.9688 14.3413Z" fill="#477BFF"/>
<path d="M33.5817 0.757812H22.4892C17.4233 0.757812 13.3135 4.8669 13.3135 9.93357V23.4563C13.6514 23.601 13.9574 23.8237 14.2104 24.1078C16.1195 26.2616 18.4036 29.4275 18.4036 32.2707C18.4036 33.9192 17.7597 35.4063 16.7097 36.5101C18.3401 37.8442 20.3833 38.5705 22.49 38.5646H33.5809C38.6491 38.5646 42.7574 34.4555 42.7574 29.3889V9.93357C42.7567 4.8669 38.6483 0.757812 33.5817 0.757812ZM25.0877 33.5434C25.0884 33.7189 25.0418 33.8913 24.9529 34.0426C24.8639 34.1938 24.7359 34.3183 24.5822 34.403C24.4285 34.4878 24.2549 34.5295 24.0795 34.524C23.9041 34.5184 23.7334 34.4657 23.5854 34.3714L20.9567 32.6927C20.3506 32.3093 20.3506 31.4275 20.9567 31.0449L23.5854 29.3661C24.237 28.9518 25.0877 29.4192 25.0877 30.1858V33.5434ZM35.115 32.6927L32.4854 34.3714C32.3374 34.4657 32.1668 34.5184 31.9914 34.524C31.816 34.5295 31.6424 34.4878 31.4887 34.403C31.335 34.3183 31.207 34.1938 31.118 34.0426C31.0291 33.8913 30.9825 33.7189 30.9832 33.5434V30.1858C30.9832 29.4192 31.8339 28.9518 32.4854 29.3661L35.1142 31.0449C35.7203 31.4275 35.7211 32.3093 35.115 32.6927ZM39.0854 19.6608C39.086 20.3838 38.9441 21.0998 38.6677 21.7679C38.3914 22.4359 37.986 23.043 37.4748 23.5542C36.9636 24.0655 36.3567 24.4709 35.6886 24.7474C35.0206 25.0238 34.3046 25.1659 33.5817 25.1654H22.4892C19.4461 25.1654 16.9779 22.704 16.9779 19.6608V9.93357C16.9779 6.89796 19.4461 4.42978 22.4892 4.42978H33.5824C35.0421 4.42998 36.4418 5.00991 37.474 6.04203C38.5061 7.07414 39.086 8.47394 39.0862 9.93357L39.0854 19.6608ZM25.3021 48.323C25.3021 48.8366 25.7165 49.2427 26.2226 49.2427H27.4574V46.5214C27.4574 46.3689 27.518 46.2227 27.6258 46.1149C27.7337 46.007 27.8799 45.9464 28.0324 45.9464C28.1849 45.9464 28.3312 46.007 28.439 46.1149C28.5468 46.2227 28.6074 46.3689 28.6074 46.5214V49.2427H29.8476C30.3536 49.2427 30.7597 48.8366 30.7597 48.323V39.7146H25.3021V48.323Z" fill="#477BFF"/>
<path d="M13.348 24.8674C13.2105 24.712 13.0415 24.5876 12.8523 24.5023C12.663 24.4171 12.4578 24.373 12.2503 24.373C12.0428 24.373 11.8376 24.4171 11.6483 24.5023C11.4591 24.5876 11.2901 24.712 11.1526 24.8674C9.67757 26.525 7.24121 29.6606 7.24121 32.2705C7.24121 35.0356 9.48591 37.2803 12.2511 37.2803C15.0162 37.2803 17.2526 35.0356 17.2526 32.2705C17.2526 29.6606 14.82 26.5265 13.348 24.8674Z" fill="#477BFF"/>
</svg>
