<svg width="24" height="24" viewBox="0 0 24 24" fill="none" xmlns="http://www.w3.org/2000/svg">
<g clip-path="url(#clip0_4596_1901)">
<path d="M10.7405 22.4832C10.1307 22.4832 9.56164 22.3126 9.08398 22.0187V22.4546C9.08398 23.3068 9.82742 24.0001 10.7405 24.0001H13.2577C14.1709 24.0001 14.9143 23.3068 14.9143 22.4546V22.0187C14.4366 22.3126 13.8676 22.4832 13.2577 22.4832H10.7405ZM10.7424 19.8048C10.1316 19.8048 9.56258 19.6252 9.08398 19.3163V19.5667C9.08398 20.3996 9.82742 21.077 10.7405 21.077H13.2577C14.1709 21.077 14.9143 20.3996 14.9143 19.5667V19.3163C14.4202 19.6358 13.8442 19.8055 13.2559 19.8048H10.7424ZM13.2559 18.3985C13.3852 18.3985 13.5118 18.3835 13.6327 18.3554C13.3426 17.8215 13.0327 17.3879 12.7215 17.086C12.1729 16.5537 11.8258 16.5509 11.2726 17.0898C10.9637 17.3907 10.6552 17.8234 10.3655 18.3554C10.4865 18.3835 10.613 18.3985 10.7424 18.3985H13.2559ZM10.6585 8.3879C10.3609 8.3879 10.073 8.34665 9.8007 8.26978C10.1979 8.72578 10.9702 9.41024 11.5877 9.41024H12.4129C13.024 9.41024 13.7929 8.73145 14.192 8.27118C13.9147 8.34885 13.6281 8.38812 13.3402 8.3879H10.6585Z" fill="#477BFF"/>
<path d="M23.8758 9.81288C23.7239 8.73382 23.5017 7.48319 23.0072 6.38538C22.133 4.44616 20.8195 4.03882 19.8717 4.03882C18.5161 4.03882 17.3597 4.71429 16.9936 5.71929C16.4151 7.31018 15.9501 8.96833 14.0081 10.2933C12.9616 11.0318 11.0977 11.0695 9.98858 10.2915C8.05404 8.97101 7.5867 7.31726 7.00639 5.71929C6.64029 4.71429 5.48389 4.03882 4.12826 4.03882C3.18045 4.03882 1.86701 4.44616 0.992795 6.38538C0.498263 7.48319 0.276076 8.73382 0.124201 9.81241C-0.221737 12.264 0.153263 14.6344 1.27076 17.0588C2.18248 19.0346 3.27092 20.8988 5.56076 20.8988C6.90326 20.8988 8.05639 20.2304 8.42998 19.2357C8.79186 18.2724 9.40873 16.943 10.2923 16.0824C11.3914 15.0121 12.6012 15.0082 13.702 16.0773C14.5894 16.9384 15.2076 18.2701 15.57 19.2357C15.9436 20.2304 17.0967 20.8988 18.4392 20.8988C20.6946 20.8988 21.7807 19.1154 22.7292 17.0588C23.8467 14.6344 24.2217 12.264 23.8758 9.81288ZM3.21889 6.92397C3.65576 6.48897 4.31061 6.34929 4.88764 6.56772C5.25092 6.70554 5.43373 7.11147 5.29592 7.47476C5.15811 7.83757 4.75217 8.02038 4.38936 7.88304C4.25722 7.83283 4.12423 7.95757 4.17467 8.09163C4.35022 8.55218 4.00887 9.04554 3.51795 9.04554C3.23483 9.04554 2.96811 8.87304 2.86076 8.59272C2.64045 8.01569 2.78108 7.36038 3.21889 6.92397ZM3.02811 12.7384C2.58983 12.3019 2.44967 11.6471 2.66998 11.0696C2.80826 10.7068 3.21467 10.5249 3.57748 10.6637C3.94029 10.8019 4.12217 11.2084 3.98342 11.5712C3.93326 11.7031 4.06512 11.8303 4.19811 11.7798C4.56139 11.6419 4.96733 11.8248 5.10467 12.188C5.24248 12.5509 5.05967 12.9573 4.69639 13.0946C4.11383 13.315 3.46165 13.1705 3.02811 12.7384ZM6.68014 16.5755C6.54279 16.9388 6.13686 17.1216 5.77358 16.9838C5.64059 16.9332 5.50878 17.0605 5.55889 17.1924C5.73542 17.654 5.39253 18.1463 4.90217 18.1463C4.61904 18.1463 4.35233 17.9743 4.24545 17.694C4.02514 17.1165 4.16529 16.4616 4.60358 16.0252C5.03998 15.5902 5.69483 15.4501 6.27186 15.669C6.63514 15.8068 6.81795 16.2127 6.68014 16.5755ZM8.35404 13.7912C7.91576 14.2274 7.26083 14.3651 6.68529 14.1474C6.32201 14.0096 6.1392 13.6037 6.27701 13.2404C6.41436 12.8776 6.82029 12.6948 7.18358 12.8321C7.31623 12.8825 7.44847 12.757 7.39826 12.6235C7.25951 12.2607 7.44139 11.8543 7.8042 11.716C8.16701 11.5777 8.57342 11.7596 8.7117 12.1219C8.93248 12.6994 8.79186 13.3548 8.35404 13.7912ZM17.0526 13.4813C16.6954 13.6421 16.2813 13.4806 16.1231 13.1288C16.065 13.0004 15.8787 12.9998 15.8203 13.1288C15.6609 13.4832 15.2442 13.6407 14.8903 13.4813C14.5364 13.3219 14.3789 12.9057 14.5383 12.5513C14.7914 11.9893 15.3544 11.626 15.9717 11.626C16.589 11.626 17.152 11.9893 17.4051 12.5513C17.5645 12.9057 17.407 13.3219 17.0526 13.4813ZM18.3276 8.52804C18.4654 8.16522 18.8709 7.98241 19.2342 8.11976C19.2811 8.13757 19.3556 8.13851 19.4119 8.08272C19.4667 8.02835 19.4667 7.95851 19.4489 7.91163C19.3106 7.54882 19.492 7.14241 19.8548 7.00366C20.2176 6.86538 20.624 7.04726 20.7628 7.41007C20.9831 7.9871 20.8425 8.64241 20.4047 9.07882C19.966 9.51551 19.311 9.65257 18.7359 9.43507C18.3726 9.29726 18.1898 8.89132 18.3276 8.52804ZM20.047 16.7391C19.9092 17.1024 19.5037 17.2852 19.1404 17.1474C19.0068 17.098 18.8755 17.2238 18.9258 17.356C19.1019 17.8166 18.7603 18.3104 18.269 18.3104C17.9859 18.3104 17.7192 18.1379 17.6119 17.8576C17.3915 17.2805 17.5322 16.6252 17.97 16.1888C18.4069 15.7538 19.0617 15.6141 19.6387 15.8326C20.002 15.9704 20.1848 16.3763 20.047 16.7391ZM20.9765 13.7321C20.677 14.0307 20.2744 14.1905 19.8647 14.1905C19.6776 14.1905 19.4887 14.1573 19.3078 14.0883C18.945 13.951 18.7622 13.5451 18.8995 13.1818C19.0373 12.8185 19.4433 12.6357 19.8065 12.7735C19.9392 12.8244 20.072 12.6963 20.0208 12.5649C19.8825 12.2021 20.0644 11.7957 20.4272 11.6574C20.79 11.5187 21.1964 11.7005 21.3347 12.0634C21.555 12.6409 21.4144 13.2957 20.9765 13.7321Z" fill="#477BFF"/>
<path d="M15.0263 5.32828C14.8247 5.44828 14.6049 5.54719 14.3701 5.62125C13.9504 5.75428 13.5101 5.79919 13.0927 5.76609H13.089C12.3801 5.70905 11.6142 5.70933 10.9116 5.76609H10.9088C10.4876 5.79984 10.0443 5.75292 9.62911 5.62172C9.3938 5.54719 9.17396 5.44875 8.97286 5.32922C8.97286 6.31716 9.7756 6.98156 10.659 6.98156H13.3407C14.2227 6.98156 15.0263 6.31959 15.0263 5.32828ZM8.45002 1.78378C8.97174 2.54545 9.01533 2.60334 9.0525 3.17395C9.08447 3.66436 9.47724 4.0988 10.0527 4.28058C10.2878 4.35516 10.546 4.38384 10.8001 4.36411C11.5835 4.30162 12.4101 4.3013 13.2004 4.36411C13.4666 4.38445 13.7211 4.35178 13.9465 4.28058C14.522 4.09884 14.9147 3.66436 14.9471 3.17363C14.9833 2.60573 15.0262 2.54737 15.5492 1.78383C15.6318 1.66303 15.7253 1.52714 15.8303 1.37156C16.2419 0.763313 15.7113 0 14.8383 0H13.6313C13.2087 0 12.8238 0.189656 12.6265 0.4965L12.2774 1.04245C12.1505 1.24059 11.8489 1.24116 11.7222 1.04283L11.3718 0.495422C11.1754 0.189984 10.7909 0 10.3678 0H9.16083C8.28333 0 7.75946 0.766453 8.16891 1.37152C8.27396 1.52709 8.36696 1.66298 8.45002 1.78378Z" fill="#477BFF"/>
</g>
<defs>
<clipPath id="clip0_4596_1901">
<rect width="24" height="24" fill="white"/>
</clipPath>
</defs>
</svg>
