<svg width="24" height="24" viewBox="0 0 24 24" fill="none" xmlns="http://www.w3.org/2000/svg">
<g clip-path="url(#clip0_4597_45)">
<path d="M17.439 21.726C17.2625 21.4806 17.1675 21.186 17.1675 20.8838V19.4954L16.8595 21.4303L16.8131 21.7216L16.9941 21.7504L17.4242 21.8188L17.439 21.726ZM22.9409 20.8838C22.9409 21.2212 22.8241 21.5315 22.6302 21.7783L22.6366 21.8189L23.1183 21.7422L23.2477 21.7216L23.2158 21.521L22.9409 19.794V20.8838ZM22.7406 6.09268C22.4873 5.8752 22.2392 5.80026 22.0518 5.78003C22.0153 5.77442 21.9785 5.77148 21.9416 5.77124H21.8722C21.4172 6.25701 20.7708 6.56165 20.0542 6.56165C19.3375 6.56165 18.6911 6.25711 18.2361 5.77124H18.1668C18.1296 5.77124 18.0931 5.77476 18.0573 5.78003C17.9064 5.79615 17.7162 5.84921 17.5155 5.98208C17.5044 6.00524 17.4931 6.02849 17.4802 6.05106C17.3799 6.22632 17.2296 6.36776 17.0487 6.4574C16.2654 7.60227 15.9749 10.2052 16.1625 14.3774C16.1671 14.48 16.1919 14.5806 16.2354 14.6736C16.2789 14.7666 16.3403 14.8501 16.4161 14.9193C16.4918 14.9886 16.5805 15.0422 16.677 15.0772C16.7735 15.1122 16.876 15.1278 16.9785 15.1232C17.0426 15.12 17.1061 15.109 17.1675 15.0903V14.3215C17.1675 13.5209 17.819 12.8694 18.6196 12.8694C19.2967 12.8694 19.8653 13.3356 20.0256 13.9635H20.0829C20.243 13.3356 20.8116 12.8694 21.4885 12.8694C22.2893 12.8694 22.9409 13.5209 22.9409 14.3215V15.0902C23.0137 15.1124 23.0895 15.1237 23.1656 15.124C23.3667 15.1238 23.56 15.0461 23.7053 14.9071C23.8506 14.7681 23.9368 14.5784 23.9458 14.3775C24.157 9.68 23.7628 6.96985 22.7406 6.09268Z" fill="#477BFF"/>
<path d="M18.6181 22.0918C19.2853 22.0918 19.8262 21.5512 19.8262 20.8839V14.3217C19.8262 13.6544 19.2853 13.1138 18.6181 13.1138C17.9511 13.1138 17.4102 13.6544 17.4102 14.3217V20.8839C17.4102 21.5512 17.9511 22.0918 18.6181 22.0918ZM22.6951 14.3217C22.6951 13.6544 22.1541 13.1138 21.487 13.1138C20.8201 13.1138 20.2791 13.6544 20.2791 14.3217V20.8839C20.2791 21.5512 20.8201 22.0918 21.487 22.0918C22.1541 22.0918 22.6951 21.5512 22.6951 20.8839V14.3217Z" fill="#477BFF"/>
<path d="M20.0538 6.26866C21.2678 6.26866 22.2521 5.28445 22.2521 4.07036C22.2521 2.85628 21.2678 1.87207 20.0538 1.87207C18.8397 1.87207 17.8555 2.85628 17.8555 4.07036C17.8555 5.28445 18.8397 6.26866 20.0538 6.26866Z" fill="#477BFF"/>
<path d="M10.347 14.6425C10.0378 14.7913 9.69162 14.8636 9.2889 14.8636C8.49917 14.8636 7.61165 14.5863 6.60825 14.2282C6.90331 15.0895 7.67124 15.3515 8.3534 15.488C8.59111 15.5355 8.79423 15.5692 8.96853 15.5666C9.02158 15.5737 9.07532 15.5785 9.13023 15.5785H12.7678L13.1957 20.8075C13.248 21.4459 13.7822 21.9292 14.4116 21.9292C14.4449 21.9292 14.4787 21.9278 14.5125 21.9251C15.1847 21.8701 15.6851 21.2805 15.6302 20.6082L15.1105 14.2576C15.0854 13.952 14.9464 13.6669 14.7208 13.4591C14.4953 13.2513 14.1999 13.136 13.8932 13.136H11.5466C11.2933 13.8828 10.9008 14.3758 10.347 14.6425ZM5.15659 14.1717C5.23514 14.1422 5.25019 13.9799 5.21795 13.7275C4.82313 13.5891 4.41836 13.4557 4.00977 13.3393C4.43604 13.9497 4.86143 14.2825 5.15659 14.1717Z" fill="#477BFF"/>
<path d="M4.57635 16.3894C4.58192 16.4043 4.58924 16.418 4.59725 16.431C4.78836 16.8502 5.80006 17.1859 7.10429 17.2719V17.4448H7.51952V19.5017L4.66174 20.381V20.741C4.56895 20.7865 4.49078 20.8572 4.43611 20.9449C4.38144 21.0326 4.35244 21.1339 4.35241 21.2373C4.35144 21.3106 4.36504 21.3834 4.39242 21.4514C4.41981 21.5194 4.46043 21.5813 4.51194 21.6335C4.56345 21.6857 4.62481 21.7272 4.69246 21.7555C4.76011 21.7837 4.83271 21.7983 4.90604 21.7983C4.97937 21.7983 5.05197 21.7837 5.11962 21.7555C5.18728 21.7272 5.24864 21.6857 5.30014 21.6335C5.35165 21.5813 5.39227 21.5194 5.41966 21.4514C5.44704 21.3834 5.46064 21.3106 5.45967 21.2373C5.45964 21.1341 5.43077 21.0331 5.37632 20.9455C5.32186 20.8579 5.244 20.7872 5.15152 20.7415L7.51962 20.0129V20.741C7.42681 20.7865 7.34863 20.8571 7.29393 20.9449C7.23924 21.0326 7.21023 21.1339 7.2102 21.2373C7.20922 21.3106 7.22282 21.3834 7.25021 21.4514C7.27759 21.5194 7.31822 21.5813 7.36972 21.6335C7.42123 21.6857 7.48259 21.7272 7.55024 21.7555C7.6179 21.7837 7.69049 21.7983 7.76382 21.7983C7.83715 21.7983 7.90975 21.7837 7.9774 21.7555C8.04506 21.7272 8.10642 21.6857 8.15792 21.6335C8.20943 21.5813 8.25005 21.5194 8.27744 21.4514C8.30483 21.3834 8.31843 21.3106 8.31745 21.2373C8.31742 21.1339 8.28843 21.0326 8.23375 20.9449C8.17908 20.8572 8.10092 20.7865 8.00813 20.741V20.0129L10.3762 20.7415C10.2837 20.7872 10.2058 20.8578 10.1514 20.9454C10.0969 21.033 10.068 21.1341 10.068 21.2373C10.068 21.3841 10.1263 21.525 10.2301 21.6288C10.334 21.7326 10.4748 21.791 10.6217 21.791C10.7685 21.791 10.9093 21.7326 11.0132 21.6288C11.117 21.525 11.1753 21.3841 11.1753 21.2373C11.1753 21.1339 11.1463 21.0326 11.0916 20.9449C11.0369 20.8571 10.9587 20.7865 10.8659 20.741V20.381L8.00813 19.5017V17.4449H8.42336V17.2719C9.87404 17.1764 10.9636 16.7717 10.9636 16.2871C10.9636 15.8175 6.39409 15.7447 4.9778 16.0687L3.94636 13.3219C3.75515 13.2681 3.56269 13.2189 3.36914 13.1742L4.57635 16.3894ZM9.9779 2.71045C9.64307 3.01529 9.41067 3.4162 9.31255 3.85825L10.1924 3.63539L9.9779 2.71045ZM13.6567 4.33543C13.6567 4.00617 13.5838 3.69401 13.454 3.41361L9.26497 4.47514C9.33707 5.62412 10.2913 6.53372 11.4584 6.53372C12.6726 6.53372 13.6567 5.54957 13.6567 4.33543Z" fill="#477BFF"/>
<path d="M11.4594 2.13693C11.1149 2.13693 10.7891 2.21636 10.4989 2.35754L10.7617 3.49118L13.1185 2.89393C13.0424 2.80625 12.9595 2.72471 12.8706 2.65006L13.1667 2.59076L13.6162 2.50087L13.7969 3.43568L14.3987 3.31942L14.3774 3.20843L14.7682 3.13291L14.6946 2.75275L14.3039 2.82827L14.163 2.09961L13.5611 2.21597L13.579 2.30908L12.983 2.42828L12.6586 2.49315C12.302 2.26021 11.8853 2.1364 11.4594 2.13693ZM13.9018 4.33015L15.0801 4.24954L15.0317 3.5412L13.8083 3.62503L13.8121 3.68052L13.8568 4.33327L13.9018 4.33015ZM10.5451 3.67916C10.5052 3.67916 10.4669 3.69502 10.4386 3.72325C10.4104 3.75149 10.3945 3.78979 10.3945 3.82972C10.3945 3.86965 10.4104 3.90794 10.4386 3.93618C10.4669 3.96441 10.5052 3.98027 10.5451 3.98027C10.585 3.98027 10.6233 3.96441 10.6516 3.93618C10.6798 3.90794 10.6956 3.86965 10.6956 3.82972C10.6956 3.78979 10.6798 3.75149 10.6516 3.72325C10.6233 3.69502 10.585 3.67916 10.5451 3.67916Z" fill="#477BFF"/>
<path d="M0.0935985 12.9609C2.03718 12.306 4.19933 13.0931 6.10657 13.7877C7.30801 14.2251 8.39123 14.6195 9.28784 14.6195C9.63449 14.6195 9.95319 14.5606 10.24 14.4224C10.7344 14.1844 11.0871 13.7343 11.3184 13.0462C11.6559 12.0414 12.2149 11.0111 12.8614 10.0321L12.5334 10.0002C11.9093 10.9609 11.3713 11.9681 11.0405 12.9528C11.0195 13.0145 10.9967 13.0757 10.9721 13.1361H10.0402C10.3222 11.9677 10.8343 10.8111 11.2416 9.87499L10.1231 9.76654C9.56014 9.71183 9.14657 9.20945 9.20099 8.64639C9.25248 8.11782 9.69067 7.7194 10.2204 7.7194C10.2538 7.7194 10.2875 7.72106 10.3215 7.72438L12.909 7.97537L13.8688 7.82061L15.2867 5.16449C15.3529 5.04104 15.4436 4.93238 15.5532 4.84516C15.6628 4.75794 15.789 4.69399 15.9242 4.65722L16.3221 4.54975C16.4914 4.50373 16.6697 4.50215 16.8397 4.54516C16.9868 4.39469 17.0732 4.31038 17.0798 4.30432L17.2605 4.13999L17.6026 4.51633C17.5756 4.36922 17.562 4.21998 17.5618 4.07042C17.5618 3.79393 17.6078 3.52818 17.6913 3.27952C17.3947 3.08412 16.9923 3.11021 16.7236 3.3654L13.6666 6.26969L12.7292 6.42084C12.3469 6.65486 11.9072 6.77846 11.459 6.77794C11.2694 6.77794 11.0852 6.75547 10.9079 6.71443L9.98123 6.86392C9.95798 6.86763 9.93531 6.87281 9.91304 6.87847C9.29458 6.96836 8.63383 7.34705 8.15811 8.13815C7.09649 9.92697 6.68897 11.1518 6.48301 13.3271C6.48116 13.4278 6.4835 13.5238 6.48966 13.615L6.20671 13.5122C5.84395 13.3801 5.47219 13.2447 5.09428 13.1164C4.65423 11.3557 3.29549 8.03448 2.90595 8.18074C2.48192 8.34 2.45789 9.36577 2.79985 10.6354C2.76015 10.6297 2.71966 10.634 2.68202 10.6478C2.65199 10.6591 2.62447 10.6762 2.60104 10.6981C2.57761 10.72 2.55873 10.7463 2.54548 10.7755C2.53222 10.8048 2.52485 10.8363 2.52379 10.8684C2.52272 10.9004 2.52799 10.9324 2.53927 10.9624L3.14473 12.5748C2.11202 12.3733 1.06857 12.3407 0.065558 12.6626C0.0436728 12.6696 0.0217875 12.6758 0 12.6831L0.0935985 12.9609Z" fill="#477BFF"/>
<path d="M17.4422 4.70201L17.245 4.48511C17.2399 4.4898 17.1815 4.54334 17.0804 4.63918C17.1677 4.68701 17.2477 4.74723 17.3178 4.81798C17.394 4.74607 17.4378 4.70591 17.4422 4.70201ZM16.7945 6.29474C16.8936 6.26798 16.9864 6.22195 17.0678 6.1593C17.1491 6.09664 17.2172 6.01858 17.2684 5.92958C17.3195 5.84057 17.3526 5.74237 17.3658 5.64057C17.3789 5.53877 17.3719 5.43538 17.3451 5.33629C17.3184 5.23718 17.2724 5.14432 17.2097 5.063C17.1471 4.98168 17.069 4.91351 16.98 4.86236C16.891 4.81122 16.7928 4.77811 16.691 4.76493C16.5892 4.75175 16.4858 4.75875 16.3867 4.78554L15.9887 4.89311C15.8857 4.92098 15.7895 4.96965 15.706 5.03612C15.6225 5.10259 15.5534 5.18546 15.5032 5.27962L13.8827 8.31512L10.2985 7.9675C9.86899 7.92529 9.48678 8.24038 9.44506 8.66998C9.42505 8.8763 9.48781 9.08213 9.61955 9.24217C9.75129 9.40222 9.94121 9.50338 10.1475 9.5234L14.251 9.92134C14.4048 9.93624 14.5595 9.90526 14.6956 9.83231C14.8318 9.75937 14.9433 9.64773 15.016 9.51148L16.7229 6.31399L16.7945 6.29474Z" fill="#477BFF"/>
</g>
<defs>
<clipPath id="clip0_4597_45">
<rect width="24" height="24" fill="white"/>
</clipPath>
</defs>
</svg>
