<svg width="24" height="24" viewBox="0 0 24 24" fill="none" xmlns="http://www.w3.org/2000/svg">
<path d="M15.2885 1.45312H8.71148L7.30523 4.96875H4.26562V13.0547H6.06502C6.41414 10.0894 8.94239 7.78125 12 7.78125C15.0576 7.78125 17.5859 10.0894 17.935 13.0547H19.7344V4.96875H16.6948L15.2885 1.45312ZM9.66352 2.85938H14.3364L15.1802 4.96875H8.81977L9.66352 2.85938ZM21.1406 4.96875H24V22.5469H21.1406V4.96875ZM0 4.96875H2.85938V22.5469H0V4.96875ZM12 19.7344C8.94239 19.7344 6.41414 17.4262 6.06502 14.4609H4.26562V22.5469H19.7344V14.4609H17.935C17.5859 17.4262 15.0576 19.7344 12 19.7344Z" fill="#477BFF"/>
<path d="M12 18.3281C14.5201 18.3281 16.5703 16.2779 16.5703 13.7578C16.5703 11.2377 14.5201 9.1875 12 9.1875C9.47991 9.1875 7.42969 11.2377 7.42969 13.7578C7.42969 16.2779 9.47991 18.3281 12 18.3281ZM9.53906 13.0547H11.2969V11.2969H12.7031V13.0547H14.4609V14.4609H12.7031V16.2188H11.2969V14.4609H9.53906V13.0547Z" fill="#477BFF"/>
</svg>
