<svg width="24" height="24" viewBox="0 0 24 24" fill="none" xmlns="http://www.w3.org/2000/svg">
<path d="M22.0133 8.51745C21.6451 7.42653 20.9426 6.47929 20.0056 5.81019C19.0686 5.14109 17.9446 4.78412 16.7933 4.78995C16.557 4.78919 16.3233 4.741 16.106 4.64825C15.8887 4.55549 15.6923 4.42005 15.5283 4.24995L14.4633 3.16745C14.2808 2.97928 14.1622 2.73852 14.124 2.47922C14.0859 2.21991 14.1302 1.95518 14.2508 1.72245L15.0283 0.262451H14.1458C14.1458 0.377451 14.1733 0.294951 13.0983 1.92995C12.9809 2.1095 12.9112 2.316 12.8958 2.52995C12.8913 2.59318 12.8631 2.65236 12.8166 2.69552C12.7702 2.73868 12.7092 2.76261 12.6458 2.76245H12.6308C12.5653 2.75795 12.5043 2.72791 12.4608 2.6788C12.4173 2.62969 12.3948 2.56546 12.3983 2.49995C12.4178 2.20015 12.5152 1.91062 12.6808 1.65995L13.5983 0.267451H12.7283L11.7283 1.79745C11.5421 2.08415 11.4595 2.42583 11.4941 2.7659C11.5286 3.10598 11.6783 3.42405 11.9183 3.66745C16.0183 7.76995 12.6008 15.2725 6.20328 15.52C5.83828 15.535 5.68328 15.315 5.35578 14.9825C5.21134 14.8387 5.01944 14.7525 4.81602 14.7401C4.61261 14.7277 4.41165 14.7898 4.25078 14.915L3.70328 15.3525C3.62786 15.4131 3.54082 15.4577 3.44753 15.4835C3.35424 15.5093 3.25666 15.5157 3.16078 15.5025C2.88955 15.4626 2.6283 15.3718 2.39078 15.235L1.36328 18.5L6.95578 22.135C10.6383 24.5375 15.5308 24.235 18.7508 21.25C20.4631 19.6673 21.6819 17.6238 22.2607 15.3651C22.8394 13.1063 22.7535 10.7285 22.0133 8.51745ZM4.95578 18.6049C4.92494 18.6636 4.87206 18.7076 4.80877 18.7273C4.74548 18.747 4.67696 18.7408 4.61828 18.7099L2.33328 17.5C2.30343 17.4851 2.27683 17.4645 2.25506 17.4393C2.23329 17.4141 2.21679 17.3847 2.20651 17.353C2.19624 17.3213 2.19241 17.2879 2.19525 17.2547C2.19808 17.2215 2.20753 17.1892 2.22303 17.1597C2.23853 17.1302 2.25977 17.1041 2.28551 17.0829C2.31124 17.0617 2.34095 17.0459 2.37288 17.0364C2.40481 17.0269 2.43833 17.0238 2.47146 17.0274C2.50458 17.0311 2.53665 17.0413 2.56578 17.0575L4.85078 18.26C4.88081 18.2752 4.90746 18.2964 4.92911 18.3222C4.95076 18.348 4.96698 18.3779 4.97678 18.4101C4.98659 18.4423 4.98978 18.4762 4.98618 18.5097C4.98257 18.5431 4.97223 18.5756 4.95578 18.6049ZM18.1058 20.5424C16.5337 21.991 14.4709 22.7897 12.3333 22.7775C10.0108 22.7775 8.41828 21.9475 7.16828 21.1375C6.90233 20.9644 6.68387 20.7276 6.53279 20.4486C6.38171 20.1696 6.30282 19.8572 6.30328 19.54V18.1399C6.30439 17.7013 6.45627 17.2763 6.73346 16.9363C7.01066 16.5963 7.39632 16.3619 7.82578 16.2724C9.76239 15.868 11.4999 14.8072 12.7444 13.2693C13.989 11.7314 14.6641 9.81082 14.6558 7.83245C14.6538 7.55735 14.7067 7.28462 14.8114 7.03023C14.9161 6.77584 15.0706 6.5449 15.2657 6.35096C15.4608 6.15701 15.6926 6.00395 15.9476 5.90075C16.2027 5.79755 16.4757 5.74628 16.7508 5.74995C17.707 5.73798 18.6424 6.02906 19.4229 6.58146C20.2035 7.13386 20.7891 7.91922 21.0958 8.82495C21.776 10.8589 21.8557 13.0457 21.3255 15.1238C20.7952 17.2019 19.6774 19.0831 18.1058 20.5424Z" fill="#477BFF"/>
<path d="M16.793 6.24997C16.5806 6.24012 16.3684 6.27364 16.1694 6.3485C15.9704 6.42335 15.7888 6.53797 15.6355 6.68535C15.4823 6.83274 15.3607 7.0098 15.2782 7.20574C15.1956 7.40167 15.1539 7.61237 15.1555 7.82497C15.1742 9.44456 14.7461 11.038 13.918 12.43C14.143 12.3556 14.3785 12.3176 14.6155 12.3175C14.8399 12.3199 15.0628 12.3536 15.278 12.4175C17.288 13 18.6255 14.25 19.588 14.825C20.0392 15.0843 20.3765 15.5037 20.533 16C21.3602 13.7378 21.3945 11.2617 20.6305 8.97747C20.3581 8.17756 19.8409 7.48366 19.1521 6.99412C18.4633 6.50458 17.638 6.24423 16.793 6.24997Z" fill="#477BFF"/>
<path d="M19.3338 15.25C18.3563 14.6725 17.0388 13.4325 15.1038 12.8825C14.7506 12.7891 14.3777 12.8019 14.0317 12.9192C13.6858 13.0366 13.3821 13.2534 13.1588 13.5425C11.8386 15.1853 9.99229 16.3225 7.93125 16.7625C7.61401 16.8284 7.32897 17.0011 7.12376 17.2518C6.91854 17.5025 6.80558 17.816 6.80375 18.14V19.54C6.80319 19.7739 6.86124 20.0042 6.9726 20.2099C7.08396 20.4156 7.24508 20.5901 7.44125 20.7175C8.52625 21.4225 10.0513 22.2775 12.3338 22.2775C15.7238 22.2775 18.4137 20.2775 19.9562 17.305C20.1385 16.9485 20.1755 16.5352 20.0594 16.152C19.9433 15.7688 19.6832 15.4455 19.3338 15.25ZM10.3088 19.57C10.1388 19.5695 9.97274 19.5187 9.83164 19.4239C9.69055 19.3291 9.58071 19.1946 9.516 19.0374C9.45129 18.8802 9.43462 18.7074 9.46808 18.5407C9.50155 18.3741 9.58365 18.2211 9.70402 18.101C9.82439 17.981 9.97764 17.8994 10.1444 17.8664C10.3111 17.8334 10.4839 17.8506 10.6409 17.9157C10.7979 17.9809 10.9321 18.0911 11.0265 18.2325C11.1209 18.3739 11.1712 18.54 11.1713 18.71C11.1706 18.9383 11.0794 19.1571 10.9177 19.3183C10.7561 19.4795 10.5371 19.57 10.3088 19.57ZM14.0588 20.6525C13.8847 20.6525 13.7146 20.6009 13.5698 20.5042C13.4251 20.4075 13.3123 20.2701 13.2457 20.1093C13.1791 19.9485 13.1617 19.7716 13.1957 19.6009C13.2296 19.4301 13.3134 19.2733 13.4365 19.1503C13.5596 19.0272 13.7164 18.9434 13.8871 18.9094C14.0578 18.8755 14.2347 18.8929 14.3955 18.9595C14.5563 19.0261 14.6937 19.1389 14.7904 19.2836C14.8871 19.4283 14.9388 19.5985 14.9388 19.7725C14.9388 19.8887 14.9157 20.0038 14.8711 20.111C14.8264 20.2183 14.7609 20.3156 14.6784 20.3975C14.5958 20.4793 14.4979 20.5439 14.3903 20.5877C14.2827 20.6315 14.1674 20.6535 14.0513 20.6525H14.0588ZM15.5838 17.5975C15.4049 17.597 15.2301 17.5435 15.0816 17.4438C14.9331 17.3441 14.8175 17.2025 14.7494 17.0371C14.6813 16.8717 14.6637 16.6898 14.6989 16.5144C14.7341 16.3391 14.8205 16.178 14.9472 16.0517C15.0739 15.9254 15.2351 15.8395 15.4106 15.8047C15.5861 15.77 15.7679 15.7881 15.9332 15.8567C16.0984 15.9252 16.2396 16.0412 16.3389 16.19C16.4382 16.3388 16.4912 16.5136 16.4913 16.6925C16.4913 16.8122 16.4675 16.9307 16.4214 17.0412C16.3753 17.1516 16.3078 17.2519 16.2227 17.336C16.1376 17.4202 16.0366 17.4866 15.9257 17.5315C15.8147 17.5764 15.6959 17.5989 15.5763 17.5975H15.5838ZM7.70375 12.8175C8.51723 12.818 9.31259 12.5773 9.98921 12.1257C10.6658 11.6741 11.1933 11.032 11.505 10.2805C11.8166 9.52913 11.8984 8.70217 11.74 7.90425C11.5816 7.10634 11.1902 6.37333 10.6151 5.79794C10.0401 5.22255 9.30729 4.83062 8.50948 4.67173C7.71166 4.51285 6.88465 4.59415 6.13304 4.90534C5.38144 5.21653 4.739 5.74364 4.28701 6.41999C3.83501 7.09634 3.59375 7.89155 3.59375 8.70503C3.59375 9.7953 4.02669 10.841 4.79739 11.6121C5.56809 12.3833 6.61348 12.8169 7.70375 12.8175ZM5.33875 7.61503H6.61375V6.33753H8.79625V7.61503H10.0712V9.79503H8.79625V11.07H6.61375V9.79503H5.33875V7.61503Z" fill="#477BFF"/>
<path d="M7.11289 10.5698H8.29289V9.29484H9.57039V8.11484H8.29289V6.83984H7.11289V8.11484H5.83789V9.29484H7.11289V10.5698Z" fill="#477BFF"/>
</svg>
