<svg width="24" height="24" viewBox="0 0 24 24" fill="none" xmlns="http://www.w3.org/2000/svg">
<path d="M19.6084 6.40454H4.39239C3.86408 6.40454 3.35741 6.61441 2.98383 6.98798C2.61026 7.36156 2.40039 7.86823 2.40039 8.39654V18.1765C2.40039 18.7049 2.61026 19.2115 2.98383 19.5851C3.35741 19.9587 3.86408 20.1685 4.39239 20.1685H19.6084C20.1367 20.1685 20.6434 19.9587 21.0169 19.5851C21.3905 19.2115 21.6004 18.7049 21.6004 18.1765V8.39678C21.6004 8.13517 21.5489 7.87611 21.4488 7.6344C21.3487 7.39269 21.202 7.17307 21.017 6.98807C20.8321 6.80307 20.6124 6.65632 20.3708 6.5562C20.1291 6.45607 19.87 6.40454 19.6084 6.40454ZM20.0855 18.1765C20.0854 18.303 20.0351 18.4243 19.9456 18.5137C19.8562 18.6031 19.7349 18.6534 19.6084 18.6534H4.39239C4.26591 18.6534 4.14463 18.6031 4.05517 18.5137C3.96571 18.4243 3.9154 18.303 3.91527 18.1765V8.39678C3.91546 8.27032 3.9658 8.1491 4.05524 8.0597C4.14468 7.9703 4.26593 7.92003 4.39239 7.9199H19.6084C19.7349 7.92003 19.8562 7.97034 19.9456 8.05979C20.0351 8.14924 20.0854 8.27052 20.0855 8.39702V18.1765Z" fill="#477BFF"/>
<path d="M4.39648 8.39994V18.1735H19.6062V8.39994H4.39648ZM15.2378 14.1643H12.8788V16.5232H11.1239V14.1643H8.76496V12.4091H11.1239V10.0502H12.8788V12.4091H15.2378V14.1643ZM19.1886 5.25738V5.92482H16.7985V5.25738C16.7985 5.09411 16.8633 4.93753 16.9788 4.82208C17.0942 4.70664 17.2508 4.64178 17.4141 4.64178H18.573C18.7363 4.64178 18.8929 4.70664 19.0083 4.82208C19.1238 4.93753 19.1886 5.09411 19.1886 5.25738ZM7.20424 5.25738V5.92482H4.81408V5.25738C4.81408 5.09411 4.87894 4.93753 4.99439 4.82208C5.10984 4.70664 5.26642 4.64178 5.42968 4.64178H6.58864C6.75191 4.64178 6.90849 4.70664 7.02394 4.82208C7.13939 4.93753 7.20424 5.09411 7.20424 5.25738ZM14.1928 4.7733V5.9253H9.80992V4.7733C9.80992 4.52346 9.90917 4.28386 10.0858 4.1072C10.2625 3.93055 10.5021 3.8313 10.7519 3.8313H13.2508C13.5006 3.8313 13.7402 3.93055 13.9169 4.1072C14.0936 4.28386 14.1928 4.52346 14.1928 4.7733Z" fill="#477BFF"/>
</svg>
