<svg width="24" height="24" viewBox="0 0 24 24" fill="none" xmlns="http://www.w3.org/2000/svg">
<path d="M18.1221 13.7101C18.3275 14.1843 18.4471 14.7646 18.4735 15.4357C19.1668 15.5946 19.6857 16.2147 19.6857 16.9554C19.6857 17.8155 18.9859 18.5154 18.1257 18.5154C17.2655 18.5154 16.5657 17.8155 16.5657 16.9554C16.5657 16.2231 17.0733 15.6094 17.7544 15.4417C17.7244 14.7752 17.5651 13.7612 16.9127 13.2606C16.5761 13.1727 16.2329 13.1122 15.8865 13.0798C15.8606 14.2474 12.0014 17.1289 12.0014 17.1289C12.0014 17.1289 8.14097 14.2479 8.11481 13.0803C7.73058 13.1154 7.35036 13.1855 6.97889 13.2898C6.50297 13.6666 6.25673 14.3686 6.24401 15.3891C6.3861 15.4719 6.49878 15.597 6.56633 15.747C7.07897 15.9891 7.53185 16.4984 7.87865 17.2234C7.93673 17.3454 7.94441 17.4831 7.90169 17.6089C8.10953 18.1438 8.22833 18.7285 8.22833 19.2195C8.22833 19.9076 8.22833 20.5582 7.47833 20.7253C7.39702 20.793 7.29449 20.8301 7.18865 20.8299H6.68753C6.56676 20.8297 6.45098 20.7817 6.36556 20.6963C6.28013 20.6109 6.23203 20.4952 6.23177 20.3744L6.23225 20.3566C6.23749 20.2392 6.28766 20.1282 6.37239 20.0467C6.45713 19.9652 6.56995 19.9193 6.68753 19.9186H7.18865C7.23973 19.9187 7.29043 19.9273 7.33865 19.9441C7.35277 19.9411 7.3663 19.9358 7.37873 19.9285C7.43441 19.8296 7.43441 19.4178 7.43441 19.22C7.43441 18.8211 7.33457 18.3394 7.15961 17.8918C7.06866 17.8403 6.99564 17.7621 6.95033 17.6679C6.64649 17.0317 6.23321 16.6208 5.89769 16.6208C5.55449 16.6208 5.12057 17.0653 4.81793 17.7258C4.76783 17.8337 4.68218 17.9213 4.57529 17.9737C4.41713 18.4018 4.33025 18.8427 4.33025 19.2198C4.33025 19.3858 4.33025 19.8265 4.39361 19.9302C4.39433 19.9302 4.40849 19.9388 4.44833 19.9486C4.50017 19.9287 4.55585 19.9184 4.61153 19.9184H5.11361C5.22644 19.9185 5.33522 19.9605 5.41891 20.0361C5.50261 20.1118 5.55527 20.2158 5.56673 20.3281L5.56913 20.3562C5.56913 20.6252 5.36465 20.8302 5.11361 20.8302H4.61153C4.51193 20.8302 4.41569 20.7968 4.33649 20.7363C4.04969 20.6823 3.84761 20.5558 3.71969 20.3499C3.56465 20.101 3.53633 19.7742 3.53633 19.2198C3.53633 18.7335 3.64865 18.1734 3.85265 17.6384C3.82238 17.5245 3.833 17.4035 3.88265 17.2966C4.09505 16.832 4.36529 16.4341 4.66385 16.1463C4.81893 15.9946 4.99595 15.8671 5.18897 15.7681C5.25688 15.6089 5.37473 15.4761 5.52473 15.3898C5.53241 14.7502 5.63081 14.198 5.81273 13.7427C3.73001 14.7992 2.30273 16.9599 2.30273 19.4552C2.30273 22.6438 4.63241 22.7998 7.68209 22.7998C8.01497 22.7998 8.35577 22.7979 8.70401 22.7979H15.2961C15.6439 22.7979 15.9847 22.7998 16.3175 22.7998C19.3677 22.7998 21.6983 22.6438 21.6983 19.4552C21.6981 16.9335 20.2403 14.7538 18.1221 13.7101Z" fill="#477BFF"/>
<path d="M12.0014 13.918C14.9496 13.918 17.3393 9.48499 17.3393 6.53707C17.3393 3.58963 14.9496 1.19995 12.0014 1.19995C9.05374 1.19995 6.66406 3.58963 6.66406 6.53707C6.66406 9.48499 9.05374 13.918 12.0014 13.918Z" fill="#477BFF"/>
<path d="M18.1262 17.6754C18.5239 17.6754 18.8462 17.353 18.8462 16.9554C18.8462 16.5577 18.5239 16.2354 18.1262 16.2354C17.7286 16.2354 17.4062 16.5577 17.4062 16.9554C17.4062 17.353 17.7286 17.6754 18.1262 17.6754Z" fill="#477BFF"/>
</svg>
