<svg width="24" height="24" viewBox="0 0 24 24" fill="none" xmlns="http://www.w3.org/2000/svg">
<path d="M3.03683 6.34802C2.98883 6.50002 2.95683 6.66402 2.95683 6.84402C2.95683 7.43202 3.22083 8.12802 3.72483 8.75602C4.12083 9.25202 4.60883 9.62802 5.10483 9.82402C5.34483 9.91602 5.57683 9.96402 5.79283 9.96402C6.08483 9.96402 6.34883 9.88002 6.56083 9.70802C7.26883 9.14002 7.12883 7.83202 6.24483 6.73202C5.84883 6.23602 5.35683 5.85602 4.86483 5.66402C4.36883 5.47202 3.90883 5.48002 3.55683 5.68002C3.33683 5.64002 2.85283 5.43602 2.80083 4.41602V4.35202C2.78883 3.98002 2.98083 3.64802 3.31283 3.46002C3.66083 3.26402 4.08483 3.27202 4.41683 3.48802C5.50083 4.18002 6.69683 4.51202 7.62083 4.66802C7.61683 4.72002 7.60883 4.76802 7.60883 4.82002C7.60883 5.61202 8.10883 6.33202 9.02483 6.85602C9.21283 6.96402 9.38483 7.11202 9.54083 7.29602C9.96483 7.81602 10.0768 8.48402 9.83683 9.08802C9.52083 9.87602 9.21283 11.244 9.54483 13.276C10.0208 16.14 11.0568 17.032 11.6008 17.308V21.528C11.6008 21.748 11.7808 21.928 12.0008 21.928C12.2208 21.928 12.4008 21.748 12.4008 21.528V17.308C12.9488 17.032 13.9848 16.14 14.4608 13.276C14.7928 11.248 14.4848 9.88002 14.1688 9.08802C13.9288 8.48402 14.0368 7.81602 14.4648 7.29602C14.6168 7.11202 14.7928 6.96402 14.9808 6.85602C15.8928 6.33202 16.3968 5.61202 16.3968 4.82002C16.3968 4.76802 16.3888 4.72002 16.3848 4.66802C17.3088 4.51202 18.5008 4.18002 19.5888 3.48802C19.9208 3.27202 20.3448 3.26402 20.6928 3.46002C21.0248 3.64802 21.2128 3.98002 21.2008 4.36402V4.39602C21.1488 5.43602 20.6608 5.64002 20.4488 5.68002C20.0928 5.47602 19.6368 5.46802 19.1368 5.66402C18.6448 5.85602 18.1528 6.23602 17.7568 6.73202C16.8728 7.83202 16.7328 9.14002 17.4408 9.70802C17.6528 9.88002 17.9168 9.96402 18.2088 9.96402C18.4248 9.96402 18.6568 9.91602 18.8968 9.82402C19.3888 9.62802 19.8808 9.25202 20.2768 8.75602C20.9368 7.93602 21.1808 7.00402 20.9688 6.34402C21.4488 6.10802 21.9408 5.55602 21.9968 4.41602V4.37602C22.0168 3.70402 21.6768 3.10002 21.0808 2.76402C20.7848 2.59523 20.4482 2.51083 20.1076 2.52C19.7669 2.52917 19.4353 2.63155 19.1488 2.81602C18.1328 3.46802 16.9968 3.76402 16.1408 3.90002C15.5488 2.82402 13.9408 2.07202 12.0008 2.07202C10.0568 2.07202 8.45283 2.82402 7.85683 3.90002C7.00083 3.76402 5.86483 3.46802 4.84883 2.81602C4.56232 2.63155 4.23073 2.52917 3.89009 2.52C3.54946 2.51083 3.21284 2.59523 2.91683 2.76402C2.32483 3.10002 1.98083 3.70402 2.00083 4.36402V4.43602C2.05683 5.56402 2.55283 6.11602 3.03683 6.34802Z" fill="#477BFF"/>
</svg>
