<svg width="24" height="24" viewBox="0 0 24 24" fill="none" xmlns="http://www.w3.org/2000/svg">
<g clip-path="url(#clip0_4596_1917)">
<path fill-rule="evenodd" clip-rule="evenodd" d="M11.3324 21.6662C7.8175 21.6662 4.96337 18.8261 4.96337 15.3393C4.96337 13.61 7.03015 10.4746 8.87198 7.70487C9.67339 6.48167 10.4467 5.32877 10.8403 4.56954C10.9388 4.3727 11.1215 4.26023 11.3324 4.26023C11.5433 4.26023 11.7402 4.38676 11.8386 4.56954C12.2323 5.35689 13.0196 6.56603 13.8491 7.8314C15.6347 10.559 17.6593 13.6381 17.6593 15.3393C17.6734 18.8261 14.8193 21.6662 11.3324 21.6662ZM12.176 16.1267C12.3307 16.1267 12.4572 16.0001 12.4572 15.8455V15.0019H13.3008C13.4555 15.0019 13.582 14.8753 13.582 14.7207V12.9913C13.582 12.8367 13.4555 12.7101 13.3008 12.7101H12.4572V11.8666C12.4572 11.7119 12.3307 11.5854 12.176 11.5854H10.4467C10.292 11.5854 10.1655 11.7119 10.1655 11.8666V12.7101H9.32189C9.16723 12.7101 9.0407 12.8367 9.0407 12.9913V14.7207C9.0407 14.8753 9.16723 15.0019 9.32189 15.0019H10.1655V15.8455C10.1655 16.0001 10.292 16.1267 10.4467 16.1267H12.176ZM10.7279 15.5643V14.7207C10.7279 14.566 10.6013 14.4395 10.4467 14.4395H9.60309V13.2725H10.4467C10.6013 13.2725 10.7279 13.146 10.7279 12.9913V12.1477H11.8948V12.9913C11.8948 13.146 12.0214 13.2725 12.176 13.2725H13.0196V14.4395H12.176C12.0214 14.4395 11.8948 14.566 11.8948 14.7207V15.5643H10.7279ZM11.3324 19.5572C12.4572 19.5572 13.5117 19.1214 14.3131 18.334C15.1145 17.5326 15.5644 16.4641 15.5644 15.3393C15.5644 15.1847 15.4238 15.0581 15.2832 15.0581C15.1286 15.0581 14.988 15.1847 14.988 15.3393C14.988 17.3499 13.357 18.9948 11.3324 18.9948C11.1778 18.9948 11.0512 19.1214 11.0512 19.276C11.0512 19.4307 11.1778 19.5572 11.3324 19.5572ZM2.16548 8.97024C1.87022 8.97024 1.58903 8.94213 1.33595 8.87183C0.8298 8.74529 0.436127 8.46409 0.211171 8.07042C-0.182502 7.40961 -0.0419048 6.55197 0.604844 5.62402C1.13911 4.82262 2.02488 4.03527 3.0653 3.40258C3.07936 3.40258 3.07936 3.40258 3.07936 3.38852C4.1479 2.78395 5.27268 2.4184 6.25687 2.3481C7.36759 2.26374 8.19711 2.57306 8.57672 3.2198C8.57672 3.2198 8.59078 3.2198 8.59078 3.23386C8.81574 3.62754 8.85792 4.10557 8.71732 4.62578C8.40801 5.75056 7.24105 6.98782 5.66636 7.88764C4.45722 8.59063 3.19184 8.97024 2.16548 8.97024ZM4.45722 5.7365C4.44316 5.75056 4.44316 5.75056 4.4291 5.75056C4.13384 5.91928 3.58551 6.20047 3.24808 6.24265L3.14966 6.25671L3.07936 6.21453C2.98094 6.17235 2.8544 6.17235 2.77005 6.24265C2.64351 6.34107 2.61539 6.50979 2.71381 6.63633C2.82628 6.77692 2.98094 6.8191 3.14966 6.8191C3.64175 6.8191 4.30256 6.48167 4.72435 6.24265C5.13208 6.0177 5.98973 5.48343 6.08815 4.99133C6.11627 4.87886 6.10221 4.75232 6.03191 4.6539C5.93349 4.52736 5.76477 4.49924 5.63824 4.59766C5.55388 4.6539 5.52576 4.73826 5.52576 4.82262V4.9351L5.45546 5.00539C5.20238 5.30065 4.79465 5.56778 4.45722 5.7365ZM22.2287 13.0195C21.8632 13.0195 21.4555 12.9492 21.0196 12.7945C20.1198 12.4571 19.1356 11.8103 18.2639 10.9527C18.2498 10.9527 18.2498 10.9386 18.2498 10.9386C17.4063 10.0669 16.7595 9.08272 16.4361 8.1829C16.0565 7.12842 16.1409 6.25671 16.647 5.70838C16.6611 5.70838 16.6611 5.70838 16.6611 5.69432C16.9845 5.37095 17.4484 5.20223 17.9827 5.20223H17.9968C19.1778 5.21629 20.6822 6.0177 21.9194 7.29713C22.7911 8.16884 23.4519 9.15302 23.7753 10.0669C24.1549 11.1214 24.0565 11.9931 23.5082 12.5414C23.1848 12.8648 22.749 13.0195 22.2287 13.0195ZM21.1743 10.6012C21.2867 10.6012 21.3852 10.559 21.4836 10.4606C21.5961 10.3622 21.5961 10.1794 21.4836 10.0669C21.4133 9.99661 21.3008 9.96849 21.2024 9.99661L21.104 10.0247L21.0055 9.98255C20.6681 9.82789 20.2744 9.4764 20.0214 9.22332C19.7542 8.95618 19.4168 8.57657 19.234 8.22508L19.1918 8.14072L19.2059 8.02824C19.234 7.95794 19.2059 7.85952 19.1637 7.80328C19.0653 7.67675 18.8966 7.64863 18.77 7.74705C18.6716 7.81734 18.6154 7.91576 18.6154 8.0423C18.5732 8.52033 19.3043 9.29362 19.6277 9.61699C19.9651 9.95443 20.6681 10.6012 21.1743 10.6012Z" fill="#477BFF"/>
</g>
<defs>
<clipPath id="clip0_4596_1917">
<rect width="24" height="24" fill="white"/>
</clipPath>
</defs>
</svg>
