<svg width="24" height="24" viewBox="0 0 24 24" fill="none" xmlns="http://www.w3.org/2000/svg">
<g clip-path="url(#clip0_4597_56)">
<path d="M20.4844 9.84379H0.703125C0.314531 9.84379 0 10.1583 0 10.5469C0 16.8551 3.72052 21.1875 9.1875 21.1875H12C17.4672 21.1875 21.1875 16.8551 21.1875 10.5469C21.1875 10.1583 20.8731 9.84379 20.4844 9.84379ZM12 15.4688H11.2969V16.1719C11.2969 16.5606 10.9825 16.875 10.5938 16.875C10.2052 16.875 9.89062 16.5606 9.89062 16.1719V15.4688H9.1875C8.79891 15.4688 8.48438 15.1544 8.48438 14.7657C8.48438 14.3771 8.79891 14.0625 9.1875 14.0625H9.89062V13.3594C9.89062 12.9708 10.2052 12.6563 10.5938 12.6563C10.9825 12.6563 11.2969 12.9708 11.2969 13.3594V14.0625H12C12.3887 14.0625 12.7031 14.3771 12.7031 14.7657C12.7031 15.1544 12.3887 15.4688 12 15.4688ZM8.69531 2.2641C7.5 1.06879 3.14062 0.182801 2.29688 0.0281133C2.07187 -0.0140273 1.83291 0.0562852 1.67812 0.225129C1.50937 0.379816 1.4392 0.618785 1.48134 0.843832C1.63584 1.68754 2.52188 6.04691 3.71719 7.24222C4.86708 8.36886 6.56044 8.56424 7.85152 7.84682C7.24983 6.61471 6.50972 6.10789 5.71411 5.24544C5.43286 4.97811 5.43286 4.52825 5.71411 4.26107C5.98111 3.97982 6.43116 3.97982 6.6983 4.26107C7.36519 4.97647 8.19445 5.53935 8.96259 6.94705C9.4687 6.30018 9.72173 5.52674 9.72173 4.7533C9.72173 3.85311 9.38447 2.95316 8.69527 2.26414L8.69531 2.2641ZM7.85156 7.84682C7.87978 7.90325 7.90795 7.97357 7.93594 8.02977C8.1308 8.41939 8.58839 8.51938 8.86416 8.38133C9.21572 8.21249 9.38452 7.79061 9.21572 7.43905C9.14541 7.27044 9.06098 7.1016 8.96264 6.94705C8.6662 7.29275 8.37544 7.58502 7.85156 7.84682ZM12 22.5938H9.1875C8.06766 22.5938 7.01147 22.4288 6.02784 22.1254C5.79544 22.4719 5.67151 22.8797 5.67188 23.2969C5.67188 23.6853 5.98664 24 6.375 24H14.8125C15.2009 24 15.5156 23.6853 15.5156 23.2969C15.5156 22.8633 15.384 22.4607 15.1597 22.1254C14.176 22.4288 13.1199 22.5938 12 22.5938ZM23.1758 0.823816C22.0776 -0.274605 20.2969 -0.274605 19.1986 0.823816C18.1002 1.9221 18.1002 3.70278 19.1986 4.80107C20.2969 5.89949 22.0776 5.89949 23.1758 4.80107C24.2743 3.70278 24.2743 1.9221 23.1758 0.823816ZM12.5894 8.43754H18.0707L19.5566 6.70391C19.0509 6.49185 18.5915 6.18323 18.204 5.79533C17.8163 5.40808 17.5079 4.94887 17.2961 4.44346L12.5894 8.43754Z" fill="#477BFF"/>
</g>
<defs>
<clipPath id="clip0_4597_56">
<rect width="24" height="24" fill="white"/>
</clipPath>
</defs>
</svg>
