<svg width="24" height="24" viewBox="0 0 24 24" fill="none" xmlns="http://www.w3.org/2000/svg">
<path d="M22.9226 14.21V14.622C22.9226 15.0115 22.6101 15.333 22.2207 15.333H21.7226C21.8765 15.1337 21.9671 14.8892 21.9671 14.622V14.21C21.9671 13.6439 21.7135 13.1322 21.3105 12.7881H21.5007C22.2886 12.7881 22.9226 13.4266 22.9226 14.21ZM21.632 15.7858C21.5913 16.293 21.1656 16.6915 20.6448 16.6915H20.2871C20.5045 16.4605 20.6539 16.1571 20.6765 15.822L20.6811 15.7858H21.632Z" fill="#477BFF"/>
<path d="M21.515 14.21V14.622C21.515 15.0115 21.2026 15.333 20.8132 15.333H1.89392C1.49995 15.333 1.1875 15.0115 1.1875 14.622V14.21C1.1875 13.4266 1.82599 12.7881 2.60939 12.7881H20.0932C20.8811 12.7881 21.515 13.4266 21.515 14.21ZM20.2245 15.7858C20.1837 16.293 19.7581 16.6915 19.2418 16.6915H3.08939C2.56863 16.6915 2.1475 16.293 2.10675 15.7858H20.2245ZM17.7747 21.5322C17.7146 21.5322 17.657 21.5084 17.6146 21.4659C17.5721 21.4235 17.5483 21.3659 17.5483 21.3058V20.9345C17.5483 20.818 17.502 20.7063 17.4196 20.6239C17.3372 20.5415 17.2255 20.4953 17.109 20.4953H5.22222C5.10572 20.4953 4.994 20.5415 4.91162 20.6239C4.82925 20.7063 4.78297 20.818 4.78297 20.9345V21.3058C4.78297 21.3659 4.75912 21.4235 4.71666 21.4659C4.6742 21.5084 4.61661 21.5322 4.55656 21.5322C4.49651 21.5322 4.43892 21.5084 4.39646 21.4659C4.354 21.4235 4.33014 21.3659 4.33014 21.3058V20.9345C4.33014 20.4427 4.73044 20.0424 5.22222 20.0424H17.109C17.6008 20.0424 18.0011 20.4427 18.0011 20.9345V21.3058C18.0011 21.3659 17.9772 21.4235 17.9348 21.4659C17.8923 21.5084 17.8347 21.5322 17.7747 21.5322Z" fill="#477BFF"/>
<path d="M16.2975 20.4947C16.2708 20.4947 16.2443 20.4901 16.2192 20.4811L6.48424 16.9051C6.42788 16.8842 6.38209 16.8418 6.35689 16.7873C6.33168 16.7327 6.32912 16.6704 6.34975 16.6139C6.39367 16.4962 6.52228 16.4373 6.64092 16.4799L16.3759 20.0554C16.425 20.0745 16.466 20.11 16.4918 20.156C16.5177 20.2019 16.5268 20.2554 16.5175 20.3073C16.5082 20.3592 16.4812 20.4063 16.4411 20.4404C16.401 20.4746 16.3502 20.4938 16.2975 20.4947Z" fill="#477BFF"/>
<path d="M6.56326 20.4947C6.50991 20.495 6.45819 20.4764 6.41721 20.4423C6.37623 20.4081 6.34863 20.3606 6.33926 20.3081C6.32989 20.2556 6.33937 20.2014 6.36602 20.1552C6.39267 20.109 6.43477 20.0737 6.48492 20.0555L16.2199 16.48C16.2763 16.4593 16.3385 16.4618 16.3931 16.4869C16.4476 16.512 16.49 16.5577 16.511 16.614C16.5317 16.6704 16.5291 16.7328 16.5039 16.7873C16.4787 16.8419 16.4329 16.8843 16.3765 16.9052L6.6416 20.4816C6.61646 20.4906 6.58996 20.4948 6.56326 20.4947ZM5.56567 22.0846C5.56567 22.6416 5.11284 23.0944 4.55586 23.0944C3.99888 23.0944 3.55058 22.6416 3.55058 22.0846C3.55058 21.5322 3.99888 21.0793 4.55586 21.0793C5.11284 21.0793 5.56567 21.5322 5.56567 22.0846ZM18.7838 22.0846C18.7838 22.6416 18.331 23.0944 17.774 23.0944C17.217 23.0944 16.7642 22.6416 16.7642 22.0846C16.7642 21.8168 16.8706 21.56 17.0599 21.3706C17.2493 21.1812 17.5062 21.0748 17.774 21.0748C18.0418 21.0748 18.2986 21.1812 18.488 21.3706C18.6774 21.56 18.7838 21.8168 18.7838 22.0846ZM7.14786 11.9716C7.14786 12.4221 6.78152 12.7885 6.33141 12.7885H3.81594C3.59936 12.7884 3.39169 12.7022 3.23859 12.5491C3.08549 12.3959 2.99948 12.1882 2.99948 11.9716C2.99948 11.5215 3.36537 11.1551 3.81594 11.1551H6.33141C6.78152 11.1551 7.14786 11.5215 7.14786 11.9716ZM4.6102 2.92086C4.57816 2.92081 4.5465 2.91396 4.51731 2.90077C4.48811 2.88758 4.46205 2.86834 4.44084 2.84433L3.12673 1.35859H1.30454C1.24449 1.35859 1.1869 1.33474 1.14444 1.29228C1.10198 1.24982 1.07812 1.19223 1.07812 1.13218C1.07812 1.07213 1.10198 1.01454 1.14444 0.972077C1.1869 0.929616 1.24449 0.905762 1.30454 0.905762H3.22907C3.29382 0.905762 3.35586 0.933837 3.39888 0.98229L4.78001 2.54455C4.80885 2.5772 4.82765 2.61747 4.83418 2.66054C4.8407 2.70361 4.83466 2.74764 4.81678 2.78736C4.7989 2.82709 4.76995 2.86081 4.73339 2.88448C4.69683 2.90816 4.65376 2.92079 4.6102 2.92086ZM6.70228 7.87482L6.27662 8.29595C6.23692 8.33664 6.18955 8.36905 6.13724 8.39132C6.08494 8.41359 6.02874 8.42528 5.9719 8.4257C5.91505 8.42612 5.85869 8.41527 5.80606 8.39378C5.75344 8.37228 5.70559 8.34057 5.66529 8.30048L5.48416 8.11935L5.5068 8.0967L6.52114 7.08237L6.70228 7.2635C6.86982 7.43104 6.86982 7.70727 6.70228 7.87482ZM10.2298 4.34727L9.79963 4.77293C9.63209 4.94048 9.36039 4.94048 9.19284 4.77293L9.01171 4.5918L10.026 3.57746L10.0487 3.55482L10.2298 3.73595C10.3974 3.9035 10.3974 4.17972 10.2298 4.34727ZM8.46379 6.10878L8.03813 6.53897C7.95674 6.61944 7.84691 6.66457 7.73247 6.66457C7.61802 6.66457 7.50818 6.61944 7.4268 6.53897L7.24567 6.35784L8.28265 5.32086L8.46379 5.50199C8.63133 5.66953 8.63133 5.94123 8.46379 6.10878Z" fill="#477BFF"/>
<path d="M7.96107 1.63928L3.56409 6.03626L3.51428 5.98645C3.22486 5.69425 3.0625 5.29961 3.0625 4.88834C3.0625 4.47707 3.22486 4.08242 3.51428 3.79022L5.71956 1.58494C5.86357 1.44098 6.03459 1.32687 6.22281 1.24916C6.41102 1.17145 6.61272 1.13166 6.81635 1.13208C7.01998 1.1325 7.22152 1.17312 7.40941 1.25161C7.5973 1.3301 7.76784 1.44492 7.91126 1.58947L7.96107 1.63928ZM9.35443 1.7466L9.70447 2.09664C10.0255 2.41815 10.0255 2.9389 9.70718 3.25769L5.18794 7.77694C4.86688 8.09754 4.34567 8.09754 4.02462 7.77694L3.67458 7.42645C3.56104 7.31324 3.497 7.15965 3.49649 6.99931C3.49598 6.83898 3.55904 6.68498 3.67186 6.57105L8.49903 1.74388C8.55529 1.68775 8.62209 1.64328 8.69558 1.61302C8.76907 1.58276 8.84782 1.56732 8.9273 1.56757C9.00677 1.56782 9.08542 1.58377 9.15872 1.61449C9.23201 1.64521 9.29852 1.69011 9.35443 1.7466Z" fill="#477BFF"/>
</svg>
