<svg width="50" height="50" viewBox="0 0 50 50" fill="none" xmlns="http://www.w3.org/2000/svg">
<path d="M45.6018 10.9024C43.2893 7.21802 39.7315 5.67818 36.0784 6.77896C32.9612 7.72037 30.8315 10.3922 30.9034 13.2633C30.9425 15.0172 31.5011 16.3727 32.562 17.2985C34.5237 19.0211 37.6026 18.718 37.6339 18.718C37.8573 18.6946 38.0487 18.854 38.0729 19.0696C38.0787 19.1214 38.0741 19.1739 38.0596 19.2239C38.045 19.274 38.0207 19.3207 37.988 19.3613C37.9553 19.402 37.915 19.4358 37.8692 19.4608C37.8235 19.4858 37.7732 19.5015 37.7214 19.5071C37.6425 19.5235 36.5417 19.6274 35.194 19.3641C34.2776 20.5149 33.9175 21.5891 33.8659 22.536L33.8643 22.4477C32.662 22.5962 28.9839 23.4774 28.9839 28.7235V43.1719C28.9839 43.2777 29.0259 43.3792 29.1007 43.4539C29.1755 43.5287 29.2769 43.5708 29.3827 43.5708C29.4885 43.5708 29.5899 43.5287 29.6647 43.4539C29.7395 43.3792 29.7815 43.2777 29.7815 43.1719V28.7235C29.7815 24.1571 32.8097 23.3766 33.88 23.243L33.8776 23.1493C34.0229 24.8665 35.1237 26.0618 35.4167 26.3501C35.7718 26.1775 36.1401 26.0338 36.5182 25.9204C36.6196 25.8894 36.729 25.8996 36.8229 25.9488C36.9167 25.9979 36.9875 26.082 37.0198 26.1829C37.0347 26.2331 37.0396 26.2859 37.034 26.338C37.0284 26.3902 37.0126 26.4407 36.9874 26.4867C36.9622 26.5326 36.9281 26.5732 36.8871 26.6059C36.8462 26.6387 36.7991 26.663 36.7487 26.6774C34.8503 27.2594 33.6307 28.304 33.144 29.7876C32.5378 31.5743 33.1917 33.5602 33.6784 34.2297C34.5714 35.4501 35.8393 36.2157 37.2433 36.3672C39.03 36.5665 40.9761 35.793 42.8815 34.118C48.2331 29.4126 50.8018 19.1961 45.6018 10.9024ZM36.98 9.5149C35.13 9.67427 33.8456 11.4602 33.8456 12.9758C33.8456 13.1993 33.6706 13.3743 33.4472 13.3743C33.3416 13.3739 33.2405 13.3318 33.1659 13.2571C33.0912 13.1825 33.0491 13.0814 33.0487 12.9758C33.0487 11.0774 34.6034 8.91646 36.9081 8.71724C37.0138 8.70771 37.1189 8.74055 37.2004 8.80853C37.2818 8.87651 37.3329 8.97407 37.3425 9.07974C37.352 9.18542 37.3192 9.29055 37.2512 9.37201C37.1832 9.45347 37.0856 9.50537 36.98 9.5149ZM16.1354 22.4477L16.1339 22.5204C16.0784 21.5774 15.7143 20.5086 14.8011 19.3641C13.4612 19.6274 12.3604 19.5157 12.2807 19.5079C12.2285 19.5031 12.1777 19.4877 12.1315 19.4629C12.0852 19.438 12.0445 19.404 12.0117 19.363C11.9788 19.3221 11.9546 19.2749 11.9405 19.2243C11.9263 19.1738 11.9225 19.1209 11.9292 19.0688C11.9336 19.0164 11.9486 18.9654 11.9734 18.919C11.9981 18.8726 12.0321 18.8317 12.0732 18.7989C12.1143 18.766 12.1616 18.7419 12.2124 18.728C12.2631 18.7141 12.3162 18.7107 12.3682 18.718C12.3925 18.718 15.4792 19.0211 17.4409 17.2985C18.4932 16.3735 19.0518 15.0172 19.0995 13.2633C19.1714 10.3922 17.0417 7.72037 13.9237 6.77896C10.2628 5.67818 6.70575 7.21802 4.40106 10.9024C-0.798939 19.1969 1.76122 29.4126 7.12059 34.118C9.01903 35.793 10.9643 36.5665 12.7511 36.368C14.1628 36.2157 15.4307 35.4501 16.3245 34.2297C16.8026 33.5602 17.4573 31.5735 16.8589 29.7876C16.3643 28.304 15.1518 27.2594 13.2456 26.6774C13.1455 26.6462 13.0616 26.5768 13.0124 26.4842C12.9631 26.3916 12.9523 26.2834 12.9823 26.1829C13.0147 26.0816 13.0856 25.9972 13.1798 25.9479C13.274 25.8986 13.3838 25.8884 13.4854 25.9196C13.8917 26.0391 14.2511 26.1907 14.5854 26.3501C14.8784 26.0626 15.9745 24.8711 16.1214 23.1586L16.1198 23.243C17.1901 23.3766 20.2182 24.1571 20.2182 28.7235V43.1719C20.2182 43.2776 20.2602 43.3789 20.3349 43.4537C20.4097 43.5284 20.511 43.5704 20.6167 43.5704C20.7224 43.5704 20.8237 43.5284 20.8984 43.4537C20.9731 43.3789 21.0151 43.2776 21.0151 43.1719V28.7235C21.0151 23.4774 17.3378 22.5962 16.1354 22.4477ZM13.094 8.71724C15.3987 8.91646 16.9464 11.0774 16.9464 12.9758C16.9464 13.1993 16.7706 13.3743 16.5479 13.3743C16.4424 13.3739 16.3413 13.3318 16.2667 13.2571C16.192 13.1825 16.1499 13.0814 16.1495 12.9758C16.1495 11.468 14.8651 9.67427 13.0222 9.5149C12.9702 9.51039 12.9196 9.49563 12.8734 9.47146C12.8272 9.44729 12.7862 9.4142 12.7529 9.37409C12.7195 9.33399 12.6945 9.28767 12.6791 9.23781C12.6638 9.18796 12.6585 9.13556 12.6636 9.08365C12.6672 9.03108 12.6813 8.97977 12.705 8.93272C12.7287 8.88567 12.7616 8.84382 12.8017 8.80962C12.8417 8.77543 12.8883 8.74958 12.9385 8.73358C12.9887 8.71758 13.0415 8.71176 13.094 8.71646V8.71724Z" fill="#477BFF"/>
</svg>
