<svg width="24" height="24" viewBox="0 0 24 24" fill="none" xmlns="http://www.w3.org/2000/svg">
<path d="M13.9014 21.3951C13.9149 21.6242 13.7322 21.8186 13.5018 21.8186H10.4893C10.2612 21.8186 10.0771 21.6275 10.0897 21.3951C10.2318 18.9657 10.3198 16.5003 10.3508 14.0659C10.0934 13.6842 9.79554 13.3465 9.46508 13.0602C9.38782 12.9933 9.36811 12.9302 9.32856 12.8478C9.2795 12.7456 9.28205 12.6266 9.33071 12.5242C9.6193 11.9171 9.75883 11.2498 9.73768 10.5779C9.72927 10.3117 9.98862 10.1168 10.2396 10.2058C10.278 10.2194 10.3164 10.2334 10.3547 10.2477C10.3287 7.87993 10.2921 7.99195 10.3313 7.86528C10.5594 7.12961 10.556 6.20186 10.2479 5.38887C10.1967 5.2537 10.2499 5.34022 10.0897 2.60497C10.077 2.37258 10.2611 2.1814 10.4892 2.1814H13.5017C13.7322 2.1814 13.9149 2.37588 13.9013 2.60497C13.5368 8.83899 13.5368 15.161 13.9014 21.3951Z" fill="#477BFF"/>
<path d="M8.91733 10.3265C8.89322 10.1129 8.66113 9.99418 8.47235 10.0971C8.08059 10.3107 7.65082 10.4572 7.20084 10.5166C6.96175 10.5482 6.74922 10.3615 6.74897 10.1204C6.74877 9.91512 6.90209 9.74909 7.10098 9.72244C8.41739 9.54601 9.52313 8.40102 9.66695 7.16022C10.1676 2.8287 2.88938 2.06003 0.696973 6.40009C-1.49944 10.7476 1.78125 18.7347 6.54293 17.5479C8.69489 17.0099 9.56348 14.2904 8.30022 12.7031C8.79245 12.0143 9.01228 11.1677 8.91733 10.3265ZM18.3963 11.4984C18.1918 11.737 17.9073 11.878 17.5952 11.8945C16.6357 11.9454 15.7701 12.2165 15.0433 12.6826C14.7775 12.8531 14.4287 12.6623 14.4281 12.3466C14.4268 11.6694 14.4301 10.9377 14.4367 10.2958C14.4376 10.2076 14.4675 10.1222 14.5219 10.0528C14.5763 9.98341 14.6521 9.93395 14.7375 9.91212C15.6476 9.68083 16.592 9.57936 17.5612 9.60907C18.5113 9.63827 19.0235 10.7647 18.3963 11.4984Z" fill="#477BFF"/>
<path d="M23.3052 6.39998C21.118 2.07032 13.8334 2.81869 14.3353 7.1601C14.4054 7.76565 14.7078 8.35975 15.1644 8.82663C15.2528 8.91694 15.3807 8.9582 15.5055 8.9385C16.2955 8.81398 17.201 8.77992 17.6668 8.81373C17.7549 8.16157 17.7051 7.50496 17.5177 6.86076C17.489 6.75916 17.5016 6.65034 17.5528 6.55801C17.604 6.46568 17.6896 6.39733 17.791 6.36785C17.8924 6.33837 18.0013 6.35015 18.094 6.40062C18.1867 6.4511 18.2557 6.53618 18.286 6.63732C18.4252 7.11615 18.4992 7.60123 18.5082 8.08746C19.222 8.0123 19.8388 7.61393 20.2259 7.06779C20.2878 6.98245 20.3808 6.92495 20.4848 6.90779C20.5887 6.89064 20.6953 6.9152 20.7813 6.97615C20.8672 7.0371 20.9257 7.12951 20.9439 7.23331C20.9622 7.33711 20.9387 7.44392 20.8786 7.53052C20.7895 7.65619 20.6602 7.81721 20.4889 7.98439C20.9682 8.41311 21.286 8.9555 21.4397 9.5493C21.5054 9.80344 21.3129 10.0497 21.0521 10.0497C20.9634 10.0496 20.8774 10.0201 20.8073 9.9658C20.7373 9.91151 20.6872 9.83552 20.665 9.74973C20.5343 9.24455 20.2499 8.80402 19.8352 8.47967C19.4159 8.72169 18.9464 8.86352 18.4633 8.89409C18.4474 9.01596 18.4457 9.01816 18.4424 9.03951C19.6688 9.69922 19.8274 11.3785 18.7589 12.2576C19.3206 12.4955 19.9343 12.5322 20.5464 12.3642C20.6487 12.3361 20.758 12.3499 20.8502 12.4024C20.9425 12.4549 21.01 12.5418 21.0381 12.6442C21.0662 12.7465 21.0525 12.8558 21 12.948C20.9475 13.0402 20.8605 13.1078 20.7582 13.1358C20.401 13.2345 20.0308 13.2775 19.6606 13.2634C19.7645 13.9286 19.6629 14.6192 19.3603 15.2284C19.2624 15.4256 19.0225 15.5073 18.824 15.4087C18.777 15.3853 18.735 15.3529 18.7005 15.3133C18.6659 15.2737 18.6395 15.2277 18.6228 15.1779C18.6061 15.1281 18.5993 15.0755 18.6029 15.023C18.6065 14.9706 18.6203 14.9194 18.6437 14.8724C18.9125 14.3314 18.9714 13.7053 18.8145 13.1256C18.4711 13.0245 18.1454 12.871 17.8489 12.6704C17.5367 12.7215 16.4658 12.6832 15.3888 13.4154C15.3102 13.4686 15.2529 13.5478 15.2269 13.6391C14.7316 15.3946 15.921 17.6663 18.4045 17.6663C22.6626 17.6663 25.3397 10.4268 23.3052 6.39998Z" fill="#477BFF"/>
</svg>
