<svg width="24" height="24" viewBox="0 0 24 24" fill="none" xmlns="http://www.w3.org/2000/svg">
<g clip-path="url(#clip0_4596_1926)">
<path d="M22.1235 13.7873C21.8276 14.1297 21.4618 14.4047 21.0508 14.5939C20.6397 14.7831 20.1929 14.8821 19.7404 14.8842C19.7066 14.8842 19.6747 14.8842 19.641 14.8823C19.5913 14.8815 19.5439 14.861 19.5092 14.8253C19.4746 14.7896 19.4556 14.7416 19.4564 14.6919C19.4572 14.6421 19.4777 14.5948 19.5134 14.5601C19.5491 14.5255 19.5971 14.5065 19.6468 14.5073H19.6522C19.6822 14.5092 19.7104 14.5092 19.7404 14.5092C21.3154 14.5092 22.596 13.1742 22.596 11.5335C22.6003 11.136 22.525 10.7416 22.3747 10.3736C22.2243 10.0056 22.0018 9.67136 21.7204 9.39059C21.7083 9.37779 21.6982 9.36325 21.6904 9.34747C21.6904 9.34559 21.6885 9.34372 21.6885 9.34184C21.6753 9.31757 21.6677 9.29062 21.6664 9.26302C21.6651 9.23541 21.6701 9.20787 21.681 9.18247C21.7769 8.88051 21.8256 8.56555 21.8254 8.24872C21.8254 6.60434 20.5429 5.26953 18.968 5.26953C17.3932 5.26953 16.1105 6.60434 16.1105 8.24872C16.1105 8.29844 16.0908 8.34614 16.0556 8.3813C16.0205 8.41646 15.9728 8.43622 15.923 8.43622C15.8733 8.43622 15.8256 8.41646 15.7905 8.3813C15.7553 8.34614 15.7355 8.29844 15.7355 8.24872C15.7355 6.39809 17.1849 4.89453 18.968 4.89453H18.983C19.0807 4.62327 19.1308 4.3372 19.1312 4.0489C19.1312 2.78703 18.2105 1.75953 17.0818 1.75953C16.7053 1.76876 16.3387 1.88255 16.0231 2.08818C15.7076 2.29381 15.4554 2.58317 15.2949 2.9239C15.2842 2.94614 15.2691 2.96599 15.2505 2.98226C15.232 2.99853 15.2103 3.01088 15.1868 3.01858C15.1634 3.02629 15.1386 3.02918 15.114 3.02708C15.0894 3.02499 15.0655 3.01796 15.0437 3.0064C14.9995 2.98393 14.966 2.94488 14.9506 2.8978C14.9351 2.85072 14.9389 2.79944 14.9612 2.75515C15.1479 2.36335 15.4372 2.02937 15.7983 1.7886C16.1594 1.54783 16.5789 1.40924 17.0124 1.38753C16.1248 0.768779 14.4043 -0.267158 13.2251 0.0647166C12.7376 0.203467 12.3982 0.557842 12.1864 1.15222V5.57347C12.3744 5.31258 12.6326 5.11034 12.931 4.99021C13.2293 4.87007 13.5556 4.83696 13.872 4.89472C13.9215 4.90093 13.9664 4.92655 13.997 4.96593C14.0276 5.00531 14.0413 5.05524 14.0351 5.10472C14.0289 5.1542 14.0033 5.19918 13.9639 5.22977C13.9245 5.26036 13.8746 5.27406 13.8251 5.26784C12.5351 5.10472 12.222 6.27078 12.1864 6.42078V20.2313C12.1864 22.3086 13.7107 24 15.5855 24C16.8118 24 17.9368 23.2538 18.5199 22.0538C18.5218 22.05 18.5255 22.0482 18.5274 22.0444C18.5337 22.0341 18.5413 22.0247 18.5499 22.0163C18.557 22.0067 18.5652 21.9979 18.5743 21.99C18.583 21.9833 18.5924 21.9777 18.6024 21.9732C18.6134 21.9663 18.6254 21.9612 18.638 21.9582L18.6493 21.9525C19.3065 21.7962 19.8911 21.4212 20.3073 20.8892C20.7236 20.3571 20.9468 19.6995 20.9404 19.024C20.9386 18.7941 20.9109 18.5651 20.8579 18.3415C20.8588 18.3346 20.8588 18.3277 20.8579 18.3208C20.8569 18.309 20.8569 18.2971 20.8579 18.2852C20.8581 18.2751 20.8593 18.2651 20.8616 18.2552C20.8659 18.2389 20.8722 18.2231 20.8804 18.2083C20.8821 18.2036 20.8847 18.1992 20.8879 18.1952C20.8997 18.178 20.9143 18.1628 20.931 18.1502L20.9347 18.1465C20.9441 18.1408 20.9497 18.1333 20.9591 18.1277C21.3339 17.9325 21.664 17.6616 21.9285 17.3321C22.193 17.0025 22.3861 16.6216 22.4956 16.2135C22.6051 15.8054 22.6285 15.379 22.5645 14.9613C22.5004 14.5436 22.3502 14.1438 22.1235 13.7873ZM17.7099 17.8296C17.4533 17.838 17.1982 17.8725 16.9487 17.9327C16.9143 17.964 16.8695 17.9813 16.823 17.9815H16.8185C16.8064 17.9808 16.7943 17.9782 16.7829 17.974C15.8998 18.2196 14.7035 18.8833 14.7185 20.674C14.7185 20.7239 14.6988 20.7717 14.6637 20.8072C14.6286 20.8426 14.5809 20.8628 14.531 20.8633C14.5065 20.8635 14.4822 20.8588 14.4595 20.8496C14.4369 20.8403 14.4162 20.8267 14.3988 20.8094C14.3814 20.7922 14.3675 20.7717 14.3581 20.7491C14.3486 20.7265 14.3436 20.7022 14.3435 20.6777C14.3269 18.6958 15.6429 17.9327 16.6329 17.6383C16.5973 14.5429 13.83 14.2542 13.71 14.2429C13.6604 14.238 13.6148 14.2138 13.5829 14.1756C13.551 14.1374 13.5354 14.0882 13.5394 14.0385C13.5441 13.9891 13.5683 13.9435 13.6066 13.9119C13.6449 13.8802 13.6943 13.8651 13.7437 13.8698C13.7756 13.8717 16.9142 14.1867 17.0062 17.5448C17.2363 17.4946 17.4703 17.4645 17.7056 17.4548H17.7075C17.7572 17.4545 17.805 17.474 17.8403 17.509C17.8757 17.544 17.8957 17.5916 17.8959 17.6413C17.8962 17.6911 17.8767 17.7389 17.8417 17.7742C17.8067 17.8095 17.7591 17.8295 17.7094 17.8298L17.7099 17.8296ZM18.968 12.9867H18.9549C17.0387 12.8498 16.6187 11.3329 16.5324 10.825C15.7039 10.7476 14.9367 10.3549 14.3893 9.72809C14.3585 9.69032 14.3436 9.64205 14.3478 9.5935C14.352 9.54495 14.375 9.49995 14.4118 9.46801C14.4486 9.43608 14.4964 9.41973 14.545 9.42243C14.5937 9.42513 14.6394 9.44666 14.6724 9.48247C14.9442 9.79316 15.2795 10.0418 15.6557 10.2117C16.032 10.3815 16.4403 10.4685 16.853 10.4668C17.5954 10.478 18.3119 10.1943 18.8454 9.67795C19.3789 9.16162 19.6859 8.4548 19.6991 7.71247C19.6991 7.66274 19.7189 7.61505 19.754 7.57988C19.7892 7.54472 19.8369 7.52497 19.8866 7.52497C19.9363 7.52497 19.984 7.54472 20.0192 7.57988C20.0544 7.61505 20.0741 7.66274 20.0741 7.71247C20.0611 8.54357 19.7226 9.33642 19.1314 9.92072C18.5402 10.505 17.7435 10.8342 16.9123 10.8375C17.0042 11.3211 17.3904 12.4986 18.9804 12.6111C19.0301 12.6128 19.0771 12.6343 19.1111 12.6706C19.145 12.707 19.1631 12.7554 19.1614 12.8052C19.1596 12.8549 19.1382 12.9019 19.1018 12.9358C19.0654 12.9697 19.017 12.9878 18.9673 12.9861L18.968 12.9867ZM10.1276 4.89378C10.4439 4.83567 10.7703 4.8687 11.0686 4.98901C11.3669 5.10932 11.6248 5.31195 11.8123 5.57328V1.15203C11.6023 0.557842 11.261 0.203467 10.7754 0.0645291C9.59323 -0.269033 7.87217 0.768779 6.98529 1.38753C7.41889 1.40938 7.83853 1.54791 8.19991 1.7885C8.56129 2.02909 8.85099 2.36281 9.03842 2.7544C9.0608 2.79891 9.06458 2.85048 9.04893 2.89778C9.03328 2.94507 8.99949 2.98421 8.95498 3.00659C8.91048 3.02897 8.8589 3.03275 8.81161 3.0171C8.76431 3.00145 8.72517 2.96766 8.70279 2.92315C8.54247 2.58266 8.29063 2.29346 7.97541 2.08784C7.6602 1.88222 7.29402 1.76829 6.91779 1.75878C5.78717 1.75878 4.86842 2.78628 4.86842 4.04815C4.86788 4.33653 4.91802 4.62276 5.01654 4.89378H5.03154C6.81279 4.89378 8.26404 6.39734 8.26404 8.24797C8.26404 8.29769 8.24429 8.34539 8.20913 8.38055C8.17396 8.41571 8.12627 8.43547 8.07654 8.43547C8.02682 8.43547 7.97913 8.41571 7.94396 8.38055C7.9088 8.34539 7.88904 8.29769 7.88904 8.24797C7.88904 6.60359 6.60654 5.26878 5.03154 5.26878C3.45654 5.26878 2.17236 6.60434 2.17236 8.24872C2.17209 8.56555 2.22079 8.88051 2.31673 9.18247C2.32788 9.20773 2.33317 9.2352 2.33219 9.2628C2.33122 9.2904 2.32401 9.31742 2.31111 9.34184C2.3097 9.34466 2.3078 9.3472 2.30548 9.34934C2.299 9.36485 2.28943 9.37889 2.27736 9.39059C1.99611 9.67142 1.77392 10.0057 1.62386 10.3737C1.4738 10.7418 1.39891 11.1361 1.40361 11.5335C1.40361 13.1742 2.68423 14.5092 4.25923 14.5092C4.28717 14.5092 4.31717 14.5092 4.34529 14.5073C4.39441 14.5079 4.44151 14.5269 4.47727 14.5606C4.51303 14.5943 4.53485 14.6402 4.53842 14.6892C4.5394 14.7138 4.53545 14.7384 4.52681 14.7616C4.51817 14.7847 4.505 14.8059 4.48809 14.8238C4.47117 14.8418 4.45085 14.8562 4.42829 14.8663C4.40574 14.8763 4.38141 14.8818 4.35673 14.8823C4.32467 14.8842 4.29092 14.8842 4.25923 14.8842C3.80654 14.882 3.35954 14.7831 2.94826 14.5939C2.53699 14.4047 2.17097 14.1296 1.87479 13.7873C1.64868 14.144 1.49904 14.5438 1.43533 14.9613C1.37162 15.3788 1.39522 15.805 1.50466 16.213C1.61409 16.6209 1.80697 17.0017 2.0711 17.3313C2.33523 17.6609 2.66487 17.9321 3.03917 18.1277C3.04764 18.1335 3.05577 18.1398 3.06354 18.1465C3.06542 18.1483 3.06729 18.1483 3.06917 18.1502C3.0854 18.1633 3.09989 18.1784 3.11229 18.1952C3.11407 18.2 3.1166 18.2044 3.11979 18.2083C3.12736 18.2232 3.13303 18.2389 3.13667 18.2552C3.13962 18.265 3.1415 18.275 3.14229 18.2852C3.14261 18.2971 3.14198 18.309 3.14042 18.3208C3.14136 18.3277 3.14136 18.3346 3.14042 18.3415C3.08828 18.5653 3.06061 18.7941 3.05792 19.024C3.05158 19.6996 3.27497 20.3574 3.69147 20.8895C4.10796 21.4216 4.69286 21.7964 5.35029 21.9525C5.35385 21.9548 5.35761 21.9567 5.36154 21.9582C5.37313 21.9624 5.38441 21.9674 5.39529 21.9732C5.40568 21.9781 5.41571 21.9837 5.42529 21.99C5.43329 21.9977 5.44081 22.0058 5.44779 22.0144C5.45738 22.0238 5.46558 22.0346 5.47217 22.0463C5.47404 22.0482 5.47779 22.05 5.47779 22.0538C6.06279 23.2538 7.18592 24 8.41404 24C10.287 24 11.8123 22.3088 11.8123 20.2313V6.42059C11.7785 6.27059 11.4654 5.1064 10.1735 5.26765C10.1241 5.27362 10.0742 5.25969 10.035 5.22892C9.99583 5.19815 9.97045 5.15307 9.96448 5.10359C9.95851 5.05411 9.97245 5.00429 10.0032 4.96508C10.034 4.92587 10.0791 4.9005 10.1285 4.89453L10.1276 4.89378ZM5.04467 12.9867H5.03154C4.98182 12.9884 4.93343 12.9703 4.89704 12.9364C4.86065 12.9024 4.83922 12.8554 4.83748 12.8057C4.83574 12.756 4.85383 12.7076 4.88776 12.6712C4.92169 12.6348 4.96869 12.6134 5.01842 12.6117C6.60654 12.4992 6.99467 11.3217 7.08654 10.8381C6.25508 10.835 5.45802 10.5058 4.86661 9.92137C4.27519 9.33693 3.93661 8.54383 3.92361 7.71247C3.92361 7.66274 3.94336 7.61505 3.97852 7.57988C4.01369 7.54472 4.06138 7.52497 4.11111 7.52497C4.16083 7.52497 4.20853 7.54472 4.24369 7.57988C4.27885 7.61505 4.29861 7.66274 4.29861 7.71247C4.31183 8.45482 4.61887 9.16164 5.15241 9.67796C5.68596 10.1943 6.40247 10.478 7.14486 10.4668C7.55769 10.4689 7.96613 10.3821 8.3424 10.2122C8.71868 10.0423 9.05397 9.79346 9.32548 9.48247C9.34125 9.46271 9.36085 9.44635 9.3831 9.43436C9.40535 9.42238 9.42979 9.41501 9.45496 9.41271C9.48013 9.41041 9.50551 9.41322 9.52956 9.42098C9.55362 9.42874 9.57586 9.44127 9.59494 9.45784C9.61403 9.47441 9.62957 9.49467 9.64063 9.5174C9.65169 9.54012 9.65803 9.56485 9.65929 9.59009C9.66055 9.61534 9.65669 9.64058 9.64795 9.66429C9.63921 9.688 9.62576 9.70971 9.60842 9.72809C9.0619 10.3549 8.29534 10.7476 7.46736 10.825C7.37904 11.3329 6.96092 12.8498 5.04467 12.9867ZM10.256 13.8698C10.2805 13.8673 10.3052 13.8697 10.3286 13.8769C10.3521 13.884 10.3739 13.8958 10.3928 13.9115C10.4117 13.9273 10.4272 13.9466 10.4385 13.9684C10.4498 13.9902 10.4566 14.0141 10.4585 14.0385C10.4629 14.0882 10.4474 14.1376 10.4154 14.1759C10.3834 14.2142 10.3376 14.2383 10.2879 14.2429C10.1698 14.2542 7.40042 14.5429 7.36498 17.6383C8.35498 17.9327 9.67123 18.6958 9.65604 20.6777C9.65555 20.7271 9.63558 20.7743 9.60047 20.8091C9.56536 20.8438 9.51795 20.8633 9.46854 20.8633H9.46667C9.44205 20.8631 9.41771 20.858 9.39506 20.8484C9.3724 20.8387 9.35187 20.8247 9.33463 20.8071C9.3174 20.7895 9.30379 20.7687 9.2946 20.7459C9.2854 20.723 9.2808 20.6986 9.28104 20.674C9.29417 18.8815 8.10373 18.2196 7.21854 17.974C7.20565 17.9775 7.19248 17.9801 7.17917 17.9815H7.17729C7.15304 17.9818 7.12895 17.9773 7.10643 17.9683C7.08391 17.9593 7.06338 17.9459 7.04604 17.929C6.79822 17.8702 6.54502 17.8369 6.29042 17.8296C6.24069 17.8293 6.1931 17.8093 6.15811 17.774C6.12312 17.7387 6.10361 17.6909 6.10386 17.6412C6.10411 17.5914 6.1241 17.5438 6.15944 17.5088C6.19478 17.4739 6.24257 17.4543 6.29229 17.4546H6.29417C6.52885 17.4642 6.76223 17.4943 6.99167 17.5446C7.08467 14.1867 10.2214 13.8717 10.256 13.8698Z" fill="#477BFF"/>
</g>
<defs>
<clipPath id="clip0_4596_1926">
<rect width="24" height="24" fill="white"/>
</clipPath>
</defs>
</svg>
