<svg width="24" height="24" viewBox="0 0 24 24" fill="none" xmlns="http://www.w3.org/2000/svg">
<g clip-path="url(#clip0_4596_1921)">
<path d="M7.08034 14.2032H5.62413C5.62413 15.061 5.31484 15.8477 4.80273 16.4585C5.61273 18.422 7.20358 19.9838 9.18663 20.7553V17.594C8.06819 16.8233 7.27994 15.6067 7.08034 14.2032ZM16.9179 14.2032C16.7183 15.6067 15.9298 16.8233 14.8116 17.594V20.7553C16.7947 19.9838 18.3855 18.422 19.1955 16.4585C18.6834 15.8477 18.3741 15.0611 18.3741 14.2032H16.9179ZM11.9991 12.3137C11.2468 13.4457 9.96283 14.195 8.50656 14.2028C8.83375 15.8317 10.2752 17.0626 11.9991 17.0626C13.7229 17.0626 15.1645 15.8317 15.4917 14.2028C14.0354 14.195 12.7515 13.4457 11.9991 12.3137ZM10.5929 18.266V24.047H13.4054V18.266C12.9593 18.3978 12.4873 18.4688 11.9991 18.4688C11.511 18.4688 11.0389 18.3978 10.5929 18.266Z" fill="#477BFF"/>
<path d="M22.3174 7.85098C22.7439 6.71355 22.6099 5.39098 21.8425 4.33465C21.0751 3.27846 19.8585 2.7423 18.6451 2.79635C18.3215 1.6256 17.4357 0.634241 16.194 0.230882C14.9524 -0.172525 13.6531 0.108725 12.7031 0.86571V9.98435C12.7031 11.5376 13.9623 12.7969 15.5156 12.7969H19.7812V14.2031C19.7812 15.368 20.7257 16.3125 21.8906 16.3125C23.0556 16.3125 24 15.368 24 14.2031V10.9748C24 9.66921 23.331 8.52035 22.3174 7.85098ZM11.2969 9.98435V0.86571C10.3469 0.108725 9.04762 -0.172525 7.80595 0.230882C6.56433 0.634241 5.67848 1.6256 5.35491 2.79635C4.1415 2.74235 2.92491 3.27846 2.15756 4.33465C1.39013 5.39098 1.25611 6.71355 1.68258 7.85079C0.669047 8.52044 0 9.66921 0 10.9748V14.2031C0 15.368 0.944438 16.3125 2.10938 16.3125C3.27431 16.3125 4.21875 15.368 4.21875 14.2031V12.7969H8.48438C10.0377 12.7969 11.2969 11.5376 11.2969 9.98435Z" fill="#477BFF"/>
</g>
<defs>
<clipPath id="clip0_4596_1921">
<rect width="24" height="24" fill="white"/>
</clipPath>
</defs>
</svg>
