<svg width="24" height="24" viewBox="0 0 24 24" fill="none" xmlns="http://www.w3.org/2000/svg">
<g clip-path="url(#clip0_4596_1930)">
<path d="M13.5 10.845C13.7071 10.845 13.875 10.5999 13.875 10.2975C13.875 9.99512 13.7071 9.75 13.5 9.75C13.2929 9.75 13.125 9.99512 13.125 10.2975C13.125 10.5999 13.2929 10.845 13.5 10.845Z" fill="#477BFF"/>
<path d="M17.25 10.845C17.4571 10.845 17.625 10.5999 17.625 10.2975C17.625 9.99512 17.4571 9.75 17.25 9.75C17.0429 9.75 16.875 9.99512 16.875 10.2975C16.875 10.5999 17.0429 10.845 17.25 10.845Z" fill="#477BFF"/>
<path d="M15.375 13.0297C16.1625 13.0297 16.7812 12.5775 16.7812 12C16.7812 11.9254 16.7516 11.8539 16.6989 11.8011C16.6461 11.7484 16.5746 11.7188 16.5 11.7188C16.4254 11.7188 16.3539 11.7484 16.3011 11.8011C16.2484 11.8539 16.2188 11.9254 16.2188 12C16.2188 12.2209 15.8722 12.4672 15.375 12.4672C14.8778 12.4672 14.5312 12.2209 14.5312 12C14.5312 11.9254 14.5016 11.8539 14.4489 11.8011C14.3961 11.7484 14.3246 11.7188 14.25 11.7188C14.1754 11.7188 14.1039 11.7484 14.0511 11.8011C13.9984 11.8539 13.9688 11.9254 13.9688 12C13.9688 12.5775 14.5875 13.0297 15.375 13.0297Z" fill="#477BFF"/>
<path d="M1.30703 16.6586L3.43216 17.8733L4.89016 22.9766C4.9123 23.0553 4.95952 23.1246 5.02464 23.1739C5.08975 23.2232 5.16921 23.25 5.25091 23.25H22.8759C22.9315 23.25 22.9864 23.2376 23.0366 23.2137C23.0868 23.1899 23.131 23.1551 23.1662 23.1121C23.2013 23.069 23.2264 23.0187 23.2397 22.9647C23.253 22.9107 23.2541 22.8545 23.243 22.8L22.4259 18.8408C22.8926 18.1419 23.1762 17.337 23.2509 16.5C23.251 16.1186 23.1679 15.7418 23.0073 15.3959C22.8468 15.05 22.6126 14.7432 22.3213 14.4971C22.6171 14.3759 22.8661 14.1628 23.0316 13.8892C23.1971 13.6157 23.2703 13.2962 23.2404 12.9779C23.2106 12.6596 23.0792 12.3593 22.8657 12.1213C22.6522 11.8833 22.3679 11.7203 22.0547 11.6561C21.8528 10.7703 21.7509 9.86467 21.7509 8.95615V7.29265C21.7755 5.6315 21.1585 4.02486 20.0283 2.80721C18.8981 1.58956 17.3418 0.854712 15.6834 0.755647C15.4784 0.750396 15.2734 0.750396 15.0684 0.755647C13.41 0.854712 11.8538 1.58956 10.7236 2.80721C9.59336 4.02486 8.97633 5.6315 9.00091 7.29265V8.9554C9.00089 9.86392 8.89901 10.7696 8.69716 11.6554C8.3978 11.7177 8.12446 11.8695 7.91341 12.0908C7.74545 12.2661 7.62303 12.4798 7.55687 12.7134C7.49071 12.947 7.48281 13.1932 7.53388 13.4306C7.58495 13.6679 7.69343 13.8891 7.84981 14.0748C8.0062 14.2604 8.20572 14.405 8.43091 14.4956C8.1393 14.7419 7.90499 15.0488 7.74435 15.395C7.58372 15.7412 7.50063 16.1184 7.50091 16.5C7.56291 17.277 7.79132 18.0316 8.17066 18.7125L7.81103 20.4064L6.39391 17.5721L6.65903 16.2461C6.69861 16.0483 6.67349 15.843 6.58737 15.6606C6.50126 15.4782 6.35873 15.3283 6.18085 15.2331C6.00297 15.138 5.7992 15.1026 5.59965 15.1322C5.4001 15.1618 5.21537 15.2548 5.07278 15.3975L4.78553 15.6848L2.26478 14.6753C2.00531 14.5718 1.71627 14.5706 1.45592 14.6718C1.19557 14.773 0.983263 14.9692 0.861796 15.2207C0.740329 15.4723 0.71873 15.7605 0.801352 16.0273C0.883974 16.2942 1.06467 16.5198 1.30703 16.6586ZM15.0009 20.7683L13.5845 20.0603L13.8564 19.2435C13.8879 19.1492 13.8806 19.0462 13.8361 18.9573C13.7917 18.8683 13.7137 18.8006 13.6194 18.7691L12.7089 18.4658L12.4247 16.7595L13.3097 16.5529L15.0009 19.5971V20.7683ZM13.8759 15.8584V15.6563C13.8759 15.6563 16.5444 14.4296 16.8759 14.3003V15.8584C15.9035 16.1907 14.8483 16.1907 13.8759 15.8584ZM16.8954 19.2435L17.1673 20.0603L15.7509 20.7683V19.5971L17.4407 16.5555L18.3253 16.77L18.0429 18.4643L17.132 18.7695C17.0379 18.8011 16.9601 18.8687 16.9157 18.9576C16.8713 19.0465 16.864 19.1493 16.8954 19.2435ZM21.182 17.4638C21.2581 17.4887 21.3247 17.5362 21.3731 17.5999C21.4215 17.6636 21.4495 17.7405 21.4532 17.8204L22.4158 22.5H20.6259V21C20.6259 20.9006 20.5864 20.8052 20.5161 20.7349C20.4457 20.6645 20.3504 20.625 20.2509 20.625C20.1515 20.625 20.0561 20.6645 19.9857 20.7349C19.9154 20.8052 19.8759 20.9006 19.8759 21V22.5H15.7509V21.6068L17.7935 20.5875C17.8742 20.5471 17.9376 20.4789 17.972 20.3954C18.0065 20.312 18.0097 20.219 17.981 20.1334L17.7249 19.3635L18.4944 19.1059C18.559 19.0843 18.6164 19.0455 18.6606 18.9937C18.7048 18.9419 18.7341 18.8791 18.7453 18.8119L19.0558 16.9496L21.182 17.4638ZM12.0009 8.62502H14.3705C14.8383 8.62604 15.2931 8.47083 15.6626 8.18401C16.0322 7.89719 16.2954 7.49519 16.4105 7.04177L16.7585 5.81927L17.1729 7.2919C17.2628 7.6506 17.4638 7.97168 17.7473 8.20918C18.0307 8.44669 18.382 8.58844 18.7509 8.61415V10.4554C18.7509 10.9163 18.6566 11.3723 18.4736 11.7953C18.2906 12.2183 18.023 12.5994 17.6871 12.915C17.3513 13.2306 16.9544 13.4741 16.5208 13.6304C16.0873 13.7868 15.6263 13.8526 15.1663 13.824C14.2907 13.7502 13.476 13.3457 12.888 12.6927C12.3001 12.0397 11.9828 11.1873 12.0009 10.3088V8.62502ZM9.12653 17.8226C9.12923 17.8103 9.13124 17.7977 9.13253 17.7851C9.13892 17.7149 9.16521 17.648 9.20832 17.5922C9.25143 17.5364 9.30957 17.4941 9.37591 17.4701L11.6934 16.9298L12.0069 18.8115C12.0181 18.8788 12.0474 18.9418 12.0916 18.9936C12.1359 19.0455 12.1935 19.0843 12.2582 19.1059L13.0273 19.362L12.7712 20.1315C12.7425 20.2171 12.7457 20.3101 12.7802 20.3936C12.8146 20.477 12.878 20.5452 12.9587 20.5856L15.0009 21.6068V22.5H10.8759V21C10.8759 20.9006 10.8364 20.8052 10.7661 20.7349C10.6957 20.6645 10.6004 20.625 10.5009 20.625C10.4015 20.625 10.3061 20.6645 10.2357 20.7349C10.1654 20.8052 10.1259 20.9006 10.1259 21V22.5H8.85766L8.34916 21.4826L9.12653 17.8226ZM1.65653 15.4069C1.70418 15.3738 1.75937 15.3533 1.81703 15.3471C1.87469 15.341 1.93298 15.3494 1.98653 15.3716L4.73678 16.4715C4.80489 16.4988 4.87948 16.5054 4.95133 16.4907C5.02318 16.476 5.08914 16.4405 5.14103 16.3886L5.60303 15.9263C5.63189 15.8976 5.66919 15.8789 5.70945 15.873C5.74972 15.8671 5.79081 15.8742 5.8267 15.8934C5.86259 15.9126 5.89138 15.9428 5.90883 15.9796C5.92628 16.0163 5.93148 16.0577 5.92366 16.0976L5.63341 17.55C5.61686 17.6318 5.62808 17.7168 5.66528 17.7915L8.01916 22.5H5.53366L4.11166 17.5204C4.08475 17.4262 4.02203 17.3462 3.93691 17.2976L1.67941 16.0076C1.62528 15.9766 1.58029 15.9318 1.54895 15.8778C1.51762 15.8238 1.50105 15.7626 1.50091 15.7001C1.5005 15.6422 1.51451 15.5851 1.54168 15.5339C1.56884 15.4827 1.60831 15.439 1.65653 15.4069Z" fill="#477BFF"/>
<path d="M5.04341 8.91458L5.40529 9.04546C5.88233 9.21747 6.40817 9.19299 6.86716 8.97738C7.32616 8.76177 7.68073 8.37269 7.85291 7.89571C7.88669 7.80221 7.88196 7.69914 7.83977 7.60913C7.79758 7.51913 7.72138 7.44955 7.62791 7.41571L7.26604 7.28483C6.83721 7.13203 6.36794 7.13721 5.94259 7.29943C5.51724 7.46165 5.16371 7.77028 4.94554 8.16983C4.90492 7.86444 4.81766 7.5671 4.68679 7.28821C4.66583 7.24364 4.63631 7.20363 4.59989 7.17048C4.56348 7.13732 4.52089 7.11166 4.47456 7.09497C4.42823 7.07827 4.37906 7.07086 4.32987 7.07316C4.28068 7.07547 4.23242 7.08744 4.18785 7.10839C4.14328 7.12935 4.10328 7.15887 4.07012 7.19529C4.03697 7.2317 4.01131 7.27429 3.99461 7.32062C3.97791 7.36695 3.97051 7.41612 3.97281 7.46531C3.97511 7.5145 3.98708 7.56276 4.00804 7.60733C4.2376 8.09426 4.28355 8.64772 4.13741 9.16583C3.93719 8.99618 3.70872 8.86303 3.46241 8.77246C2.28529 8.34758 1.43741 8.74471 1.01404 9.92183C0.814359 10.5328 0.815673 11.1916 1.01779 11.8017C1.10175 12.1188 1.25798 12.4121 1.47423 12.6588C1.69048 12.9054 1.9609 13.0986 2.26429 13.2233C2.51241 13.3149 2.77701 13.3532 3.04091 13.3358C3.23284 13.5179 3.46108 13.6573 3.71066 13.745C3.89881 13.8124 4.0973 13.8464 4.29716 13.8455C4.84275 13.8036 5.3654 13.6085 5.80484 13.2824C6.24428 12.9564 6.5826 12.5127 6.78079 12.0027C6.884 11.768 6.93984 11.5153 6.94512 11.259C6.9504 11.0026 6.905 10.7478 6.81154 10.5091C6.68943 10.2786 6.52192 10.0752 6.3191 9.91118C6.11628 9.74716 5.88235 9.6259 5.63141 9.55471C5.37875 9.46494 5.11202 9.42125 4.84391 9.42571C4.89953 9.2414 4.93721 9.05214 4.95641 8.86058C4.98268 8.88265 5.01198 8.90083 5.04341 8.91458Z" fill="#477BFF"/>
</g>
<defs>
<clipPath id="clip0_4596_1930">
<rect width="24" height="24" fill="white"/>
</clipPath>
</defs>
</svg>
