<svg width="24" height="24" viewBox="0 0 24 24" fill="none" xmlns="http://www.w3.org/2000/svg">
<path fill-rule="evenodd" clip-rule="evenodd" d="M20.4136 13.8008C20.4518 13.804 20.4903 13.7986 20.5262 13.785C20.5621 13.7714 20.5946 13.75 20.6212 13.7223C20.6467 13.697 20.6669 13.6669 20.6808 13.6337C20.6946 13.6006 20.7018 13.565 20.7018 13.5291V12.9221C20.7014 12.8496 20.6725 12.7802 20.6212 12.7289C20.5699 12.6776 20.5004 12.6486 20.4279 12.6482H16.731C16.6585 12.6486 16.589 12.6776 16.5377 12.7288C16.4864 12.7801 16.4574 12.8496 16.457 12.9221V13.5293C16.4571 13.5652 16.4643 13.6008 16.4781 13.6339C16.4919 13.6671 16.5122 13.6972 16.5377 13.7225C16.5643 13.7502 16.5967 13.7716 16.6327 13.7852C16.6686 13.7987 16.7071 13.8041 16.7453 13.801L20.4136 13.8008Z" fill="#477BFF"/>
<path d="M17.002 14.3186H20.1549V15.1218H17.002V14.3186Z" fill="#477BFF"/>
<path fill-rule="evenodd" clip-rule="evenodd" d="M15.1277 21.6196V16.9749C15.1275 16.5948 15.2449 16.224 15.4639 15.9133C15.1504 15.3104 14.6839 14.8005 14.1112 14.4347C13.4989 14.0432 12.7871 13.8355 12.0604 13.8363H11.8016V16.4324C11.9914 16.4941 12.1528 16.6216 12.257 16.7918C12.3611 16.962 12.401 17.1638 12.3696 17.3608C12.3382 17.5578 12.2374 17.7372 12.0855 17.8665C11.9336 17.9959 11.7405 18.0668 11.541 18.0664C11.3415 18.0661 11.1486 17.9945 10.9972 17.8646C10.8457 17.7347 10.7456 17.5549 10.7149 17.3578C10.6842 17.1606 10.7249 16.959 10.8297 16.7892C10.9344 16.6193 11.0963 16.4925 11.2863 16.4315V13.8363H10.6362C10.6329 13.8737 10.6214 13.91 10.6025 13.9426L8.89072 16.9075L9.16986 17.5539C9.18701 17.5891 9.19591 17.6277 9.19587 17.6668V21.6196H13.3284V19.2625C13.3308 19.1958 13.359 19.1326 13.407 19.0862C13.4551 19.0398 13.5193 19.0139 13.5861 19.0139C13.6529 19.0139 13.717 19.0398 13.7651 19.0862C13.8131 19.1326 13.8413 19.1958 13.8437 19.2625V21.6196H15.1277ZM20.1752 15.6371H16.9808C16.6264 15.6383 16.2868 15.7796 16.0362 16.0303C15.7855 16.2809 15.6442 16.6205 15.643 16.9749V22.1107C15.6436 22.2763 15.7097 22.435 15.8268 22.552C15.9439 22.6691 16.1025 22.7352 16.2681 22.7358H20.888C21.0536 22.7352 21.2122 22.6691 21.3293 22.552C21.4464 22.4349 21.5125 22.2763 21.5131 22.1107V16.9749C21.5119 16.6205 21.3706 16.2809 21.1199 16.0302C20.8693 15.7796 20.5297 15.6383 20.1752 15.6371ZM20.6141 18.3036C20.6375 18.4696 20.628 18.6386 20.586 18.8009C20.544 18.9632 20.4703 19.1157 20.3693 19.2494L18.8255 21.2915C18.621 21.5614 18.3177 21.7391 17.9823 21.7856C17.6469 21.8321 17.3068 21.7435 17.0366 21.5393C16.7665 21.3352 16.5884 21.0321 16.5416 20.6968C16.4948 20.3614 16.583 20.0212 16.7868 19.7508C17.3071 19.0743 17.8105 18.3848 18.3309 17.7083C18.4834 17.5073 18.6922 17.3559 18.9307 17.2733C19.1692 17.1907 19.4268 17.1806 19.6711 17.2443C19.9153 17.308 20.1352 17.4426 20.303 17.6311C20.4709 17.8197 20.5791 18.0537 20.6141 18.3036V18.3036ZM16.081 1.28136C15.5718 1.33948 15.0974 1.56851 14.7351 1.93105C13.2942 3.37194 14.5401 5.12 15.9867 6.56647C16.4491 7.02885 16.9124 7.44468 17.3273 7.81686C17.5034 7.97488 17.6715 8.12568 17.7522 8.19936C17.8336 8.27464 17.9404 8.31634 18.0512 8.31608C18.1621 8.31582 18.2687 8.27362 18.3497 8.19796C18.4533 8.10243 18.637 7.9363 18.8278 7.76361C19.2375 7.39293 19.6845 6.98858 20.1324 6.54069C21.5884 5.08471 22.8084 3.371 21.3685 1.93105C21.0058 1.56856 20.5311 1.33967 20.0216 1.28174C19.51 1.22134 18.9929 1.33514 18.5539 1.60475C18.4045 1.7021 18.23 1.75392 18.0517 1.75392C17.8733 1.75392 17.6988 1.7021 17.5494 1.60475C17.1102 1.33501 16.5929 1.22109 16.081 1.28136ZM7.27479 12.3584L7.27728 12.3496C6.99582 12.0082 6.77489 11.6211 6.62407 11.2052C6.40665 10.6106 6.29703 9.982 6.30036 9.34893C6.29984 8.95768 6.3407 8.56748 6.42223 8.18483C6.4995 7.81864 6.61977 7.46286 6.78054 7.12489C6.79879 7.08715 6.82599 7.05444 6.85977 7.0296C6.89356 7.00477 6.9329 6.98858 6.97437 6.98243C7.01584 6.97628 7.05819 6.98036 7.09772 6.99431C7.13726 7.00827 7.17278 7.03168 7.2012 7.0625C7.72179 7.61465 8.32881 8.07836 8.99843 8.43543C9.74902 8.83931 10.5493 9.14302 11.3789 9.3388C11.4367 9.35279 11.4879 9.38643 11.5237 9.43398C11.5595 9.48153 11.5776 9.54002 11.5751 9.59947C11.5523 10.2233 11.4167 10.8378 11.1747 11.4133C10.9637 11.9008 10.6791 12.3148 10.3427 12.6211L10.5594 13.2686C10.9677 13.152 11.355 12.9716 11.7069 12.7339C12.0936 12.4708 12.4216 12.1304 12.67 11.7341C12.9919 11.2302 13.1809 10.6531 13.2195 10.0565C13.2701 9.203 13.0266 8.66127 12.6841 7.92444C11.8903 6.21721 11.1783 4.68585 8.93825 4.68585C6.69823 4.68585 5.9862 6.2173 5.19237 7.92458C4.84981 8.66132 4.60643 9.20324 4.65706 10.0565C4.69568 10.6531 4.8847 11.2303 5.20653 11.7341C5.45628 12.1326 5.73706 12.4701 6.07648 12.7393C6.36544 12.9672 6.69231 13.1424 7.04211 13.2569L7.27479 12.3584Z" fill="#477BFF"/>
<path fill-rule="evenodd" clip-rule="evenodd" d="M7.70217 12.7586L7.47867 13.6223L8.63719 16.3192L10.158 13.6849C10.0877 13.4558 9.98667 13.1744 9.90806 12.9395C9.80909 12.9963 9.70561 13.0448 9.59869 13.0845C9.147 13.2539 8.6474 13.2426 8.20387 13.0528C8.02458 12.9769 7.85593 12.878 7.70217 12.7586ZM9.87717 12.3437C9.88247 12.339 9.88791 12.3348 9.89358 12.3306C10.2189 12.0709 10.4974 11.6838 10.702 11.21C10.8935 10.7568 11.0106 10.2757 11.0489 9.78528C10.25 9.57987 9.47913 9.278 8.7532 8.88631C8.15142 8.56272 7.59504 8.16102 7.09852 7.69165C7.02683 7.88734 6.96903 8.08783 6.92555 8.29165C6.85179 8.63928 6.81499 8.99373 6.81577 9.3491C6.81185 9.92087 6.9099 10.4888 7.10531 11.0261C7.29309 11.5279 7.56216 11.9471 7.88428 12.2408C8.0359 12.3819 8.21059 12.4961 8.40075 12.5783C8.7252 12.7171 9.09069 12.7255 9.42117 12.6017C9.58559 12.5398 9.73941 12.4527 9.87717 12.3437ZM11.5606 16.9059C11.4587 16.9122 11.39 16.9257 11.3139 17.0018C11.2616 17.0546 11.229 17.1238 11.2215 17.1978C11.2141 17.2719 11.2323 17.3462 11.2731 17.4084C11.3139 17.4706 11.3748 17.5169 11.4456 17.5396C11.5164 17.5622 11.5929 17.5599 11.6623 17.533C11.7316 17.506 11.7896 17.4561 11.8265 17.3916C11.8635 17.327 11.8771 17.2517 11.8652 17.1783C11.8533 17.1049 11.8166 17.0378 11.7611 16.9882C11.7057 16.9386 11.6349 16.9096 11.5606 16.9059ZM6.09802 16.5941V13.8362H5.81677C4.80184 13.8394 3.82937 14.2439 3.11171 14.9616C2.39404 15.6793 1.98947 16.6517 1.98633 17.6667V21.6196H4.03322V19.2625C4.0356 19.1957 4.06379 19.1325 4.11185 19.0861C4.15991 19.0398 4.22408 19.0138 4.29087 19.0138C4.35765 19.0138 4.42183 19.0398 4.46989 19.0861C4.51795 19.1325 4.54613 19.1957 4.54852 19.2625V21.6196H8.68111V17.7196L7.00434 13.8364H6.61336V16.5941C6.92952 16.632 7.2209 16.7842 7.43256 17.0222C7.64421 17.2601 7.76152 17.5672 7.76236 17.8856V18.5454C7.75982 18.612 7.73156 18.675 7.68353 18.7213C7.63549 18.7675 7.57141 18.7934 7.50473 18.7934C7.43806 18.7934 7.37398 18.7675 7.32594 18.7213C7.27791 18.675 7.24965 18.612 7.24711 18.5454V17.8856C7.24634 17.6776 7.16337 17.4784 7.01629 17.3313C6.86921 17.1842 6.66995 17.1013 6.46195 17.1005H6.24984C6.04186 17.1013 5.84261 17.1842 5.69554 17.3313C5.54846 17.4784 5.4655 17.6776 5.46473 17.8856V18.5454C5.46235 18.6121 5.43416 18.6753 5.38611 18.7217C5.33805 18.7681 5.27387 18.794 5.20709 18.794C5.1403 18.794 5.07612 18.7681 5.02807 18.7217C4.98001 18.6753 4.95182 18.6121 4.94944 18.5454V17.8856C4.95029 17.5672 5.06758 17.2601 5.27919 17.0222C5.4908 16.7843 5.78213 16.6321 6.09825 16.5941H6.09802ZM18.1248 18.8347L19.3424 19.7552L19.9506 18.9507C20.0766 18.764 20.1372 18.6041 20.1053 18.3741C20.0845 18.2259 20.0205 18.0871 19.9214 17.9749C19.8222 17.8628 19.6923 17.7823 19.5478 17.7434C19.4033 17.7045 19.2505 17.709 19.1085 17.7562C18.9664 17.8035 18.8415 17.8915 18.7491 18.0093C18.563 18.2811 18.3262 18.5683 18.1248 18.8347ZM19.0322 20.1656L17.8146 19.2451C17.613 19.5118 17.4018 19.8166 17.1908 20.0704C17.0716 20.2329 17.0215 20.4359 17.0515 20.6351C17.0814 20.8344 17.1889 21.0137 17.3506 21.134C17.5122 21.2543 17.7149 21.3058 17.9143 21.2773C18.1138 21.2487 18.2939 21.1424 18.4153 20.9816L19.0322 20.1656Z" fill="#477BFF"/>
</svg>
