<svg width="24" height="24" viewBox="0 0 24 24" fill="none" xmlns="http://www.w3.org/2000/svg">
<path d="M6.23578 1.40625H7.47938V13.0718C7.62857 12.8793 7.78973 12.6964 7.96191 12.5242C8.51883 11.9673 9.17067 11.54 9.88078 11.2566V8.21634H14.1177V11.2566C14.8278 11.54 15.4797 11.9673 16.0366 12.5242C16.2088 12.6964 16.3699 12.8793 16.5191 13.0718V1.40625H17.7627V0H6.23578V1.40625ZM14.204 6.67542H9.79458V5.26917H14.204V6.67542ZM14.204 3.80644H9.79458V2.40019H14.204V3.80644ZM2.05078 6.5138H3.95016V7.92005H2.05078V9.38278H3.95016V10.789H2.05078V13.2135H6.07313V4.08933H2.05078V6.5138ZM21.9477 6.5138V4.08933H17.9254V13.2135H21.9477V10.789H20.0483V9.38278H21.9477V7.92005H20.0483V6.5138H21.9477Z" fill="#477BFF"/>
<path d="M15.0417 13.5186C13.3611 11.838 10.6364 11.838 8.95577 13.5186C7.27516 15.1992 7.27516 17.924 8.95577 19.6046L9.9701 20.6189L8.61766 21.9714L10.6463 24L11.9988 22.6476L13.3512 24L15.3798 21.9714L14.0274 20.6189L15.0417 19.6046C16.7223 17.924 16.7223 15.1992 15.0417 13.5186ZM13.0131 17.5759L11.9988 18.5903L10.9844 17.5759C10.4242 17.0157 10.4242 16.1075 10.9844 15.5473C11.5446 14.9871 12.4529 14.9871 13.0131 15.5473C13.5733 16.1075 13.5733 17.0157 13.0131 17.5759ZM12.711 10.8957V9.62256H11.2865V10.8957C11.7595 10.8372 12.238 10.8372 12.711 10.8957Z" fill="#477BFF"/>
</svg>
