<svg width="24" height="24" viewBox="0 0 24 24" fill="none" xmlns="http://www.w3.org/2000/svg">
<g clip-path="url(#clip0_4597_122)">
<path d="M6.03203 15.398C6.11997 15.473 7.00544 16.9931 8.99125 17.0086C9.77453 17.0152 10.5189 16.7686 11.1297 16.3144V14.4487C9.48484 15.0229 7.63492 14.9223 6.03203 14.1145V15.398ZM2.38281 7.95703H2.41211V4.79297H2.38281C1.50906 4.79297 0.800781 5.50125 0.800781 6.375C0.800781 7.24875 1.50906 7.95703 2.38281 7.95703ZM17.1484 6.375C17.1484 5.50125 16.4402 4.79297 15.5664 4.79297H15.5371V7.95703H15.5664C16.4401 7.95703 17.1484 7.24875 17.1484 6.375ZM11.1288 3.375H14.1309V1.64062C14.1309 0.735984 13.3949 0 12.4902 0H5.45898C4.55434 0 3.81836 0.735984 3.81836 1.64062V3.375H7.15188C7.81511 1.50502 10.4651 1.50403 11.1288 3.375ZM8.97461 13.4062C11.8178 13.4062 14.1309 11.0932 14.1309 8.25V4.78125H11.1288C10.4655 6.65123 7.81548 6.65227 7.15188 4.78125H3.81836V8.25C3.81836 11.0932 6.13145 13.4062 8.97461 13.4062ZM7.40561 8.57864C7.7418 8.38444 8.17192 8.49956 8.36612 8.83584C8.63627 9.30356 9.31277 9.30412 9.58305 8.83589C9.77725 8.49961 10.2073 8.38439 10.5436 8.57859C10.8798 8.7728 10.9951 9.20278 10.8009 9.53911C9.99072 10.9421 7.95934 10.9433 7.14836 9.53916C6.95416 9.20287 7.06933 8.77284 7.40561 8.57864Z" fill="#477BFF"/>
<path d="M9.14062 4.78125C9.52895 4.78125 9.84375 4.46645 9.84375 4.07812C9.84375 3.6898 9.52895 3.375 9.14062 3.375C8.7523 3.375 8.4375 3.6898 8.4375 4.07812C8.4375 4.46645 8.7523 4.78125 9.14062 4.78125Z" fill="#477BFF"/>
<path d="M12.8113 21.7716C11.7656 20.6679 11.2116 19.5656 11.1518 19.4435C10.9302 18.99 10.8801 18.482 11.001 18.003C10.5791 18.1873 10.1334 18.3115 9.67692 18.3717V21.9844C9.67692 22.3725 9.36192 22.6875 8.9738 22.6875C8.58567 22.6875 8.27067 22.3725 8.27067 21.9844V18.3586C5.93653 18.0053 4.96561 16.2521 4.77848 16.0786L2.2177 16.4156C0.955313 16.5558 0 17.6227 0 18.893V23.2969C0 23.685 0.315 24 0.703125 24H16.3798C15.0853 23.6454 13.8734 22.8925 12.8113 21.7716ZM4.80188 21.1406H4.5675V21.375C4.5675 21.7631 4.2525 22.0781 3.86438 22.0781C3.47625 22.0781 3.16125 21.7631 3.16125 21.375V21.1406H2.92687C2.53875 21.1406 2.22375 20.8256 2.22375 20.4375C2.22375 20.0494 2.53875 19.7344 2.92687 19.7344H3.16125V19.5C3.16125 19.1119 3.47625 18.7969 3.86438 18.7969C4.2525 18.7969 4.5675 19.1119 4.5675 19.5V19.7344H4.80188C5.19 19.7344 5.505 20.0494 5.505 20.4375C5.505 20.8256 5.19 21.1406 4.80188 21.1406Z" fill="#477BFF"/>
<path d="M18.1562 19.2361C18.5705 19.2361 18.9062 18.9003 18.9062 18.4861C18.9062 18.0719 18.5705 17.7361 18.1562 17.7361C17.742 17.7361 17.4062 18.0719 17.4062 18.4861C17.4062 18.9003 17.742 19.2361 18.1562 19.2361Z" fill="#477BFF"/>
<path d="M23.457 17.4681L23.7738 17.1762C24.0594 16.913 24.0775 16.4682 23.8144 16.1827C23.5512 15.8971 23.1064 15.8789 22.8209 16.1421L22.59 16.3548C22.2467 15.976 21.879 15.6346 21.4799 15.3348L21.7719 14.7604C21.948 14.4142 21.81 13.9909 21.4638 13.815C21.1177 13.639 20.6944 13.7769 20.5184 14.1231L20.2688 14.6141C19.7988 14.4034 19.3153 14.2623 18.8235 14.1934V13.5603C18.8235 13.172 18.5087 12.8572 18.1204 12.8572C17.7321 12.8572 17.4172 13.172 17.4172 13.5603V14.1919C16.9207 14.2593 16.4358 14.398 15.9679 14.6061L15.7223 14.1231C15.5463 13.7769 15.1229 13.639 14.7769 13.815C14.4307 13.9909 14.2927 14.4143 14.4688 14.7604L14.7574 15.3281C14.3537 15.6351 13.9897 15.9832 13.6582 16.3616L13.4198 16.142C13.1342 15.8789 12.6894 15.8971 12.4263 16.1826C12.1632 16.4682 12.1813 16.913 12.4669 17.1761L12.8142 17.4962C12.5535 17.9107 12.4187 18.1999 12.4085 18.222C12.3648 18.3168 12.3428 18.4201 12.344 18.5244C12.3452 18.6287 12.3696 18.7315 12.4154 18.8252C12.4354 18.866 12.9144 19.8351 13.8325 20.8042C16.3879 23.5012 19.83 23.5061 22.4397 20.8096C23.3755 19.8428 23.8729 18.8762 23.8937 18.8355C23.9437 18.7374 23.9699 18.6289 23.9703 18.5187C23.9706 18.4086 23.9451 18.2999 23.8958 18.2014C23.8847 18.1793 23.7364 17.8863 23.457 17.4681ZM18.1571 20.6423C16.9682 20.6423 16.0009 19.675 16.0009 18.4861C16.0009 17.2971 16.9682 16.3298 18.1571 16.3298C19.3461 16.3298 20.3134 17.2971 20.3134 18.4861C20.3134 19.675 19.3461 20.6423 18.1571 20.6423Z" fill="#477BFF"/>
</g>
<defs>
<clipPath id="clip0_4597_122">
<rect width="24" height="24" fill="white"/>
</clipPath>
</defs>
</svg>
