<svg width="50" height="50" viewBox="0 0 50 50" fill="none" xmlns="http://www.w3.org/2000/svg">
<path d="M23.555 23.4377C22.3263 22.8748 20.941 22.7534 19.6332 23.0939C19.6003 22.2046 19.2448 21.3576 18.6332 20.7111C16.08 18.4346 12.1519 19.4127 10.9691 21.1408C9.48081 23.3596 10.6261 25.0627 10.5394 27.3361C10.6583 29.0748 10.2731 30.8109 9.43003 32.3361L4.91441 40.2893C4.83376 40.428 4.79868 40.5886 4.81409 40.7484C4.82951 40.9082 4.89465 41.0591 5.00035 41.1799L9.6566 46.6018C9.73083 46.6865 9.82206 46.7546 9.92436 46.8017C10.0267 46.8488 10.1377 46.8738 10.2503 46.8752C10.389 46.8759 10.5253 46.8393 10.6449 46.7692C10.7645 46.6991 10.863 46.5981 10.93 46.4768L16.3988 36.8674C17.5688 34.8143 19.4333 33.2462 21.6566 32.4455C23.0628 31.9924 24.5058 31.5525 25.18 30.2502C25.7689 29.0406 25.902 27.6593 25.555 26.3596C25.4611 25.7541 25.2327 25.1773 24.8866 24.6717C24.5405 24.1661 24.0855 23.7444 23.555 23.4377Z" fill="#477BFF"/>
<path d="M45.1799 10.8048L43.9221 3.76573C43.899 3.64321 43.847 3.52795 43.7706 3.42949C43.6941 3.33103 43.5953 3.2522 43.4823 3.19951C43.3693 3.14683 43.2453 3.12182 43.1208 3.12654C42.9962 3.13126 42.8745 3.16558 42.7658 3.22667L33.1643 8.71885C31.1155 9.89687 28.7114 10.2989 26.3908 9.85167L25.4846 9.67979C22.315 8.60948 20.2877 11.5079 19.9455 13.1095C18.8119 15.9751 21.0189 18.2712 23.3752 18.9298C21.4736 22.5704 26.0486 25.4571 28.3439 25.3204C30.3486 25.4415 31.9854 23.4376 32.3908 21.9376C32.755 20.9828 33.2185 20.069 33.7736 19.211C34.521 17.9452 35.5844 16.8953 36.8596 16.1642L44.7971 11.6251C44.9373 11.5442 45.0493 11.4221 45.1178 11.2753C45.1863 11.1286 45.208 10.9643 45.1799 10.8048ZM17.7268 12.8345C17.934 12.8345 18.1327 12.7522 18.2792 12.6057C18.4257 12.4591 18.508 12.2604 18.508 12.0532V7.44385C18.508 7.23665 18.4257 7.03794 18.2792 6.89143C18.1327 6.74491 17.934 6.6626 17.7268 6.6626C17.5196 6.6626 17.3208 6.74491 17.1743 6.89143C17.0278 7.03794 16.9455 7.23665 16.9455 7.44385V12.0532C16.9455 12.2604 17.0278 12.4591 17.1743 12.6057C17.3208 12.7522 17.5196 12.8345 17.7268 12.8345ZM13.8252 14.486C13.9765 14.626 14.177 14.7006 14.383 14.6934C14.589 14.6863 14.7838 14.598 14.925 14.4478C15.0662 14.2977 15.1423 14.0978 15.1368 13.8917C15.1313 13.6857 15.0446 13.4901 14.8955 13.3478L11.426 10.0853C11.2747 9.94525 11.0742 9.8707 10.8682 9.87786C10.6622 9.88502 10.4674 9.9733 10.3262 10.1235C10.185 10.2736 10.1088 10.4735 10.1144 10.6796C10.1199 10.8856 10.2066 11.0812 10.3557 11.2235L13.8252 14.486ZM7.8877 18.272H12.626C12.8332 18.272 13.0319 18.1897 13.1784 18.0432C13.3249 17.8966 13.4072 17.6979 13.4072 17.4907C13.4072 17.2835 13.3249 17.0848 13.1784 16.9383C13.0319 16.7918 12.8332 16.7095 12.626 16.7095H7.8877C7.68049 16.7095 7.48178 16.7918 7.33527 16.9383C7.18876 17.0848 7.10645 17.2835 7.10645 17.4907C7.10645 17.6979 7.18876 17.8966 7.33527 18.0432C7.48178 18.1897 7.68049 18.272 7.8877 18.272ZM26.5822 30.7954C26.375 30.7954 26.1763 30.8777 26.0298 31.0242C25.8833 31.1708 25.801 31.3695 25.801 31.5767V36.2884C25.801 36.4956 25.8833 36.6943 26.0298 36.8408C26.1763 36.9873 26.375 37.0696 26.5822 37.0696C26.7894 37.0696 26.9881 36.9873 27.1347 36.8408C27.2812 36.6943 27.3635 36.4956 27.3635 36.2884V31.5767C27.3635 31.3695 27.2812 31.1708 27.1347 31.0242C26.9881 30.8777 26.7894 30.7954 26.5822 30.7954ZM30.4971 29.104C30.3495 28.9585 30.1502 28.8775 29.943 28.8789C29.7358 28.8802 29.5375 28.9639 29.392 29.1114C29.2464 29.259 29.1654 29.4583 29.1668 29.6655C29.1682 29.8728 29.2519 30.071 29.3994 30.2165L32.9213 33.6931C33.0695 33.8347 33.2674 33.9125 33.4724 33.9095C33.6774 33.9065 33.873 33.8231 34.0171 33.6772C34.1611 33.5314 34.242 33.3347 34.2424 33.1297C34.2427 32.9247 34.1625 32.7277 34.0189 32.5814L30.4971 29.104ZM36.6807 25.4087H31.7088C31.5016 25.4087 31.3029 25.491 31.1564 25.6375C31.0098 25.784 30.9275 25.9827 30.9275 26.1899C30.9275 26.3971 31.0098 26.5959 31.1564 26.7424C31.3029 26.8889 31.5016 26.9712 31.7088 26.9712H36.6807C36.8879 26.9712 37.0866 26.8889 37.2331 26.7424C37.3796 26.5959 37.4619 26.3971 37.4619 26.1899C37.4619 25.9827 37.3796 25.784 37.2331 25.6375C37.0866 25.491 36.8879 25.4087 36.6807 25.4087Z" fill="#477BFF"/>
</svg>
