<svg width="24" height="24" viewBox="0 0 24 24" fill="none" xmlns="http://www.w3.org/2000/svg">
<path d="M11.3059 11.25C10.7162 10.9798 10.0512 10.9215 9.42345 11.085C9.40766 10.6581 9.23704 10.2515 8.94345 9.94124C7.71795 8.84849 5.83245 9.31799 5.2647 10.1475C4.55032 11.2125 5.10007 12.03 5.05845 13.1212C5.1155 13.9558 4.93061 14.7891 4.52595 15.5212L2.35845 19.3387C2.31974 19.4054 2.3029 19.4824 2.3103 19.5591C2.3177 19.6358 2.34896 19.7082 2.3997 19.7662L4.6347 22.3687C4.67033 22.4094 4.71412 22.4421 4.76322 22.4647C4.81233 22.4873 4.86564 22.4993 4.9197 22.5C4.98624 22.5003 5.05165 22.4828 5.10906 22.4491C5.16647 22.4155 5.21375 22.367 5.24595 22.3087L7.87095 17.6962C8.43257 16.7107 9.32752 15.9581 10.3947 15.5737C11.0697 15.3562 11.7623 15.1451 12.0859 14.52C12.3686 13.9394 12.4325 13.2764 12.2659 12.6525C12.2209 12.3619 12.1112 12.085 11.9451 11.8423C11.779 11.5996 11.5606 11.3972 11.3059 11.25Z" fill="#477BFF"/>
<path d="M21.6854 5.18632L21.0817 1.80757C21.0706 1.74876 21.0456 1.69344 21.0089 1.64617C20.9722 1.59891 20.9248 1.56107 20.8705 1.53579C20.8163 1.5105 20.7568 1.49849 20.697 1.50076C20.6372 1.50302 20.5788 1.5195 20.5267 1.54882L15.9179 4.18507C14.9345 4.75052 13.7805 4.94351 12.6667 4.72882L12.2317 4.64632C10.7103 4.13257 9.73716 5.52382 9.57291 6.29257C9.02878 7.66807 10.0882 8.77019 11.2192 9.08632C10.3064 10.8338 12.5024 12.2194 13.6042 12.1538C14.5664 12.2119 15.352 11.2501 15.5467 10.5301C15.7215 10.0718 15.9439 9.63312 16.2104 9.22132C16.5691 8.61373 17.0796 8.10977 17.6917 7.75882L21.5017 5.58007C21.569 5.54123 21.6227 5.48261 21.6556 5.41216C21.6885 5.34172 21.6989 5.26288 21.6854 5.18632ZM8.50791 6.16057C8.60736 6.16057 8.70275 6.12106 8.77307 6.05073C8.8434 5.98041 8.88291 5.88503 8.88291 5.78557V3.57307C8.88291 3.47361 8.8434 3.37823 8.77307 3.3079C8.70275 3.23758 8.60736 3.19807 8.50791 3.19807C8.40845 3.19807 8.31307 3.23758 8.24274 3.3079C8.17242 3.37823 8.13291 3.47361 8.13291 3.57307V5.78557C8.13291 5.88503 8.17242 5.98041 8.24274 6.05073C8.31307 6.12106 8.40845 6.16057 8.50791 6.16057ZM6.63516 6.95332C6.70777 7.02052 6.80401 7.05631 6.90289 7.05287C7.00177 7.04944 7.09529 7.00706 7.16306 6.93498C7.23084 6.8629 7.26738 6.76695 7.26473 6.66805C7.26208 6.56914 7.22045 6.47529 7.14891 6.40694L5.48353 4.84094C5.41092 4.77374 5.31468 4.73796 5.2158 4.74139C5.11692 4.74483 5.0234 4.7872 4.95562 4.85928C4.88785 4.93136 4.8513 5.02731 4.85396 5.12622C4.85661 5.22512 4.89824 5.31897 4.96978 5.38732L6.63516 6.95332ZM3.78516 8.77057H6.05953C6.15899 8.77057 6.25437 8.73106 6.3247 8.66073C6.39502 8.59041 6.43453 8.49503 6.43453 8.39557C6.43453 8.29611 6.39502 8.20073 6.3247 8.1304C6.25437 8.06008 6.15899 8.02057 6.05953 8.02057H3.78516C3.6857 8.02057 3.59032 8.06008 3.51999 8.1304C3.44967 8.20073 3.41016 8.29611 3.41016 8.39557C3.41016 8.49503 3.44967 8.59041 3.51999 8.66073C3.59032 8.73106 3.6857 8.77057 3.78516 8.77057ZM12.7585 14.7818C12.6591 14.7818 12.5637 14.8213 12.4934 14.8917C12.423 14.962 12.3835 15.0574 12.3835 15.1568V17.4184C12.3835 17.5179 12.423 17.6133 12.4934 17.6836C12.5637 17.7539 12.6591 17.7934 12.7585 17.7934C12.858 17.7934 12.9534 17.7539 13.0237 17.6836C13.094 17.6133 13.1335 17.5179 13.1335 17.4184V15.1568C13.1335 15.0574 13.094 14.962 13.0237 14.8917C12.9534 14.8213 12.858 14.7818 12.7585 14.7818ZM14.6377 13.9699C14.5668 13.9001 14.4712 13.8612 14.3717 13.8619C14.2722 13.8625 14.1771 13.9027 14.1072 13.9735C14.0373 14.0443 13.9985 14.14 13.9991 14.2395C13.9998 14.3389 14.04 14.4341 14.1108 14.5039L15.8013 16.1727C15.8724 16.2407 15.9674 16.278 16.0658 16.2766C16.1642 16.2752 16.2581 16.2351 16.3273 16.1651C16.3964 16.0951 16.4352 16.0007 16.4354 15.9023C16.4356 15.8039 16.3971 15.7093 16.3282 15.6391L14.6377 13.9699ZM17.6058 12.1962H15.2193C15.1198 12.1962 15.0244 12.2357 14.9541 12.306C14.8838 12.3764 14.8443 12.4717 14.8443 12.5712C14.8443 12.6707 14.8838 12.766 14.9541 12.8364C15.0244 12.9067 15.1198 12.9462 15.2193 12.9462H17.6058C17.7052 12.9462 17.8006 12.9067 17.8709 12.8364C17.9413 12.766 17.9808 12.6707 17.9808 12.5712C17.9808 12.4717 17.9413 12.3764 17.8709 12.306C17.8006 12.2357 17.7052 12.1962 17.6058 12.1962Z" fill="#477BFF"/>
</svg>
