<svg width="24" height="24" viewBox="0 0 24 24" fill="none" xmlns="http://www.w3.org/2000/svg">
<path fill-rule="evenodd" clip-rule="evenodd" d="M13.9632 17.9071C13.9632 18.6871 14.2756 19.3947 14.7594 20.0039C14.1505 22.0054 12.3289 23.4921 10.1602 23.5982C11.4065 22.7223 12.711 21.4597 12.7444 19.9584C12.7707 18.7771 12.0079 17.8688 11.099 17.2112C10.1701 16.5072 9.26817 15.7416 8.41252 14.9507C8.22907 14.7813 8.04728 14.6102 7.86717 14.4373C8.50444 14.672 9.19313 14.8003 9.91186 14.8003C11.698 14.8003 13.2993 14.0086 14.3841 12.7572C14.458 12.7558 14.5335 12.7688 14.6072 12.7973C14.8342 12.8849 14.9766 13.0925 14.9766 13.3358V14.0203L14.1726 14.3675C14.0427 14.4236 13.9632 14.5445 13.9632 14.6859V17.9071H13.9632ZM15.6832 10.4641C16.5522 10.4641 17.2631 9.75315 17.2631 8.88427C17.2631 8.01535 16.5522 7.30444 15.6832 7.30444H15.6142C15.7532 7.80741 15.8278 8.33705 15.8278 8.88427C15.8278 9.43149 15.7532 9.96113 15.6142 10.4641L15.6832 10.4641ZM4.14037 7.3044C3.27145 7.3044 2.56055 8.0153 2.56055 8.88422C2.56055 9.75315 3.27145 10.4641 4.14037 10.4641H4.20947C4.07044 9.96108 3.99581 9.4314 3.99581 8.88422C3.99581 8.33705 4.07044 7.80736 4.20947 7.3044H4.14037ZM9.06173 23.5321C6.6772 23.1248 4.84711 21.0357 4.84711 18.5396V13.3358C4.84711 13.0924 4.98947 12.8849 5.21653 12.7972C5.28758 12.7695 5.36335 12.7559 5.43961 12.7571C6.70702 14.4066 9.04102 16.4754 10.7086 17.7388C13.4483 19.7157 11.693 21.9308 9.06173 23.5321ZM10.7263 19.8344C10.7263 19.3858 10.3605 19.0199 9.91181 19.0199C9.46317 19.0199 9.09731 19.3858 9.09731 19.8344C9.09731 20.283 9.46322 20.6489 9.91181 20.6489C10.3604 20.6489 10.7263 20.283 10.7263 19.8344ZM21.4402 14.8893V17.9071C21.4402 19.4366 19.7951 20.8459 18.0298 21.4402C16.2644 20.8459 14.6194 19.4366 14.6194 17.9071V14.8893L18.0298 13.4166L21.4402 14.8893ZM20.0357 16.9352C20.0356 16.8776 20.0126 16.8223 19.9719 16.7816C19.9311 16.7408 19.8759 16.7179 19.8182 16.7177H18.7404V15.6399C18.7403 15.5823 18.7174 15.5271 18.6766 15.4863C18.6359 15.4455 18.5806 15.4226 18.523 15.4225H17.5366C17.479 15.4226 17.4237 15.4455 17.383 15.4863C17.3422 15.5271 17.3193 15.5823 17.3191 15.6399V16.7177H16.2413C16.1837 16.7179 16.1285 16.7408 16.0877 16.7816C16.0469 16.8223 16.024 16.8776 16.0239 16.9352V17.9216C16.024 17.9793 16.0469 18.0345 16.0877 18.0753C16.1285 18.116 16.1837 18.139 16.2413 18.1391H17.3191V19.2169C17.3193 19.2745 17.3422 19.3298 17.383 19.3705C17.4237 19.4113 17.479 19.4342 17.5366 19.4343H18.523C18.5806 19.4342 18.6359 19.4113 18.6766 19.3705C18.7174 19.3298 18.7403 19.2745 18.7404 19.2169V18.1391H19.8182C19.8759 18.139 19.9311 18.116 19.9719 18.0753C20.0126 18.0345 20.0356 17.9793 20.0357 17.9216V16.9352ZM4.65206 8.88422C4.65206 6.13665 6.77756 3.86991 9.46828 3.64341L9.4815 3.56555C9.59527 2.90222 9.79336 2.39279 10.0713 2.04966C10.1793 1.91658 10.3039 1.80929 10.4381 1.72838C10.5267 1.38268 10.695 0.994505 10.9424 0.565927C10.9639 0.528595 10.9926 0.495874 11.0268 0.469635C11.061 0.443397 11.1 0.424155 11.1417 0.41301C11.1833 0.401865 11.2267 0.399036 11.2694 0.404684C11.3122 0.410332 11.3534 0.424347 11.3907 0.445927C11.428 0.46748 11.4607 0.496172 11.4869 0.530365C11.5131 0.564557 11.5324 0.60358 11.5435 0.645206C11.5547 0.686832 11.5575 0.730244 11.5519 0.772966C11.5462 0.815687 11.5322 0.85688 11.5107 0.894193C11.364 1.14816 11.2589 1.3673 11.1848 1.5555C11.3801 1.57604 11.5705 1.64813 11.7387 1.77446C11.9695 1.94752 12.118 2.19291 12.1568 2.46516C12.2198 2.90663 12.0085 3.26044 11.6189 3.36666C11.2233 3.47466 10.667 3.27811 10.4585 2.77243C10.4482 2.74758 10.4388 2.72204 10.4302 2.69625C10.3242 2.89735 10.2152 3.19463 10.1366 3.62958C12.93 3.74808 15.1715 6.06258 15.1715 8.88422C15.1715 11.7812 12.8087 14.144 9.91177 14.144C7.0148 14.144 4.65206 11.7812 4.65206 8.88422ZM11.0652 2.52207C11.1377 2.69785 11.3358 2.76385 11.4462 2.73357C11.4751 2.72588 11.5291 2.71097 11.5073 2.55802C11.4991 2.50065 11.4671 2.39105 11.345 2.29932C11.2509 2.22882 11.1384 2.20036 11.0238 2.2103C11.0162 2.36644 11.042 2.46605 11.0652 2.52207H11.0652ZM11.4916 9.0271C11.4985 9.10898 11.5359 9.18528 11.5964 9.24093C11.6568 9.29657 11.736 9.32751 11.8181 9.32761C11.8274 9.32761 11.8367 9.32715 11.8463 9.32626C11.8892 9.32265 11.931 9.31061 11.9693 9.29084C12.0076 9.27107 12.0416 9.24395 12.0693 9.21102C12.0971 9.1781 12.1181 9.14003 12.1312 9.09898C12.1442 9.05793 12.1491 9.01471 12.1454 8.97179C12.1396 8.90628 12.1523 8.84046 12.1819 8.78175C12.2115 8.72303 12.2569 8.67375 12.313 8.63944C12.3689 8.60476 12.4334 8.58639 12.4992 8.58639C12.5649 8.58639 12.6294 8.60476 12.6853 8.63944C12.7414 8.67376 12.7868 8.72305 12.8164 8.78176C12.846 8.84047 12.8587 8.90628 12.8529 8.97179C12.8493 9.01471 12.8541 9.05793 12.8672 9.09899C12.8802 9.14004 12.9012 9.17812 12.929 9.21104C12.9568 9.24396 12.9908 9.27108 13.0291 9.29085C13.0674 9.31062 13.1092 9.32265 13.1521 9.32626C13.195 9.32991 13.2383 9.32507 13.2793 9.31202C13.3204 9.29896 13.3585 9.27794 13.3914 9.25016C13.4243 9.22237 13.4515 9.18838 13.4712 9.1501C13.491 9.11183 13.5031 9.07003 13.5067 9.0271C13.5393 8.6446 13.3563 8.28193 13.0293 8.08041C12.7023 7.87908 12.2961 7.87908 11.969 8.08041C11.642 8.28193 11.4591 8.6446 11.4916 9.0271H11.4916ZM8.71481 10.0409C8.74851 10.2044 8.81524 10.3593 8.91093 10.4961C9.00662 10.6329 9.12923 10.7487 9.27127 10.8364C9.46889 10.9582 9.69028 11.019 9.91186 11.019C10.1334 11.019 10.3548 10.9582 10.5524 10.8364C10.6944 10.7487 10.817 10.6329 10.9127 10.4961C11.0084 10.3593 11.0751 10.2044 11.1088 10.0409C11.1175 9.99871 11.1177 9.95521 11.1095 9.91291C11.1013 9.87062 11.0849 9.83035 11.0612 9.7944C11.0374 9.75846 11.0068 9.72754 10.9711 9.70343C10.9354 9.67932 10.8953 9.66247 10.8531 9.65386C10.6755 9.61726 10.5023 9.73182 10.4658 9.90938C10.4502 9.98507 10.4194 10.0568 10.3751 10.1201C10.3308 10.1834 10.274 10.2371 10.2083 10.2777C10.1193 10.3329 10.0166 10.3622 9.91179 10.3622C9.807 10.3622 9.70431 10.3329 9.61528 10.2777C9.54955 10.237 9.4928 10.1834 9.44852 10.1201C9.40423 10.0568 9.37335 9.98507 9.35775 9.90938C9.34911 9.86717 9.33224 9.82708 9.3081 9.79139C9.28396 9.75571 9.25303 9.72513 9.21707 9.7014C9.18111 9.67767 9.14082 9.66126 9.09852 9.6531C9.05622 9.64495 9.01272 9.64521 8.97052 9.65386C8.9283 9.66247 8.8882 9.67931 8.85249 9.70342C8.81679 9.72753 8.78619 9.75844 8.76244 9.79439C8.7387 9.83034 8.72227 9.87061 8.71409 9.91291C8.70592 9.95521 8.70616 9.99871 8.71481 10.0409ZM6.31687 9.0271C6.33225 9.20761 6.49092 9.34205 6.67158 9.32626C6.71451 9.32265 6.7563 9.31061 6.79458 9.29084C6.83285 9.27107 6.86686 9.24395 6.89464 9.21103C6.92243 9.17811 6.94346 9.14004 6.95652 9.09899C6.96959 9.05793 6.97443 9.01471 6.97078 8.97179C6.96502 8.90628 6.97765 8.84047 7.00726 8.78176C7.03686 8.72304 7.08227 8.67376 7.13836 8.63944C7.19425 8.60476 7.25872 8.58639 7.3245 8.58639C7.39028 8.58639 7.45475 8.60476 7.51064 8.63944C7.56674 8.67374 7.61214 8.72303 7.64174 8.78175C7.67133 8.84047 7.68393 8.90629 7.67813 8.97179C7.66289 9.1523 7.79677 9.31116 7.97733 9.32626C7.9868 9.32715 7.99622 9.32761 8.0055 9.32761C8.08768 9.32751 8.16683 9.29658 8.22731 9.24093C8.28779 9.18529 8.32519 9.10899 8.33212 9.0271C8.36456 8.6446 8.18166 8.28193 7.85466 8.08041C7.52766 7.87908 7.12134 7.87908 6.7943 8.08041C6.46734 8.28193 6.28448 8.6446 6.31687 9.0271Z" fill="#477BFF"/>
</svg>
