<svg width="24" height="24" viewBox="0 0 24 24" fill="none" xmlns="http://www.w3.org/2000/svg">
<path d="M19.2369 9.99993C18.8732 9.85447 18.4732 9.99993 18.2914 10.3636C18.146 10.7272 18.2914 11.1272 18.655 11.309C19.6005 11.709 20.9823 12.2545 22.0005 12.2545C23.2005 12.2545 23.7096 11.4908 23.6005 10.5454C23.4914 9.49084 22.6914 8.29084 22.255 7.70902C20.7641 5.78175 16.6187 5.96357 15.0914 9.19993C16.1823 9.63629 15.855 11.2363 14.6914 11.2363C14.8005 12.4727 15.4914 13.6363 16.7278 14.7272C17.055 14.9817 17.455 14.9454 17.7096 14.6545C17.9641 14.3636 17.9278 13.9272 17.6369 13.6727C15.9641 12.2545 15.4914 10.6181 16.8732 8.98175C17.0187 9.56357 16.6914 9.74538 16.5096 10.3272L16.6187 11.8545C16.8369 12.3636 17.2369 12.8727 17.855 13.3817C18.255 13.7454 18.3278 14.3636 18.0369 14.7999C17.8187 15.1272 17.346 15.3454 16.8732 15.1999L16.946 16.0363C16.946 16.0727 16.946 16.0727 16.9823 16.109L16.3641 21.7454C16.2914 22.3272 16.7278 22.8363 17.3096 22.909C17.8187 22.9817 18.4005 22.6181 18.4732 21.9999L19.1641 16.2181H19.346L20.0005 21.9999C20.0732 22.5454 20.5096 22.9454 21.055 22.9454C21.7096 22.9454 22.1823 22.3999 22.1096 21.7454L21.455 16.109C21.455 16.0727 21.4914 16.0363 21.4914 16.0363L21.746 12.5817C20.7641 12.509 19.6369 12.0727 18.546 11.5999C18.0005 11.3817 17.7823 10.7272 18.0005 10.2181C18.2187 9.67266 18.8732 9.45447 19.3823 9.67266C20.8369 10.2908 21.5641 10.4363 21.8914 10.4727L21.9278 9.89084C22.0369 10.109 22.255 10.5817 22.2187 10.8363C21.6369 10.9817 19.8187 10.2545 19.2369 9.99993Z" fill="#477BFF"/>
<path d="M19.2357 5.96357C20.1997 5.96357 20.9811 5.1821 20.9811 4.21811C20.9811 3.25412 20.1997 2.47266 19.2357 2.47266C18.2717 2.47266 17.4902 3.25412 17.4902 4.21811C17.4902 5.1821 18.2717 5.96357 19.2357 5.96357Z" fill="#477BFF"/>
<path d="M5.96328 17.8545H5.16328V16.8363C5.16328 16.7273 5.09055 16.6182 4.98146 16.6182H1.52692C1.41783 16.6182 1.3451 16.7273 1.3451 16.8363V17.8545H0.545099C0.436009 17.8545 0.363281 17.9273 0.363281 18.0363V18.4C0.472372 18.5818 0.690554 18.7636 0.945099 18.9454V18.8H1.49055V19.2C2.5451 19.6 3.96328 19.5636 4.98146 19.2V18.8H5.52692V18.9091C5.78146 18.7636 5.99964 18.5818 6.10874 18.3636V18C6.1451 17.9273 6.07237 17.8545 5.96328 17.8545ZM4.79964 17.8545H1.70874V17.0545H4.79964V17.8545Z" fill="#477BFF"/>
<path d="M5.56328 19.9273H5.01783V19.6001C3.96328 19.9273 2.61783 19.9637 1.52692 19.6001V19.9273H0.945099V19.3819C0.726918 19.2364 0.508736 19.1273 0.363281 18.9819V21.6728C0.363281 21.7819 0.436009 21.8546 0.545099 21.8546H5.96328C6.07237 21.8546 6.1451 21.7819 6.1451 21.6728V18.9819C5.99964 19.1273 5.78146 19.2364 5.56328 19.3819V19.9273ZM3.81783 21.0546H3.45419V21.4546H3.09055V21.0546H2.69055V20.691H3.09055V20.291H3.45419V20.691H3.85419V21.0546H3.81783ZM10.4724 21.091L9.16328 20.4728L10.2906 19.9273C10.3633 20.0728 10.5451 20.1455 10.7269 20.1092C10.5087 19.9273 10.3269 19.7092 10.2906 19.5273L10.2542 19.5637L8.90874 20.2183V16.291C9.38146 16.291 9.81783 16.1819 10.1815 16.0728V15.5273C8.9451 14.8728 7.38146 14.291 6.83601 13.5637C6.18146 13.8546 5.81783 14.291 5.81783 14.7637C5.81783 15.5637 6.98146 16.2546 8.47237 16.3273V20.1819L7.16328 19.5637C7.09055 19.4546 6.98146 19.3455 6.83601 19.3455C6.61783 19.3455 6.43601 19.5273 6.43601 19.7455C6.43601 19.9637 6.61783 20.1455 6.83601 20.1455C6.98146 20.1455 7.09055 20.0728 7.16328 19.9637L8.32692 20.5092C8.21783 20.5455 6.90874 21.1637 6.98146 21.1273C6.72692 21.0183 6.43601 21.2001 6.43601 21.491C6.43601 21.7092 6.61783 21.891 6.83601 21.891C7.05419 21.891 7.27237 21.7092 7.19964 21.4183C7.96328 21.0546 8.76328 20.691 8.72692 20.691L10.2178 21.3819C10.1451 21.6728 10.3633 21.8546 10.5815 21.8546C10.7996 21.8546 10.9815 21.6728 10.9815 21.4546C10.9815 21.2001 10.7269 20.9819 10.4724 21.091ZM13.9996 12.4728L11.4178 11.5273C11.236 12.4728 11.1996 12.6183 11.1269 12.8364L12.2178 13.3819C12.6906 13.6001 13.0178 14.1092 13.0178 14.6546V19.0183C13.0178 19.2001 12.9815 19.3455 12.9451 19.491C13.1269 19.6728 13.3815 19.7819 13.6724 19.7819C14.2542 19.7819 14.7269 19.3092 14.7269 18.7273V13.491C14.6906 13.0546 14.3996 12.6546 13.9996 12.4728Z" fill="#477BFF"/>
<path d="M12.0369 13.7092C12.0006 13.7092 10.5824 12.9819 10.6551 13.0183C10.8733 12.6183 11.3824 9.81826 11.3824 9.85462L9.41875 8.29098C8.94603 7.92735 8.90966 7.2728 9.2733 6.80008C9.63693 6.32735 10.2915 6.29098 10.7642 6.65462L11.8551 7.52735C11.9278 6.50917 11.2006 5.56371 10.1824 5.34553C9.05512 5.12735 7.92784 5.85462 7.6733 6.98189L6.69148 11.6364C6.54603 12.3637 6.80057 13.091 7.23693 13.5273C7.70966 14.0364 10.6551 15.3455 10.5097 15.2728V18.9819C10.5097 19.5637 10.9824 20.0364 11.5642 20.0364C12.146 20.0364 12.6188 19.5637 12.6188 18.9819V14.6183C12.6188 14.2183 12.4006 13.8546 12.0369 13.7092Z" fill="#477BFF"/>
<path d="M12.5227 3.38868C12.7349 2.34564 12.0614 1.32807 11.0184 1.11586C9.97535 0.903653 8.95777 1.57717 8.74556 2.62021C8.53336 3.66324 9.20688 4.68082 10.2499 4.89303C11.2929 5.10523 12.3105 4.43171 12.5227 3.38868Z" fill="#477BFF"/>
<path d="M15.382 10.2909C15.4547 9.89086 15.2002 9.52722 14.8366 9.45449C14.8002 9.45449 13.2002 9.12722 13.2729 9.12722C13.2729 9.12722 10.5093 6.90904 10.5456 6.90904C10.2547 6.65449 9.78201 6.72722 9.56382 7.01813C9.30928 7.30904 9.38201 7.78177 9.67291 7.99995C12.8729 10.5818 12.6547 10.4363 12.8729 10.4727C12.9093 10.4727 14.6911 10.8363 14.582 10.8363C14.8002 10.909 15.3093 10.7636 15.382 10.2909Z" fill="#477BFF"/>
</svg>
