<svg width="24" height="24" viewBox="0 0 24 24" fill="none" xmlns="http://www.w3.org/2000/svg">
<g clip-path="url(#clip0_4596_1953)">
<path d="M9.09212 22.6014C6.53744 22.1724 4.31126 20.6868 2.93464 18.5059L3.49348 18.6921C3.86192 18.8148 4.26016 18.6157 4.38284 18.2473C4.5057 17.8789 4.30648 17.4807 3.93827 17.358L1.67872 16.6049C1.31033 16.4821 0.912265 16.6813 0.789406 17.0495L0.0362666 19.309C-0.0865457 19.6774 0.112673 20.0754 0.481063 20.1983C0.860421 20.3249 1.25136 20.1106 1.37037 19.7537L1.6099 19.0351C2.05359 19.7786 2.58755 20.4643 3.19962 21.0767C5.80043 23.6775 8.90884 24 8.98755 24H8.98773C9.37595 24 9.69067 23.6852 9.69067 23.2968C9.69067 22.944 9.43089 22.6519 9.09212 22.6014ZM23.2106 17.0495C23.0878 16.681 22.6897 16.482 22.3213 16.6049L20.0617 17.3578C19.6935 17.4806 19.4943 17.8789 19.6172 18.2473C19.7399 18.6158 20.1381 18.8148 20.5065 18.6919L21.0654 18.5057C19.6888 20.6868 17.4624 22.1724 14.9079 22.6014C14.5692 22.6519 14.3093 22.944 14.3093 23.2968C14.3093 23.6852 14.6241 24 15.0124 24C15.0912 24 18.1996 23.6773 20.8006 21.0765C21.4126 20.4641 21.9465 19.7784 22.3901 19.0349L22.6296 19.7536C22.7487 20.1106 23.1396 20.3247 23.5191 20.1982C23.8876 20.0754 24.0866 19.6772 23.9638 19.3088L23.2106 17.0495ZM23.2969 0H0.703156C0.314797 0 3.2282e-05 0.314765 3.2282e-05 0.703124V8.68465C3.2282e-05 9.78003 0.292626 12.5714 2.88814 14.5904L7.01514 17.8L7.64613 18.431C8.80905 19.5939 10.3552 20.2344 12.0003 20.2344C13.645 20.2344 15.191 19.5939 16.3539 18.431L16.9851 17.8L21.1119 14.5904C23.7073 12.5715 24 9.77998 24 8.68465V0.703124C24 0.314765 23.6852 0 23.2969 0ZM4.7884 2.00995C4.70429 1.94424 4.63628 1.86021 4.58954 1.76426C4.5428 1.6683 4.51856 1.56295 4.51868 1.45622C4.51868 1.06809 4.83368 0.753092 5.2218 0.753092C5.38385 0.753092 5.53952 0.809155 5.66346 0.909139C6.51255 1.58681 7.69689 1.58695 8.54575 0.909279C8.67088 0.808334 8.82677 0.753221 8.98755 0.753092C9.37576 0.753092 9.69067 1.06809 9.69067 1.45622C9.69067 1.68107 9.5852 1.88104 9.42114 2.00995C8.76545 2.53232 7.94317 2.82018 7.10467 2.82018C6.26627 2.81999 5.4439 2.53237 4.7884 2.00995ZM13.5062 14.9624H10.4938C10.1054 14.9624 9.79065 14.6477 9.79065 14.2593C9.79065 13.8711 10.1054 13.5562 10.4938 13.5562H13.5062C13.8946 13.5562 14.2094 13.8711 14.2094 14.2593C14.2094 14.6477 13.8946 14.9624 13.5062 14.9624H13.5062ZM15.7656 12.7031H8.23445C7.84609 12.7031 7.53133 12.3883 7.53133 12C7.53133 11.6116 7.84609 11.2969 8.23445 11.2969H15.7658C16.1539 11.2969 16.4689 11.6116 16.4689 12C16.4687 12.3883 16.1539 12.7031 15.7656 12.7031ZM19.2116 2.00995C18.5561 2.53232 17.7337 2.81999 16.8953 2.81999C16.0569 2.81999 15.2346 2.53232 14.5789 2.00976C14.4948 1.94405 14.4269 1.86004 14.3802 1.76412C14.3335 1.66821 14.3092 1.5629 14.3093 1.45622C14.3093 1.06786 14.6241 0.753092 15.0125 0.753092C15.1745 0.753092 15.3303 0.809155 15.4543 0.909279C16.3032 1.58681 17.4875 1.58681 18.3366 0.909139C18.4616 0.808254 18.6174 0.753188 18.778 0.753092C19.1664 0.753092 19.4812 1.06786 19.4812 1.45622C19.4813 1.56294 19.4572 1.6683 19.4104 1.76426C19.3637 1.86022 19.2957 1.94426 19.2116 2.00995Z" fill="#477BFF"/>
</g>
<defs>
<clipPath id="clip0_4596_1953">
<rect width="24" height="24" fill="white"/>
</clipPath>
</defs>
</svg>
