<svg width="24" height="24" viewBox="0 0 24 24" fill="none" xmlns="http://www.w3.org/2000/svg">
<g clip-path="url(#clip0_4597_68)">
<path d="M15.4242 5.13323C15.4242 6.52631 14.2909 7.65961 12.8978 7.65961H12.7032L12.7031 11.3316H15.8684V12.9672C15.8684 13.5849 16.3709 14.0874 16.9885 14.0874C17.6062 14.0874 18.1087 13.5849 18.1087 12.9672V11.3316H23.9209C23.6027 9.49148 21.9959 8.08711 20.0663 8.08711H19.7675V6.68086H20.0663C20.4861 6.68086 20.8946 6.72994 21.2866 6.82233C21.4848 6.46219 21.5883 6.05967 21.5883 5.63812C21.5883 4.27753 20.4814 3.17062 19.1208 3.17062H17.6381V2.4675C17.6381 1.10695 16.5312 0 15.1706 0C13.81 0 12.7031 1.10691 12.7031 2.4675V2.60681H12.8978C14.2909 2.60681 15.4242 3.74016 15.4242 5.13323Z" fill="#477BFF"/>
<path d="M4.48423 11.1022C4.48423 9.70913 5.61758 8.57578 7.01061 8.57578C8.40364 8.57578 9.53703 9.70913 9.53703 11.1022V11.3316H11.2961L11.2961 6.25341H12.897C13.5147 6.25341 14.0171 5.75091 14.0171 5.13328C14.0171 4.51566 13.5146 4.01311 12.897 4.01311H11.2961L11.2961 2.46684C11.2957 1.10653 10.189 0 8.82856 0C7.46802 0 6.36106 1.10691 6.36106 2.4675V3.17062H4.87831C3.51777 3.17062 2.41081 4.27753 2.41081 5.63812C2.41081 6.05962 2.51431 6.46214 2.7125 6.82228C3.11242 6.72813 3.5219 6.68066 3.93275 6.68081H4.23153V8.08706H3.93275C2.00314 8.08706 0.396359 9.49144 0.078125 11.3315H4.48414V11.1022H4.48423ZM19.5141 12.9672C19.5141 14.3602 18.3808 15.4936 16.9878 15.4936C15.5947 15.4936 14.4613 14.3602 14.4613 12.9672V12.7378H12.7023L12.7023 17.7466H11.1014C10.4837 17.7466 9.98127 18.2491 9.98127 18.8667C9.98127 19.4843 10.4838 19.9869 11.1014 19.9869H12.7023L12.7023 21.5325H12.7024C12.7024 22.893 13.8093 24 15.1699 24C16.5305 24 17.6374 22.893 17.6374 21.5325V20.8293H19.1201C20.4807 20.8293 21.5876 19.7224 21.5876 18.3618C21.5876 17.9403 21.4841 17.5378 21.2859 17.1776C20.886 17.2718 20.4765 17.3193 20.0656 17.3191H19.7668V15.9128H20.0656C21.971 15.9128 23.5617 14.5437 23.9078 12.7377H19.5142V12.9672H19.5141Z" fill="#477BFF"/>
<path d="M8.57422 18.8667C8.57422 17.4736 9.70756 16.3403 11.1006 16.3403H11.2952L11.2953 12.7377H8.13008V11.1021C8.13008 10.4844 7.62753 9.98193 7.00991 9.98193C6.39228 9.98193 5.88978 10.4844 5.88978 11.1021V12.7377H0.0898438C0.435969 14.5437 2.02672 15.9128 3.93205 15.9128H4.23083V17.3191H3.93205C3.51228 17.3191 3.10377 17.27 2.7118 17.1776C2.51361 17.5378 2.41011 17.9403 2.41011 18.3618C2.41011 19.7224 3.51702 20.8293 4.87761 20.8293H6.36036V21.5324C6.36036 22.8929 7.46727 23.9999 8.82786 23.9999C10.1878 23.9999 11.2942 22.8941 11.2954 21.5345V21.3931H11.1007C9.70756 21.3931 8.57422 20.2597 8.57422 18.8667Z" fill="#477BFF"/>
</g>
<defs>
<clipPath id="clip0_4597_68">
<rect width="24" height="24" fill="white"/>
</clipPath>
</defs>
</svg>
