<svg width="24" height="24" viewBox="0 0 24 24" fill="none" xmlns="http://www.w3.org/2000/svg">
<path d="M21.4102 12.1508C20.9776 11.0866 20.4212 10.0769 19.7527 9.14258C17.9238 6.35708 14.3969 5.08508 13.6687 10.0396L14.0887 10.7318L14.7584 11.4395L15.8632 12.2112L16.5633 11.1177L16.4838 9.79358C16.4807 9.71964 16.5067 9.64743 16.5563 9.59248C16.6058 9.53753 16.675 9.50424 16.7489 9.49977C16.8227 9.4953 16.8954 9.52 16.9512 9.56857C17.0071 9.61713 17.0416 9.68568 17.0474 9.75945L17.1194 10.925L18.2358 11.012C18.3087 11.0198 18.3758 11.0558 18.4227 11.1121C18.4697 11.1685 18.4929 11.2409 18.4874 11.3141C18.482 11.3872 18.4483 11.4554 18.3935 11.5042C18.3387 11.553 18.2671 11.5786 18.1938 11.5756L16.9983 11.4848L16.3286 12.5405L17.7551 13.5395L19.4688 13.9482C19.5391 13.9684 19.599 14.0149 19.6359 14.0781C19.6728 14.1413 19.6839 14.2163 19.6669 14.2875C19.6499 14.3587 19.6061 14.4205 19.5446 14.4602C19.4831 14.4999 19.4087 14.5144 19.3368 14.5006L17.9936 14.1788L18.3149 15.9383L20.1123 16.9411C20.1742 16.9796 20.2188 17.0405 20.2371 17.1111C20.2553 17.1816 20.2457 17.2565 20.2102 17.3202C20.1747 17.3839 20.1161 17.4314 20.0465 17.4531C19.9769 17.4747 19.9016 17.4688 19.8363 17.4365L17.9216 16.3696C17.8845 16.3495 17.8523 16.3214 17.8275 16.2874C17.8026 16.2533 17.7857 16.2141 17.7779 16.1727L17.3767 13.967C16.6357 13.4502 15.1477 12.4006 14.4104 11.8895C14.3399 11.8268 13.6349 11.1012 13.6004 11.0195C13.5828 10.958 12.6254 9.50183 12.6963 9.45683V7.07633H11.3002V9.45645C11.2998 9.50842 11.2854 9.55932 11.2586 9.60383L10.3807 11.0532C10.3694 11.0682 9.63143 11.8516 9.63143 11.8516C9.61643 11.8628 6.61943 13.9666 6.61943 13.9666L6.21818 16.1723C6.21041 16.2138 6.19348 16.2529 6.16863 16.287C6.14378 16.3211 6.11164 16.3492 6.07455 16.3692L4.16393 17.4365C4.0985 17.4696 4.02279 17.4763 3.95257 17.455C3.88235 17.4338 3.82303 17.3863 3.78694 17.3225C3.75085 17.2586 3.74078 17.1833 3.75882 17.1122C3.77686 17.041 3.82163 16.9796 3.8838 16.9407L5.68118 15.938L6.00293 14.1785L4.65968 14.5002C4.58643 14.5178 4.50919 14.5056 4.44494 14.4662C4.3807 14.4269 4.33472 14.3636 4.31712 14.2904C4.29951 14.2171 4.31173 14.1399 4.35108 14.0757C4.39042 14.0114 4.45368 13.9654 4.52693 13.9478L6.24105 13.5391L7.66755 12.5363L6.9978 11.4845L5.8023 11.5752C5.72907 11.5781 5.65758 11.5524 5.60292 11.5036C5.54825 11.4547 5.51468 11.3866 5.50929 11.3135C5.50389 11.2404 5.52708 11.1681 5.57398 11.1117C5.62088 11.0554 5.68782 11.0195 5.76068 11.0116L6.87668 10.9246L6.94868 9.75908C6.95459 9.68541 6.98914 9.617 7.04492 9.56852C7.1007 9.52004 7.17326 9.49536 7.24703 9.49978C7.3208 9.5042 7.3899 9.53736 7.43949 9.59215C7.48909 9.64694 7.51523 9.71898 7.5123 9.79283L7.4328 11.1173L8.13668 12.2108L9.23768 11.4391L9.90743 10.7315L10.3349 10.0313C9.58305 5.12708 6.07493 6.33608 4.24343 9.14258C2.41055 11.7298 1.44958 14.8336 1.49993 18.0038V20.4976C1.54167 20.9889 1.77502 21.444 2.14958 21.7647C2.52413 22.0854 3.00981 22.2458 3.50168 22.2113C4.13323 22.1617 4.73726 21.9318 5.24205 21.5491C5.55211 21.3133 5.93521 21.1941 6.3243 21.2123C7.59368 21.3815 9.2118 21.7711 9.9303 20.4406C10.3057 19.6834 10.5085 18.8525 10.5243 18.0076C10.5243 18.0076 10.6946 13.8076 10.6642 13.3197L7.86443 15.5292L8.94668 16.6872C8.99596 16.7392 9.023 16.8083 9.02205 16.88V18.2761C9.01938 18.3495 8.98832 18.4191 8.93541 18.4701C8.88251 18.5211 8.81187 18.5496 8.73837 18.5496C8.66486 18.5496 8.59423 18.5211 8.54132 18.4701C8.48841 18.4191 8.45735 18.3495 8.45468 18.2761V16.9898L7.55805 16.0287L6.88418 17.879C6.85716 17.9471 6.80475 18.0021 6.73799 18.0324C6.67123 18.0627 6.59532 18.0659 6.52624 18.0414C6.45715 18.0169 6.40027 17.9665 6.36758 17.9009C6.33488 17.8353 6.32891 17.7595 6.35093 17.6896L7.16468 15.4422C7.18335 15.3648 7.23048 15.2974 7.29668 15.2532L11.8222 11.6813C11.8719 11.641 11.934 11.619 11.9981 11.619C12.0621 11.619 12.1242 11.641 12.1739 11.6813C13.2026 12.4955 15.6446 14.4181 16.6994 15.2532C16.732 15.274 16.7602 15.3012 16.7823 15.333C16.8044 15.3647 16.8199 15.4006 16.8281 15.4385L17.6456 17.69C17.6687 17.7602 17.6634 17.8368 17.6308 17.9032C17.5982 17.9696 17.5409 18.0206 17.4711 18.0453C17.4014 18.07 17.3248 18.0664 17.2576 18.0354C17.1905 18.0043 17.1382 17.9481 17.1119 17.879L16.4384 16.0287L15.5414 16.9898V18.2761C15.5388 18.3495 15.5077 18.4191 15.4548 18.4701C15.4019 18.5211 15.3312 18.5496 15.2577 18.5496C15.1842 18.5496 15.1136 18.5211 15.0607 18.4701C15.0078 18.4191 14.9767 18.3495 14.9741 18.2761V16.88C14.9732 16.8083 15.0004 16.7391 15.0498 16.6872L16.1317 15.5292L13.3357 13.3197C13.3057 13.8076 13.4718 17.9922 13.4718 17.9922C13.4855 18.8423 13.6884 19.6787 14.0658 20.4406C14.6958 21.6046 16.0833 21.4767 17.2518 21.2618C17.509 21.1919 17.7787 21.1818 18.0404 21.2323C18.3021 21.2827 18.5488 21.3924 18.7616 21.5528C20.0748 22.6058 22.2712 22.4558 22.4999 20.4751V18.0496C22.5166 16.0318 22.1467 14.0295 21.4102 12.1508ZM11.3002 1.7832H12.6963V2.73308H11.3002V1.7832ZM11.3002 3.30045H12.6963V4.62083H11.3002V3.30045Z" fill="#477BFF"/>
<path d="M11.3008 5.18848H12.6969V6.50885H11.3008V5.18848Z" fill="#477BFF"/>
</svg>
