<svg width="24" height="24" viewBox="0 0 24 24" fill="none" xmlns="http://www.w3.org/2000/svg">
<g clip-path="url(#clip0_4597_130)">
<path fill-rule="evenodd" clip-rule="evenodd" d="M14.6739 21.3202C13.3637 22.2071 11.9937 22.8522 10.749 23.186C6.57259 22.0656 0.982422 17.4392 0.982422 11.9326V3.61428C0.98242 3.55572 1.00426 3.49926 1.04368 3.45595C1.08309 3.41263 1.13725 3.38558 1.19555 3.38007C3.83565 3.12054 6.13762 1.95598 7.88816 0.705811H13.6098C15.3603 1.95598 17.6622 3.12054 20.3023 3.3804C20.3605 3.3859 20.4146 3.41292 20.454 3.45618C20.4933 3.49943 20.5151 3.5558 20.5151 3.61428C20.5155 4.93856 20.5155 11.9326 20.5155 11.9326C20.5155 12.8487 20.3608 13.7404 20.0837 14.5956C19.7249 14.5058 19.3569 14.4582 18.9871 14.4537C19.2784 13.631 19.4404 12.7837 19.4404 11.9326V4.62995C19.4404 4.55283 19.4133 4.47815 19.3639 4.41893C19.3145 4.35971 19.2459 4.31969 19.17 4.30586C17.0804 3.9251 15.1148 3.03198 13.3552 1.83899C13.3006 1.802 13.2362 1.78223 13.1703 1.78223H8.32887C8.263 1.78224 8.19865 1.80199 8.14412 1.83894C6.38317 3.03198 4.41757 3.9251 2.32788 4.30586C2.252 4.31968 2.18338 4.35969 2.13397 4.41892C2.08455 4.47814 2.05749 4.55282 2.05748 4.62995V11.9326C2.05748 13.7332 2.7828 15.5167 3.92412 17.0882C5.12647 18.7437 6.78967 20.1626 8.52605 21.1181C8.53831 21.1259 8.55107 21.1329 8.56426 21.139C9.13885 21.4528 9.7211 21.7157 10.2971 21.9195C10.4142 21.961 10.532 22.0003 10.6506 22.0374C10.7146 22.0575 10.7833 22.0575 10.8473 22.0374C11.9992 21.6769 13.1883 21.0709 14.3006 20.2859C14.3842 20.644 14.5095 20.9912 14.6739 21.3202ZM14.1893 19.5553C13.1029 20.3613 11.9279 20.9887 10.7859 21.3652L11.7533 15.1362C12.4953 15.0975 13.1347 14.5437 13.2532 13.7808C13.3891 12.9063 12.7893 12.0861 11.9148 11.9502C11.5956 11.9002 11.2687 11.9482 10.9773 12.088C10.7422 11.8664 10.4452 11.7215 10.1259 11.6724C9.25136 11.5365 8.43113 12.1362 8.29527 13.0107C8.17677 13.7737 8.61814 14.4953 9.31339 14.7572L8.4508 20.3174C6.93969 19.4165 5.5123 18.1538 4.45715 16.701C3.40054 15.2461 2.7163 13.5996 2.7163 11.9326V4.90191C4.76214 4.48609 6.69085 3.60567 8.42948 2.44106H9.83875V8.37951C9.11155 8.5316 8.56468 9.17696 8.56468 9.94906C8.56468 10.834 9.28317 11.5525 10.1682 11.5525C10.5039 11.5525 10.8157 11.4491 11.0734 11.2724C11.3398 11.4553 11.6555 11.553 11.9786 11.5525C12.8636 11.5525 13.5821 10.834 13.5821 9.94906C13.5821 9.17696 13.0352 8.5316 12.308 8.37951V2.44106H13.0697C14.8071 3.60567 16.7357 4.48609 18.7816 4.90191V11.9326C18.7816 12.8017 18.5957 13.6651 18.2681 14.4987C15.9576 14.8194 14.1764 16.8049 14.1764 19.2031C14.1764 19.3216 14.1807 19.439 14.1893 19.5553ZM14.6779 14.8792L14.1856 14.387C14.0571 14.2585 13.8484 14.2585 13.7198 14.387C13.5912 14.5156 13.5912 14.7243 13.7198 14.8529L14.212 15.3451C14.3405 15.4737 14.5493 15.4737 14.6779 15.3451C14.8064 15.2165 14.8064 15.0078 14.6779 14.8792ZM7.36318 8.39056L7.85541 8.88275C7.9172 8.9445 8.00098 8.97918 8.08833 8.97918C8.17568 8.97918 8.25946 8.9445 8.32125 8.88275C8.38299 8.82096 8.41768 8.73719 8.41768 8.64983C8.41768 8.56248 8.38299 8.4787 8.32125 8.41692L7.82906 7.92468C7.70049 7.79612 7.49174 7.79612 7.36318 7.92468C7.23461 8.05325 7.23461 8.262 7.36318 8.39056ZM7.82906 15.3451L8.32125 14.8529C8.38299 14.7911 8.41768 14.7073 8.41768 14.62C8.41768 14.5326 8.38299 14.4488 8.32125 14.387C8.25946 14.3253 8.17568 14.2906 8.08833 14.2906C8.00098 14.2906 7.9172 14.3253 7.85541 14.387L7.36318 14.8792C7.23461 15.0078 7.23461 15.2165 7.36318 15.3451C7.49174 15.4737 7.70049 15.4737 7.82906 15.3451ZM6.23809 10.6803L6.91047 10.8605C7.08609 10.9076 7.26685 10.8032 7.3139 10.6276C7.36096 10.4519 7.25659 10.2712 7.08096 10.2241L6.40859 10.0439C6.23301 9.99687 6.05221 10.1012 6.00515 10.2769C5.95809 10.4525 6.06247 10.6332 6.23809 10.6803ZM14.212 7.92468L13.7198 8.41692C13.658 8.4787 13.6234 8.56248 13.6234 8.64983C13.6234 8.73719 13.658 8.82096 13.7198 8.88275C13.7816 8.9445 13.8654 8.97918 13.9527 8.97918C14.0401 8.97918 14.1238 8.9445 14.1856 8.88275L14.6779 8.39056C14.8064 8.262 14.8064 8.05325 14.6779 7.92468C14.5493 7.79612 14.3405 7.79612 14.212 7.92468ZM6.40859 13.2259L7.08096 13.0457C7.25659 12.9987 7.36096 12.8179 7.3139 12.6422C7.26685 12.4666 7.08609 12.3623 6.91047 12.4093L6.23809 12.5895C6.06247 12.6365 5.95809 12.8173 6.00515 12.9929C6.05221 13.1685 6.23301 13.2729 6.40859 13.2259ZM15.8029 12.5895L15.1306 12.4093C14.955 12.3623 14.7742 12.4666 14.7271 12.6422C14.6801 12.8179 14.7844 12.9987 14.9601 13.0457L15.6324 13.2259C15.8081 13.2729 15.9888 13.1685 16.0359 12.9929C16.0829 12.8173 15.9786 12.6365 15.8029 12.5895ZM15.6324 10.0439L14.9601 10.2241C14.7844 10.2712 14.6801 10.4519 14.7271 10.6276C14.7742 10.8032 14.955 10.9076 15.1306 10.8605L15.8029 10.6803C15.9786 10.6332 16.0829 10.4525 16.0359 10.2769C15.9888 10.1012 15.8081 9.99687 15.6324 10.0439ZM10.1508 21.1612C9.78863 21.0173 9.4252 20.8498 9.06426 20.6607L10.0097 14.5663C10.0231 14.48 10.0017 14.3919 9.95009 14.3213C9.89853 14.2508 9.82107 14.2037 9.73475 14.1903C9.21955 14.1102 8.86628 13.627 8.94628 13.1118C9.02633 12.5967 9.50953 12.2434 10.0247 12.3234C10.1481 12.3424 10.2665 12.3858 10.373 12.451C10.4795 12.5163 10.5719 12.602 10.6449 12.7033C10.6704 12.7386 10.7027 12.7685 10.7398 12.7912C10.777 12.8139 10.8182 12.8291 10.8612 12.8358C10.9043 12.8424 10.9482 12.8405 10.9905 12.8301C11.0327 12.8197 11.0725 12.8011 11.1076 12.7752C11.2079 12.7008 11.3219 12.6472 11.4432 12.6173C11.5644 12.5874 11.6904 12.582 11.8137 12.6012C12.3289 12.6813 12.6822 13.1645 12.6022 13.6797C12.5222 14.1949 12.0389 14.5482 11.5238 14.4682C11.481 14.4615 11.4374 14.4634 11.3954 14.4736C11.3533 14.4838 11.3137 14.5022 11.2788 14.5277C11.2439 14.5533 11.2143 14.5854 11.1918 14.6224C11.1693 14.6593 11.1543 14.7003 11.1477 14.7431L10.1508 21.1612ZM10.4976 2.44106H11.6492V8.67499C11.6492 8.76235 11.6839 8.84614 11.7457 8.90792C11.8075 8.96969 11.8912 9.0044 11.9786 9.0044C12.5 9.0044 12.9233 9.42769 12.9233 9.94906C12.9233 10.4704 12.5 10.8937 11.9786 10.8937C11.8537 10.8938 11.7301 10.8691 11.6149 10.821C11.4997 10.7729 11.3952 10.7023 11.3075 10.6134C11.2768 10.5825 11.2404 10.5579 11.2002 10.5411C11.16 10.5244 11.1169 10.5157 11.0734 10.5157C11.0299 10.5157 10.9867 10.5244 10.9466 10.5411C10.9064 10.5579 10.8699 10.5825 10.8393 10.6134C10.7516 10.7023 10.6471 10.7729 10.5319 10.821C10.4167 10.8691 10.293 10.8938 10.1682 10.8937C9.6468 10.8937 9.2235 10.4704 9.2235 9.94906C9.2235 9.42769 9.6468 9.0044 10.1682 9.0044C10.2555 9.0044 10.3393 8.96969 10.4011 8.90792C10.4629 8.84614 10.4976 8.76235 10.4976 8.67499V2.44106ZM18.9261 15.1122C21.184 15.1122 23.0171 16.9452 23.0171 19.2031C23.0171 21.461 21.184 23.294 18.9261 23.294C16.6683 23.294 14.8352 21.461 14.8352 19.2031C14.8352 16.9452 16.6683 15.1122 18.9261 15.1122ZM17.662 20.4672V21.5614C17.662 21.6488 17.6968 21.7325 17.7585 21.7943C17.8203 21.8561 17.9041 21.8908 17.9915 21.8908H19.8608C19.9482 21.8908 20.032 21.8561 20.0938 21.7943C20.1555 21.7325 20.1902 21.6488 20.1902 21.5614V20.4672H21.2844C21.3718 20.4672 21.4556 20.4325 21.5173 20.3707C21.5791 20.309 21.6138 20.2252 21.6138 20.1378V18.2684C21.6138 18.1811 21.5791 18.0973 21.5173 18.0355C21.4556 17.9737 21.3718 17.939 21.2844 17.939H20.1902V16.8448C20.1902 16.7575 20.1555 16.6737 20.0938 16.6119C20.032 16.5501 19.9482 16.5154 19.8608 16.5154H17.9915C17.9041 16.5154 17.8203 16.5501 17.7585 16.6119C17.6968 16.6737 17.662 16.7575 17.662 16.8448V17.939H16.5679C16.4805 17.939 16.3967 17.9737 16.335 18.0355C16.2732 18.0973 16.2385 18.1811 16.2385 18.2684V20.1378C16.2385 20.2252 16.2732 20.309 16.335 20.3707C16.3967 20.4325 16.4805 20.4672 16.5679 20.4672H17.662ZM18.3209 20.1378C18.3209 20.0504 18.2862 19.9667 18.2244 19.9049C18.1626 19.8431 18.0788 19.8084 17.9915 19.8084H16.8973V18.5979H17.9915C18.0788 18.5979 18.1626 18.5632 18.2244 18.5014C18.2862 18.4396 18.3209 18.3558 18.3209 18.2684V17.1742H19.5314V18.2684C19.5314 18.3558 19.5661 18.4396 19.6279 18.5014C19.6897 18.5632 19.7735 18.5979 19.8608 18.5979H20.955V19.8084H19.8608C19.7735 19.8084 19.6897 19.8431 19.6279 19.9049C19.5661 19.9667 19.5314 20.0504 19.5314 20.1378V21.232H18.3209V20.1378Z" fill="#477BFF"/>
</g>
<defs>
<clipPath id="clip0_4597_130">
<rect width="24" height="24" fill="white"/>
</clipPath>
</defs>
</svg>
