<svg width="24" height="24" viewBox="0 0 24 24" fill="none" xmlns="http://www.w3.org/2000/svg">
<g clip-path="url(#clip0_4596_1957)">
<path fill-rule="evenodd" clip-rule="evenodd" d="M15.0906 9.66748C14.3938 9.66821 13.7257 9.94536 13.2329 10.4381C12.7402 10.9309 12.463 11.599 12.4623 12.2959V20.9784C12.4623 21.1276 12.5216 21.2707 12.6271 21.3762C12.7326 21.4817 12.8756 21.5409 13.0248 21.5409C13.174 21.5409 13.3171 21.4817 13.4226 21.3762C13.5281 21.2707 13.5873 21.1276 13.5873 20.9784V12.2959C13.5876 11.9787 13.6881 11.6698 13.8744 11.4131C14.0607 11.1565 14.3233 10.9652 14.6247 10.8666C14.6535 10.8904 14.6847 10.9113 14.7176 10.9289C15.2349 11.2036 15.863 11.6344 15.9168 12.1238C15.9717 12.6169 15.4464 13.1798 14.9958 13.5656C14.9132 13.6368 14.8528 13.7302 14.822 13.8347C14.6275 14.5065 14.6555 15.2231 14.9017 15.8777C15.148 16.5322 15.5994 17.0896 16.1884 17.4666C16.72 17.813 17.3403 17.9986 17.9748 18.001C18.7276 18.001 19.5072 17.7399 20.2679 17.2205C21.4318 16.4259 22.4991 15.0492 23.1957 13.4437C23.9222 11.768 24.1682 10.0556 23.8885 8.62221C23.5143 6.70784 22.6454 5.12205 21.376 4.03648C20.3012 3.11735 18.959 2.56884 17.5481 2.47221C16.6129 2.41174 15.7299 2.55945 14.9943 2.89971C14.2027 3.26623 13.6411 3.84424 13.4128 4.52721C13.1335 5.36393 13.1222 7.05138 16.0847 9.0708C16.0261 9.29065 15.6822 9.50627 15.3502 9.66748H15.0906ZM0.112585 8.62221C-0.167353 10.0556 0.0787879 11.768 0.805913 13.4437C1.50205 15.0492 2.5693 16.4259 3.73321 17.2205C4.49441 17.7399 5.27348 18.001 6.02671 18.001C6.66106 17.9986 7.28123 17.813 7.81265 17.4666C8.4017 17.0896 8.85305 16.5322 9.09932 15.8777C9.34559 15.2231 9.37358 14.5065 9.1791 13.8347C9.14815 13.7302 9.08774 13.6368 9.0051 13.5656C8.55482 13.1798 8.02958 12.6169 8.08424 12.1238C8.13801 11.6344 8.76613 11.2036 9.28354 10.9289C9.3165 10.9113 9.34762 10.8904 9.37644 10.8666C9.67793 10.9651 9.94058 11.1563 10.1269 11.413C10.3132 11.6697 10.4136 11.9787 10.4138 12.2959V20.9784C10.4138 21.1276 10.4731 21.2707 10.5786 21.3762C10.6841 21.4817 10.8272 21.5409 10.9763 21.5409C11.1255 21.5409 11.2686 21.4817 11.3741 21.3762C11.4796 21.2707 11.5388 21.1276 11.5388 20.9784V12.2959C11.5381 11.599 11.261 10.9309 10.7682 10.4381C10.2755 9.94536 9.60737 9.66821 8.91051 9.66748H8.65091C8.31894 9.50627 7.97483 9.29065 7.91647 9.0708C10.879 7.05138 10.8677 5.36393 10.5883 4.52721C10.3599 3.84424 9.79841 3.26627 9.00669 2.89971C8.27113 2.55935 7.38801 2.41174 6.45285 2.47221C5.04203 2.56902 3.69987 3.1175 2.62504 4.03648C1.35566 5.12205 0.486788 6.70779 0.112585 8.62221Z" fill="#477BFF"/>
</g>
<defs>
<clipPath id="clip0_4596_1957">
<rect width="24" height="24" fill="white"/>
</clipPath>
</defs>
</svg>
